<svg id="Layer_1" data-name="Layer 1" xmlns="http://www.w3.org/2000/svg" viewBox="0 0 155.841 35.499"><defs><style>.cls-1{fill:#0c4167}</style></defs><path class="cls-1" d="M49.26 12.515a3.8 3.8 0 01-1.426 3.082 4.283 4.283 0 01-1.482.782 5.869 5.869 0 01-1.75.254h-6.706V.523h6.262a7.005 7.005 0 011.683.2 4.283 4.283 0 011.437.636 3.155 3.155 0 01.99 1.125 3.474 3.474 0 01.369 1.65 3.17 3.17 0 01-.356 1.515 3.807 3.807 0 01-.924 1.148 4.088 4.088 0 01-1.315.746 5.952 5.952 0 01-1.504.335v.224a3.085 3.085 0 01.358-.022h.4a3.912 3.912 0 011.737.358 3.653 3.653 0 011.238.954 4.027 4.027 0 01.747 1.405 5.896 5.896 0 01.242 1.718zm-4.567-7.822a1.344 1.344 0 00-.636-1.316 3.255 3.255 0 00-1.528-.335h-1.09V7.1a1.036 1.036 0 00.422.041 4.074 4.074 0 01.423-.02 2.34 2.34 0 001.77-.659 2.437 2.437 0 00.639-1.768zm.646 7.308a3.12 3.12 0 00-.213-1.227 1.796 1.796 0 00-.603-.768 2.475 2.475 0 00-.945-.402 5.71 5.71 0 00-1.25-.123c-.146 0-.296.002-.444.01-.15.008-.3.02-.448.033v4.502c.208.033.422.052.645.067.224.017.439.024.647.024a4.835 4.835 0 00.958-.099 2.244 2.244 0 00.834-.359 1.921 1.921 0 00.592-.66 1.978 1.978 0 00.227-.998zM61.45 16.631l-1.492-4.142H53.85l-1.515 4.141h-2.541L55.478.88l4.078-.358 5.818 16.111H61.45zM56.88 3.955l-2.184 6.13h4.393zM76.404 16.631l-6.552-9.78h-.178v9.78h-2.897V.88l3.298-.357 6.508 9.786h.178V.522h2.9v16.111h-3.258v-.002zM92.704 16.847a19.233 19.233 0 01-2.75.19 9.703 9.703 0 01-3.496-.603 7.497 7.497 0 01-2.666-1.715 7.624 7.624 0 01-1.693-2.663 9.64 9.64 0 01-.592-3.467 9.74 9.74 0 01.592-3.464A7.419 7.419 0 0183.79 2.45 7.636 7.636 0 0186.457.735a9.486 9.486 0 013.496-.612 18.116 18.116 0 012.608.178 20.272 20.272 0 012.562.557v2.723a17.053 17.053 0 00-2.081-.685 8.915 8.915 0 00-2.173-.254 5.373 5.373 0 00-2.31.458 4.563 4.563 0 00-1.614 1.246 5.252 5.252 0 00-.958 1.861 8.05 8.05 0 00-.313 2.273 7.78 7.78 0 00.358 2.42 5.299 5.299 0 001.059 1.906 4.866 4.866 0 001.76 1.257 6.086 6.086 0 002.442.458 6.748 6.748 0 002.106-.314 14.919 14.919 0 001.97-.802v2.784a14.677 14.677 0 01-2.665.658zM112.44 8.59a10.225 10.225 0 01-.555 3.454 7.151 7.151 0 01-4.191 4.38 9.16 9.16 0 01-3.455.612 9.37 9.37 0 01-3.454-.602 7.124 7.124 0 01-2.574-1.715 7.512 7.512 0 01-1.617-2.663 10.225 10.225 0 01-.557-3.467 10.246 10.246 0 01.557-3.453 7.512 7.512 0 011.616-2.674 7.231 7.231 0 012.574-1.728 9.147 9.147 0 013.454-.612 9.243 9.243 0 013.466.612 7.067 7.067 0 012.575 1.728 7.533 7.533 0 011.605 2.674 10.2 10.2 0 01.557 3.453zm-4.164 0a10.256 10.256 0 00-.202-1.972 6.669 6.669 0 00-.68-1.926 4.387 4.387 0 00-1.248-1.472 3.415 3.415 0 00-3.808 0 4.338 4.338 0 00-1.248 1.472 6.685 6.685 0 00-.682 1.926 10.332 10.332 0 00-.201 1.971 10.341 10.341 0 00.2 1.971 6.563 6.563 0 00.683 1.918 4.438 4.438 0 001.248 1.458 3.41 3.41 0 003.808 0 4.422 4.422 0 001.249-1.458 6.648 6.648 0 00.679-1.918 10.344 10.344 0 00.202-1.97zM46.788 35.096a31.952 31.952 0 01-1.974-3.176 51.52 51.52 0 01-1.66-3.328H41.55v6.502h-3.654V18.981h6.998a4.32 4.32 0 013.03 1.205 4.194 4.194 0 01.926 1.334 4.109 4.109 0 01.343 1.673 4.348 4.348 0 01-.805 2.587 5.514 5.514 0 01-2.092 1.78c.298.578.652 1.208 1.069 1.885q.62 1.013 1.303 2.028c.455.676.917 1.331 1.395 1.961.476.632.928 1.188 1.359 1.66h-4.634zm-1.518-11.43a2.161 2.161 0 00-.211-.994 1.834 1.834 0 00-.568-.669 2.458 2.458 0 00-.824-.376 3.72 3.72 0 00-.981-.124h-1.138v4.84h1.45a2.327 2.327 0 001.037-.216 1.983 1.983 0 00.713-.576 2.334 2.334 0 00.4-.86 4.256 4.256 0 00.122-1.025zM52.604 35.096v-16.11h10.339V21.5h-6.418v4.15h5.26v2.25h-5.26v4.678h6.93v2.516l-10.851.001zM76.738 23.463a6.134 6.134 0 01-.602 2.985 3.756 3.756 0 01-1.638 1.582 6.924 6.924 0 01-2.428.64q-1.395.117-2.955.117v6.308h-3.677V18.981h6.552a5.12 5.12 0 013.478 1.103 4.246 4.246 0 011.27 3.38zm-3.946.333a2.14 2.14 0 00-.211-.975 2.05 2.05 0 00-.58-.716 2.71 2.71 0 00-.835-.447 3.14 3.14 0 00-.98-.155 2.147 2.147 0 00-.535.057q-.224.056-.535.123v4.855a11.136 11.136 0 001.46-.09 2.96 2.96 0 001.168-.38 2.015 2.015 0 00.77-.825 3.132 3.132 0 00.278-1.447zM91.423 29.233q0 6.266-6.263 6.266a8.699 8.699 0 01-2.717-.402 5.767 5.767 0 01-2.096-1.183 5.096 5.096 0 01-1.34-1.962 7.402 7.402 0 01-.467-2.719V19.34l3.92-.355v9.36q0 .756.068 1.57a5.159 5.159 0 00.335 1.494 2.68 2.68 0 00.824 1.127 2.439 2.439 0 001.56.443 2.363 2.363 0 002.318-1.397 4.516 4.516 0 00.38-1.359 12.341 12.341 0 00.088-1.477v-9.763h3.389v10.25zM105.64 30.976a3.832 3.832 0 01-1.422 3.085 4.403 4.403 0 01-1.48.781 5.995 5.995 0 01-1.75.256h-6.71V18.985h6.264a7.162 7.162 0 011.682.197 4.251 4.251 0 011.438.638 3.192 3.192 0 01.992 1.126 3.454 3.454 0 01.365 1.646 3.156 3.156 0 01-.355 1.518 3.94 3.94 0 01-.924 1.153 4.318 4.318 0 01-1.314.743 6.399 6.399 0 01-1.507.34v.22a2.509 2.509 0 01.355-.024h.405a3.914 3.914 0 011.735.357 3.677 3.677 0 011.239.958 3.912 3.912 0 01.744 1.401 5.806 5.806 0 01.244 1.718zm-4.564-7.825a1.35 1.35 0 00-.634-1.313 3.217 3.217 0 00-1.53-.337h-1.091v4.058a1.16 1.16 0 00.423.041 3.84 3.84 0 01.423-.019 2.362 2.362 0 001.773-.658 2.431 2.431 0 00.636-1.772zm.645 7.31a3.121 3.121 0 00-.213-1.23 1.798 1.798 0 00-.601-.769 2.709 2.709 0 00-.946-.4 6.165 6.165 0 00-1.247-.12c-.15 0-.298.003-.446.01-.147.01-.296.022-.445.04v4.498c.208.03.423.053.646.066.222.016.438.023.644.023a4.564 4.564 0 00.959-.1 2.29 2.29 0 00.836-.358 1.96 1.96 0 00.589-.655 2.023 2.023 0 00.224-1.005zM107.628 35.096V19.341l3.92-.355V32.58h6.933v2.518h-10.853zM119.952 35.096V19.341l4.034-.355V35.1h-4.034zM137.032 35.308a18.982 18.982 0 01-2.75.188 9.615 9.615 0 01-3.498-.603 7.348 7.348 0 01-4.356-4.382 9.599 9.599 0 01-.591-3.463 9.755 9.755 0 01.59-3.466 7.359 7.359 0 011.693-2.67 7.58 7.58 0 012.664-1.72 9.48 9.48 0 013.498-.612 17.793 17.793 0 012.607.182 19.606 19.606 0 012.563.553v2.722a16.788 16.788 0 00-2.083-.679 8.728 8.728 0 00-2.173-.258 5.331 5.331 0 00-2.307.458 4.493 4.493 0 00-1.615 1.25 5.194 5.194 0 00-.96 1.857 8.065 8.065 0 00-.311 2.273 7.931 7.931 0 00.356 2.42 5.398 5.398 0 001.059 1.905 4.903 4.903 0 001.76 1.257 6.082 6.082 0 002.443.458 6.89 6.89 0 002.108-.313 15.233 15.233 0 001.97-.799v2.785a14.803 14.803 0 01-2.667.657zM151.577 35.096l-1.495-4.145h-6.104l-1.516 4.145h-2.543l5.683-15.756 4.079-.355 5.816 16.113h-3.921v-.002zm-4.57-12.679l-2.184 6.126h4.39z"/><path d="M.497.573v34.473H34.97V.573zm33.419 33.42H1.55V1.625h32.366z" fill="#fac80f"/><path class="cls-1" d="M12.579 26.36c.613 0 .847-.06.935.346a5.088 5.088 0 004.177 3.915 6.76 6.76 0 005.487-1.083 3.337 3.337 0 001.754-2.337c.118-.408.003-.768.343-.768 0 .011 5.07 0 5.07 0 .455.015.57.23.425.565a11.954 11.954 0 01-6.103 4.907c-.03-.03-4.47 1.201-7.445.67-4.47-.76-7.272-2.189-9.553-5.655 0 0-.451-.712.514-.564.015.004 4.396.004 4.396.004z"/><path class="cls-1" d="M5.057 3.686h1.018V17.62a2.922 2.922 0 00-1.393 2.426 15.793 15.793 0 004.567 12.337H6.354S.113 20.887 5.057 17.245c-.096-.095 0-13.559 0-13.559zM30.768 15.698c0-.436-.264-.436-.264-.436s-.436-.26-.407-.26a.69.69 0 00-.437-.71s-3.01-2.388-3.01-2.418a1.002 1.002 0 00-.96-.409H8.779c-.794 0-.992.346-.992.932v5.254a.781.781 0 00.904.854h3.448c.9.06.757-.94.757-1.408.028-.349.182-.292.27-.292 0 0 11.739-.029 11.739 0 .826.033.697.673.727 1.108.03.437.232.621.845.652 0 0 3.416.028 3.416 0 .873 0 .847-.322.873-.74.002.001-.024-2.096.002-2.127zm-6.071-.584H13.109c-.24.007-.208-.173-.208-.173v-1.563c-.01-.193.255-.133.255-.133h11.54a.934.934 0 110 1.87z"/><path class="cls-1" d="M32.348 20.108c-.086-.729-.555-.85-1.197-.877 0 0-23.882-.042-23.882-.02a.931.931 0 00-1.041.904 12.535 12.535 0 00.724 5.025.751.751 0 00.813.572l22.648.007c.643-.03.875.11 1.2-.592a14.153 14.153 0 00.735-5.019zm-6.658 2.98a.931.931 0 01-.935.934H13.804a.93.93 0 01-.933-.934v-1.226a.935.935 0 01.933-.938h10.95a.935.935 0 01.936.938zM24.228 9.997S20.097 6.68 20.063 6.68a1.741 1.741 0 00-1.136-.389h-2.47c.39-.262-.292-.684-.292-.684s-1.95-1.527-1.981-1.558a1.257 1.257 0 00-.942-.358H8.558a.725.725 0 00-.843.748v5.394a.955.955 0 001.04.98h15.409c.877.065.357-.653.064-.815zm-11.24-4.462c.179 0 .529-.01.53.401.003.345-.353.395-.53.395zm5.519 3.155c0 .26-.474.465-.731.465H13.04c-.118.014-.148-.119-.148-.119V8.23c-.007-.116.148-.123.148-.123h4.736c.257 0 .73.208.73.47z"/></svg>