<?xml version="1.0" encoding="utf-8"?>
<!-- Generator: Adobe Illustrator 21.0.2, SVG Export Plug-In . SVG Version: 6.00 Build 0)  -->
<svg version="1.1" id="Diners" xmlns="http://www.w3.org/2000/svg" xmlns:xlink="http://www.w3.org/1999/xlink" x="0px" y="0px"
	 viewBox="0 0 129.6 89.9" style="enable-background:new 0 0 129.6 89.9;" xml:space="preserve">
<style type="text/css">
	#Diners .st0{fill:#231F20;}
	#Diners .st1{fill:#FFFFFF;}
	#Diners .st2{fill:#004A97;}
</style>
<title>diners</title>
<g id="Layer_2">
	<g id="Layer_1-2">
		<path class="st0" d="M5.3,70c0,2.1,1.5,2.4,2.8,2.4c5.9,0,7.9-4.5,7.9-8.5c0-5.1-3.3-8.8-8.6-8.8c-1.1,0-1.6,0.1-2.1,0.1V70z
			 M2.6,57.2c0-2.5-1.3-2.3-2.5-2.3v-0.7c1.1,0,2.2,0,3.2,0s2.7,0,4.7,0c7.1,0,11,4.7,11,9.6c0,2.7-1.6,9.5-11.3,9.5
			c-1.4,0-2.7-0.1-4-0.1s-2.4,0-3.7,0.1v-0.7c1.6-0.2,2.4-0.2,2.5-2.1L2.6,57.2z"/>
		<path class="st0" d="M22.9,56.5c-0.7,0-1.3-0.6-1.3-1.3c0-0.7,0.6-1.3,1.3-1.3l0,0c0.7,0,1.3,0.6,1.3,1.3
			C24.3,55.9,23.7,56.5,22.9,56.5 M20,72.5h0.5c0.8,0,1.3,0,1.3-0.9v-7.4c0-1.2-0.4-1.4-1.4-1.9v-0.4c1.3-0.4,2.8-0.9,2.9-1
			c0.2-0.1,0.3-0.1,0.5-0.1c0.1,0,0.2,0.2,0.2,0.4v10.5c0,0.9,0.6,0.9,1.4,0.9h0.5v0.7c-0.9,0-1.9-0.1-2.9-0.1s-2,0-3,0.1V72.5z"/>
		<path class="st0" d="M28.5,64.4c0-1-0.3-1.3-1.6-1.8V62c1.2-0.4,2.4-0.8,3.6-1.3c0.1,0,0.2,0,0.2,0.3v1.8c1.6-1.1,2.9-2.1,4.8-2.1
			c2.3,0,3.2,1.7,3.2,3.8v7.1c0,0.9,0.6,0.9,1.4,0.9h0.5v0.7c-1,0-1.9-0.1-2.9-0.1s-2,0-3,0.1v-0.7H35c0.8,0,1.3,0,1.3-0.9v-7
			c0-1.6-1-2.3-2.5-2.3c-1.2,0.2-2.2,0.6-3.2,1.3v8.1c0,0.9,0.6,0.9,1.4,0.9h0.5v0.7c-1,0-1.9-0.1-2.9-0.1s-2,0-3,0.1v-0.7h0.5
			c0.8,0,1.3,0,1.3-0.9L28.5,64.4z"/>
		<path class="st0" d="M47.3,64.8c0.7,0,0.8-0.4,0.8-0.7c0.1-1.3-0.8-2.4-2.1-2.5c-0.1,0-0.2,0-0.3,0c-1.7,0-2.8,1.2-3.2,3.2H47.3z
			 M42.5,65.7c-0.1,0.5-0.1,1.1,0,1.6c0.2,2.6,1.8,4.7,4,4.7c1.4-0.1,2.8-0.7,3.7-1.8l0.4,0.4c-1.3,1.7-2.8,3.1-5.1,3.1
			c-4.4,0-5.2-4.2-5.2-6c0-5.4,3.6-7,5.5-7c2.4-0.2,4.5,1.6,4.6,4c0,0.1,0,0.2,0,0.3c0,0.2,0,0.3,0,0.5l-0.2,0.2L42.5,65.7z"/>
		<path class="st0" d="M51.1,72.5h0.7c0.8,0,1.3,0,1.3-0.9v-7.7c0-0.8-1-1-1.4-1.2v-0.4c2-0.8,3.1-1.6,3.3-1.6s0.2,0.1,0.2,0.4v2.5
			h0.1c0.7-1.1,1.8-2.8,3.5-2.8c0.8,0,1.5,0.6,1.6,1.4c0,0,0,0,0,0c0,0.7-0.5,1.4-1.3,1.4c0,0,0,0,0,0c-0.8,0-0.8-0.7-1.8-0.7
			c-1.1,0.2-2,1.1-2,2.3v6.4c0,0.9,0.5,0.9,1.3,0.9h1.5v0.7c-1.5,0-2.7-0.1-3.8-0.1s-2.3,0-3.3,0.1L51.1,72.5z"/>
		<path class="st0" d="M61.6,69.4c0.4,1.8,1.5,3.3,3.5,3.3c1.1,0.2,2-0.6,2.2-1.6c0-0.1,0-0.2,0-0.3c0-3.2-6-2.2-6-6.6
			c0-1.5,1.2-3.5,4.2-3.5c1.1,0,2.2,0.3,3.1,0.8l0.2,2.8h-0.6c-0.1-1.6-1.4-2.8-2.9-2.7c0,0-0.1,0-0.1,0c-1.1-0.1-2,0.6-2.1,1.7
			c0,0,0,0.1,0,0.1c0,3.2,6.4,2.2,6.4,6.5c0,1.8-1.4,3.7-4.7,3.7c-1.2,0-2.3-0.4-3.3-0.9l-0.3-3.2L61.6,69.4z"/>
		<path class="st0" d="M94.2,59.1h-0.7c-0.5-3.2-2.8-4.5-5.9-4.5S80,56.7,80,63.3c0,5.5,3.9,9.5,8.2,9.5c2.8,0,5.1-2.1,5.5-4.8
			l0.6,0.2l-0.6,4c-1.9,0.9-4,1.4-6.1,1.4c-6.4,0-10.5-4.1-10.5-10.3c0-5.6,5-9.6,10.4-9.6c2.2,0.1,4.4,0.6,6.5,1.5L94.2,59.1z"/>
		<path class="st0" d="M95.2,72.5h0.5c0.8,0,1.3,0,1.3-0.9V56.4c0-1.8-0.4-1.8-1.4-2.1v-0.4c1-0.3,1.9-0.7,2.8-1.2
			c0.2-0.1,0.4-0.2,0.6-0.3c0.2,0,0.2,0.2,0.2,0.4v18.9c0,0.9,0.6,0.9,1.4,0.9h0.5v0.7c-0.9,0-1.9-0.1-2.9-0.1s-2,0-3,0.1L95.2,72.5
			z"/>
		<path class="st0" d="M112.8,71.8c0,0.5,0.3,0.5,0.8,0.5h1.1v0.6c-1.3,0.2-2.7,0.5-3.9,0.8l-0.1-0.1v-2.3c-1.6,1.3-2.9,2.3-4.8,2.3
			c-1.7,0-3-1.3-3-3c0-0.1,0-0.2,0-0.3v-7c0-0.7-0.1-1.4-1.6-1.5v-0.5c1,0,3.2-0.2,3.5-0.2s0.3,0.2,0.3,0.8v7c0,0.8,0,3.2,2.4,3.2
			c1.2-0.2,2.4-0.8,3.3-1.7v-7.4c0-0.5-1.3-0.8-2.3-1.1v-0.5c2.5-0.2,4-0.4,4.3-0.4s0.2,0.2,0.2,0.5L112.8,71.8z"/>
		<path class="st0" d="M118.2,70.2c0.1,1.5,1.3,2.7,2.8,2.8c2.9,0,4.2-2.9,4.2-5.3c0-3-2.2-5.4-4.4-5.4c-1,0.1-1.9,0.6-2.6,1.3
			L118.2,70.2z M118.2,62.7c1.1-1.1,2.5-1.8,4.1-2c3.2,0,5.1,2.8,5.1,5.8c0,3.6-2.6,7.2-6.6,7.2c-1.3,0-2.6-0.4-3.8-1l-0.8,0.6
			l-0.6-0.3c0.3-1.6,0.4-3.2,0.4-4.9V56.4c0-1.8-0.4-1.8-1.4-2.1v-0.4c1-0.3,1.9-0.7,2.8-1.2c0.2-0.1,0.4-0.2,0.6-0.3
			c0.2,0,0.2,0.2,0.2,0.4V62.7z"/>
		<path class="st0" d="M0.1,89.2h0.2c0.5,0,1.1-0.1,1.1-0.8v-7.8c0-0.8-0.6-0.8-1.1-0.8H0.1v-0.4c0.6,0,1.5,0.1,2.2,0.1
			s1.6-0.1,2.3-0.1v0.4H4.4c-0.5,0-1.1,0.1-1.1,0.8v7.8c0,0.8,0.6,0.8,1.1,0.8h0.2v0.4c-0.7,0-1.6-0.1-2.3-0.1s-1.6,0.1-2.2,0.1
			L0.1,89.2z"/>
		<path class="st0" d="M4.6,89.6v-0.3H4.4c-0.5,0-1.2-0.1-1.2-0.9v-7.8c0-0.8,0.6-0.9,1.2-0.9h0.1v-0.3c-0.7,0-1.5,0.1-2.3,0.1
			s-1.6,0-2.1,0v0.3h0.1c0.5,0,1.2,0.1,1.2,0.9v7.8c0,0.8-0.6,0.9-1.2,0.9H0.1v0.3c0.6,0,1.4-0.1,2.1-0.1S3.9,89.6,4.6,89.6
			 M4.6,89.7c-0.7,0-1.6-0.1-2.4-0.1s-1.6,0.1-2.2,0.1H0v-0.6h0.3c0.5,0,1-0.1,1-0.8v-7.8c0-0.7-0.5-0.8-1-0.8H0v-0.6h0.1
			c0.6,0,1.5,0.1,2.2,0.1s1.6-0.1,2.3-0.1h0.1v0.6H4.4c-0.5,0-1,0.1-1,0.8v7.8c0,0.7,0.5,0.8,1,0.8h0.3L4.6,89.7L4.6,89.7z"/>
		<path class="st0" d="M14.9,86.7L14.9,86.7v-5.6c0.1-0.7-0.4-1.3-1-1.4c-0.1,0-0.2,0-0.3,0h-0.3v-0.4c0.7,0,1.4,0.1,2.1,0.1
			s1.2-0.1,1.8-0.1v0.4H17c-0.6,0-1.3,0.1-1.3,1.9v6.8c0,0.5,0,1,0.1,1.5h-0.6l-7.7-8.5v6.1c0,1.3,0.2,1.7,1.4,1.7h0.2v0.4
			c-0.6,0-1.3-0.1-1.9-0.1s-1.4,0.1-2,0.1v-0.4h0.2c1,0,1.3-0.7,1.3-1.9V81c0-0.7-0.6-1.3-1.3-1.3c0,0,0,0,0,0H5.2v-0.4
			c0.6,0,1.2,0.1,1.7,0.1s0.9-0.1,1.3-0.1L14.9,86.7z"/>
		<path class="st0" d="M14.8,86.7L14.8,86.7z M14.8,86.7L14.8,86.7z M15.1,89.8h0.5c-0.1-0.5-0.1-1-0.1-1.4v-6.8c0-1.8,0.7-2,1.4-2
			h0.2v-0.3c-0.6,0-1.2,0.1-1.8,0.1s-1.4-0.1-2-0.1v0.3h0.3c0.7,0,1.3,0.5,1.4,1.2c0,0.1,0,0.2,0,0.2v5.6l0,0h-0.1l-6.6-7.5
			c-0.4,0-0.9,0.1-1.3,0.1s-1.1-0.1-1.7-0.1v0.3h0.1c0.8,0,1.4,0.6,1.4,1.4c0,0,0,0.1,0,0.1v6.3c0,1.2-0.3,2-1.4,2H5.2v0.3
			c0.7,0,1.3-0.1,2-0.1s1.2,0.1,1.9,0.1v-0.3H8.9c-1.2,0-1.5-0.5-1.5-1.8v-6.3L15.1,89.8z M15.7,89.9h-0.6l-7.5-8.4v6
			c0,1.3,0.2,1.7,1.3,1.7h0.3v0.6H9.1c-0.6,0-1.3-0.1-1.9-0.1s-1.3,0.1-2,0.1H5.1v-0.6h0.3c1,0,1.3-0.6,1.3-1.8V81
			c0-0.7-0.6-1.3-1.3-1.3c0,0,0,0,0,0H5.1v-0.6h0.1c0.6,0,1.2,0.1,1.7,0.1s0.9-0.1,1.4,0l6.6,7.4v-5.5c0-1.2-0.8-1.3-1.2-1.3h-0.4
			v-0.6h0.1c0.7,0,1.4,0.1,2.1,0.1s1.2-0.1,1.8-0.1h0.1v0.6H17c-0.6,0-1.2,0.1-1.3,1.8v6.8c0,0.5,0,1,0.1,1.5v0.1L15.7,89.9z"/>
		<path class="st0" d="M19.4,80c-1.1,0-1.2,0.3-1.4,1.4h-0.5c0.1-0.4,0.1-0.8,0.2-1.3c0.1-0.4,0.1-0.8,0.1-1.3h0.4
			c0.1,0.4,0.5,0.4,0.9,0.4h7.7c0.4,0,0.8,0,0.8-0.5l0.4,0.1c-0.1,0.4-0.1,0.8-0.2,1.2s0,0.8,0,1.2l-0.5,0.2c0-0.6-0.1-1.4-1.1-1.4
			h-2.5v7.9c0,1.2,0.5,1.3,1.2,1.3h0.3v0.4c-0.6,0-1.6-0.1-2.4-0.1s-1.9,0.1-2.5,0.1v-0.4h0.3c0.8,0,1.2-0.1,1.2-1.2V80H19.4z"/>
		<path class="st0" d="M25.3,89.7c-0.6,0-1.6-0.1-2.4-0.1s-1.9,0.1-2.5,0.1h-0.1v-0.6h0.4c0.8,0,1.1,0,1.2-1.2V80h-2.4v-0.1h2.5v8
			c0,1.2-0.5,1.3-1.3,1.3h-0.2v0.3c0.6,0,1.6-0.1,2.5-0.1s1.8,0.1,2.4,0.1v-0.3H25c-0.7,0-1.3-0.2-1.3-1.3v-8h2.5
			c1,0,1.1,0.8,1.2,1.4l0.3-0.1c0-0.4,0-0.8,0-1.2s0.1-0.8,0.1-1.2h-0.2c-0.1,0.4-0.5,0.5-0.9,0.4H19c-0.4,0-0.7,0-0.9-0.4h-0.2
			c0,0.4,0,0.8-0.1,1.2c0,0.4-0.1,0.8-0.2,1.2H18c0.2-1,0.3-1.4,1.4-1.4V80c-1.1,0-1.1,0.2-1.3,1.3v0.1h-0.6v-0.1
			c0.1-0.4,0.1-0.8,0.2-1.3c0.1-0.4,0.1-0.8,0.1-1.2v-0.1h0.5l0,0c0.1,0.4,0.4,0.4,0.8,0.4h7.8c0.4,0,0.7,0,0.7-0.4v-0.1h0.1
			l0.4,0.1v0.1c-0.1,0.4-0.1,0.8-0.2,1.2s0,0.8,0,1.2l0,0l0,0l-0.5,0.2v-0.1c0-0.6-0.1-1.4-1-1.4h-2.5v8c0,1.1,0.5,1.2,1.2,1.2h0.4
			L25.3,89.7L25.3,89.7z"/>
		<path class="st0" d="M28.4,89.2h0.2c0.5,0,1.1-0.1,1.1-0.8v-7.8c0-0.8-0.6-0.8-1.1-0.8h-0.2v-0.4c0.9,0,2.5,0.1,3.7,0.1
			s2.8-0.1,3.8-0.1c0,0.6,0,1.6,0,2.3l-0.5,0.1c-0.1-1-0.2-1.7-1.8-1.7h-2v3.9h1.8c0.9,0,1.1-0.5,1.2-1.3H35c0,0.6,0,1.2,0,1.7
			s0,1.1,0,1.7L34.6,86c-0.1-0.9-0.1-1.5-1.2-1.5h-1.8V88c0,1,0.9,1,1.8,1c1.8,0,2.6-0.1,3-1.8l0.4,0.1c-0.2,0.8-0.4,1.6-0.5,2.4
			c-1,0-2.7-0.1-4-0.1s-3.1,0.1-4,0.1L28.4,89.2z"/>
		<path class="st0" d="M36.3,89.6c0.1-0.8,0.3-1.5,0.5-2.3l-0.3-0.1c-0.4,1.7-1.3,1.8-3.1,1.8c-0.9,0-1.9,0-1.9-1v-3.5h1.9
			c1,0,1.2,0.6,1.2,1.5l0.3-0.1c0-0.6,0-1.1,0-1.7s0-1.1,0-1.7h-0.3c-0.1,0.8-0.3,1.3-1.2,1.3h-1.8v-4h2.1c1.5,0,1.8,0.8,1.9,1.7
			l0.3-0.1c0-0.4,0-1,0-1.5c0-0.2,0-0.5,0-0.7c-1,0-2.5,0.1-3.8,0.1s-2.7-0.1-3.6-0.1v0.3h0.1c0.5,0,1.2,0.1,1.2,0.9v7.8
			c0,0.8-0.6,0.9-1.2,0.9h-0.1v0.3c0.9,0,2.6-0.1,3.9-0.1C33.7,89.5,35.4,89.6,36.3,89.6 M36.5,89.7c-1,0-2.7-0.1-4-0.1
			s-3.1,0.1-4,0.1h-0.1v-0.6h0.3c0.5,0,1-0.1,1-0.8v-7.8c0-0.7-0.5-0.8-1-0.8h-0.3v-0.6h0.1c0.9,0,2.5,0.1,3.7,0.1s2.8-0.1,3.8-0.1
			h0v0.1c0,0.2,0,0.5,0,0.8c0,0.5,0,1.1,0,1.5v0.1l0,0l-0.5,0.1v-0.1c-0.1-1-0.2-1.7-1.8-1.7h-2v3.8h1.7c0.9,0,1-0.4,1.1-1.2v-0.1
			h0.6v0.1c0,0.6,0,1.2,0,1.7s0,1.1,0,1.7V86h0l-0.5,0.1V86c-0.1-0.9-0.1-1.4-1.1-1.4h-1.7V88c0,0.9,0.8,0.9,1.8,0.9
			c1.8,0,2.5-0.1,3-1.8v-0.1h0.1l0.5,0.1v0.1C36.8,88.1,36.6,88.8,36.5,89.7L36.5,89.7L36.5,89.7z"/>
		<path class="st0" d="M40.8,84.3h0.7c1.5,0,2.3-0.6,2.3-2.3c0.1-1.1-0.7-2.1-1.8-2.2c-0.1,0-0.2,0-0.4,0c-0.3,0-0.6,0-0.8,0.1V84.3
			z M38.9,80.8c0-1.1-0.6-1.1-1.1-1.1h-0.3v-0.4c0.5,0,1.4,0.1,2.3,0.1s1.6-0.1,2.4-0.1c1.9,0,3.5,0.5,3.5,2.6
			c0,1.2-0.9,2.3-2.1,2.6l2.5,3.8c0.3,0.5,0.8,0.9,1.5,0.9v0.4c-0.5,0-1-0.1-1.5-0.1s-0.9,0.1-1.4,0.1c-1.1-1.5-2.2-3.2-3.1-4.8h-1
			V88c0,1.2,0.5,1.2,1.2,1.2h0.3v0.4c-0.8,0-1.7-0.1-2.6-0.1s-1.4,0.1-2.2,0.1v-0.4h0.3c0.5,0,1.1-0.2,1.1-0.8L38.9,80.8z"/>
		<path class="st0" d="M41.6,84.2c1.5,0,2.2-0.5,2.2-2.3c0.1-1.1-0.8-2.1-1.9-2.1c-0.1,0-0.2,0-0.2,0c-0.3,0-0.5,0-0.8,0.1v4.3H41.6
			z M40.8,84.3L40.8,84.3l-0.1-4.6h0.1c0.3,0,0.6-0.1,0.9-0.1c1.2-0.1,2.2,0.8,2.2,2c0,0.1,0,0.2,0,0.3c0,1.8-0.9,2.4-2.4,2.4
			L40.8,84.3z M40.8,84.7h1l0,0c0.9,1.7,1.9,3.3,3,4.8c0.5,0,0.9-0.1,1.4-0.1s0.9,0.1,1.4,0.1v-0.3c-0.6,0-1.1-0.4-1.4-0.9l-2.6-3.9
			h0.1c1.2-0.3,2-1.4,2-2.6c0-2.1-1.6-2.6-3.5-2.6c-0.8,0-1.5,0.1-2.4,0.1s-1.8-0.1-2.2-0.1v0.3h0.2c0.5,0,1.1,0.1,1.1,1.2v7.6
			c0,0.6-0.6,0.9-1.1,0.9h-0.2v0.3c0.7,0,1.4-0.1,2.1-0.1s1.7,0.1,2.5,0.1v-0.3H42c-0.7,0-1.3-0.1-1.3-1.3v-3.3L40.8,84.7z
			 M47.8,89.7c-0.5,0-1-0.1-1.5-0.1s-0.9,0.1-1.5,0c-1.1-1.5-2.2-3.1-3.1-4.8h-0.9V88c0,1.1,0.5,1.1,1.2,1.1h0.3v0.6h-0.1
			c-0.8,0-1.7-0.1-2.6-0.1s-1.4,0.1-2.2,0.1h-0.1v-0.6h0.3c0.5,0,1-0.2,1-0.7v-7.6c0-1.1-0.5-1.1-1-1.1h-0.3v-0.6h0.1
			c0.5,0,1.4,0.1,2.3,0.1s1.6-0.1,2.4-0.1c1.9,0,3.6,0.5,3.6,2.7c0,1.2-0.8,2.3-2,2.7l2.5,3.8c0.3,0.5,0.8,0.9,1.4,0.9h0L47.8,89.7
			L47.8,89.7z"/>
		<path class="st0" d="M57.9,86.7L57.9,86.7v-5.6c0.1-0.7-0.4-1.3-1-1.4c-0.1,0-0.2,0-0.2,0h-0.3v-0.4c0.7,0,1.4,0.1,2.1,0.1
			s1.2-0.1,1.8-0.1v0.4H60c-0.6,0-1.3,0.1-1.3,1.9v6.8c0,0.5,0,1,0.1,1.5h-0.6l-7.7-8.5v6.1c0,1.3,0.2,1.7,1.4,1.7h0.2v0.4
			c-0.6,0-1.3-0.1-1.9-0.1s-1.4,0.1-2,0.1v-0.4h0.2c1,0,1.3-0.7,1.3-1.9V81c0-0.7-0.6-1.3-1.3-1.3c0,0,0,0,0,0h-0.2v-0.4
			c0.6,0,1.2,0.1,1.7,0.1s0.9-0.1,1.3-0.1L57.9,86.7z"/>
		<path class="st0" d="M57.9,86.7L57.9,86.7z M57.9,86.7L57.9,86.7z M58.2,89.8h0.5c-0.1-0.5-0.1-1-0.1-1.4v-6.8c0-1.8,0.8-2,1.4-2
			h0.2v-0.3c-0.6,0-1.2,0.1-1.8,0.1s-1.3-0.1-2-0.1v0.3h0.3c0.7-0.1,1.3,0.5,1.4,1.2c0,0.1,0,0.2,0,0.3v5.6l0,0l0,0l-6.6-7.5
			c-0.4,0-0.9,0.1-1.3,0.1s-1.1-0.1-1.7-0.1v0.3h0.1c0.8,0,1.4,0.7,1.3,1.5v6.3c0,1.2-0.3,2-1.4,2h-0.1v0.3c0.6,0,1.3-0.1,2-0.1
			s1.2,0.1,1.9,0.1v-0.3H52c-1.2,0-1.5-0.5-1.5-1.8v-6.4L58.2,89.8z M58.7,89.9h-0.6l-7.6-8.4v6c0,1.3,0.2,1.7,1.3,1.7h0.3v0.6h-0.1
			c-0.6,0-1.3-0.1-1.9-0.1s-1.3,0.1-2,0.1h-0.1v-0.6h0.3c1,0,1.3-0.6,1.3-1.8V81c0-0.7-0.6-1.3-1.3-1.3c0,0,0,0,0,0h-0.3v-0.6h0.1
			c0.6,0,1.2,0.1,1.7,0.1s0.9-0.1,1.4,0l6.5,7.4v-5.5c0-1.2-0.8-1.3-1.2-1.3h-0.4v-0.6h0.1c0.7,0,1.4,0.1,2.1,0.1s1.2-0.1,1.8-0.1
			h0.1v0.6H60c-0.6,0-1.2,0.1-1.3,1.8v6.8c0,0.5,0,1,0.1,1.5v0.1L58.7,89.9z"/>
		<path class="st0" d="M64.8,80.9L64.8,80.9l-1.4,4.2h2.8L64.8,80.9z M62.6,87.5c-0.1,0.4-0.3,0.8-0.3,1.2c0,0.4,0.6,0.5,1.1,0.5
			h0.2v0.4c-0.6,0-1.2-0.1-1.8-0.1s-1.1,0-1.6,0.1v-0.4h0.1c0.6,0,1.1-0.4,1.3-1l2.4-6.8c0.2-0.6,0.4-1.2,0.5-1.8
			c0.5-0.2,0.9-0.4,1.4-0.6c0,0,0.1,0,0.1,0c0,0,0.1,0,0.1,0l0.1,0.4l2.7,7.8c0.2,0.5,0.4,1.1,0.6,1.5c0.2,0.4,0.6,0.6,1,0.6h0.1
			v0.4c-0.7,0-1.3-0.1-2.1-0.1s-1.5,0-2.2,0.1v-0.4h0.2c0.3,0,0.9-0.1,0.9-0.4c-0.1-0.4-0.2-0.7-0.3-1.1l-0.6-1.7h-3.4L62.6,87.5z"
			/>
		<path class="st0" d="M64.7,80.9L64.7,80.9z M63.5,85h2.6l-1.3-4L63.5,85z M63.3,85.1l1.4-4.3h0.1v0.1l0,0v-0.1l0,0l1.4,4.3H63.3z
			 M66.3,89.5c0.7,0,1.5-0.1,2.2-0.1s1.3,0,2,0.1v-0.3l0,0c-0.4,0-0.8-0.2-1-0.6c-0.2-0.4-0.4-1-0.6-1.5l-2.7-7.8L66,78.9l0,0h-0.1
			c-0.4,0.3-0.9,0.5-1.3,0.6c-0.1,0.6-0.3,1.3-0.6,1.9l-2.4,6.8c-0.2,0.6-0.7,1-1.4,1l0,0v0.3c0.5,0,1-0.1,1.5-0.1s1.2,0,1.7,0.1
			v-0.3h-0.1c-0.5,0-1.2-0.1-1.2-0.6c0.1-0.4,0.2-0.8,0.3-1.2h0.1h-0.1l0.4-1.6h3.5l0.6,1.8c0.1,0.3,0.2,0.7,0.3,1.1
			c0,0.5-0.7,0.5-1,0.5h-0.1L66.3,89.5z M70.5,89.6c-0.7,0-1.3-0.1-2.1-0.1s-1.5,0-2.2,0.1h0v-0.6h0.2c0.3,0,0.9-0.1,0.9-0.4
			c-0.1-0.3-0.2-0.7-0.3-1L66.4,86h-3.3l-0.5,1.5c-0.1,0.4-0.3,0.8-0.3,1.1c0,0.4,0.6,0.5,1.1,0.5h0.2v0.6h-0.1
			c-0.6,0-1.2-0.1-1.8-0.1s-1.1,0-1.6,0.1h-0.1v-0.6h0.2c0.6,0,1.1-0.4,1.2-0.9l2.4-6.8c0.2-0.6,0.4-1.2,0.6-1.9
			c0.5-0.2,0.9-0.4,1.3-0.6c0,0,0.1,0,0.1,0c0.1,0,0.1,0,0.2,0.1l0.1,0.4L69,87c0.2,0.5,0.3,1.1,0.6,1.5c0.1,0.4,0.5,0.6,0.9,0.6
			h0.2v0.6L70.5,89.6z"/>
		<path class="st0" d="M71.2,80c-1.1,0-1.2,0.3-1.4,1.4h-0.4c0.1-0.4,0.1-0.8,0.2-1.3c0.1-0.4,0.1-0.8,0.1-1.3H70
			c0.1,0.4,0.5,0.4,0.9,0.4h7.7c0.4,0,0.8,0,0.8-0.5l0.4,0.1c-0.1,0.4-0.1,0.8-0.2,1.2s0,0.8,0,1.2l-0.4,0.2c0-0.6-0.1-1.4-1.1-1.4
			h-2.5v7.9c0,1.2,0.5,1.3,1.2,1.3h0.3v0.4c-0.6,0-1.6-0.1-2.4-0.1s-1.9,0.1-2.5,0.1v-0.4h0.3c0.8,0,1.2-0.1,1.2-1.2V80H71.2z"/>
		<path class="st0" d="M77.1,89.7c-0.6,0-1.6-0.1-2.4-0.1s-1.9,0.1-2.5,0.1h-0.1v-0.6h0.3c0.8,0,1.2,0,1.2-1.2V80h-2.4v-0.1h2.5v8
			c0,1.2-0.5,1.3-1.3,1.3h-0.2v0.3c0.6,0,1.6-0.1,2.5-0.1s1.8,0.1,2.4,0.1v-0.3h-0.2c-0.7,0-1.3-0.2-1.3-1.3v-8H78
			c1,0,1.1,0.8,1.2,1.4l0.3-0.1c0-0.4,0-0.8,0-1.2s0.1-0.8,0.2-1.2h-0.2c-0.1,0.4-0.5,0.5-0.9,0.4h-7.7c-0.3,0-0.7,0-0.9-0.4h-0.2
			c0,0.4,0,0.8-0.1,1.2c0,0.4-0.1,0.8-0.2,1.2h0.3c0.2-1,0.3-1.4,1.4-1.4V80c-1.1,0-1.1,0.2-1.3,1.3v0.1h-0.6v-0.1
			c0.1-0.4,0.1-0.8,0.2-1.3c0.1-0.4,0.1-0.8,0.1-1.3v-0.1h0.5l0,0c0.1,0.4,0.4,0.4,0.8,0.4h7.8c0.4,0,0.7,0,0.7-0.4v-0.1h0.1
			l0.4,0.1v0.1c-0.1,0.4-0.1,0.8-0.2,1.2s0,0.8,0,1.2l0,0l0,0l-0.5,0.2v-0.1C79,80.8,79,80,78,80h-2.4v7.9c0,1.1,0.5,1.2,1.2,1.2
			h0.3L77.1,89.7L77.1,89.7z"/>
		<path class="st0" d="M80.3,89.2h0.2c0.5,0,1.1-0.1,1.1-0.8v-7.8c0-0.8-0.6-0.8-1.1-0.8h-0.2v-0.4c0.6,0,1.5,0.1,2.2,0.1
			s1.6-0.1,2.3-0.1v0.4h-0.2c-0.5,0-1.1,0.1-1.1,0.8v7.8c0,0.8,0.6,0.8,1.1,0.8h0.2v0.4c-0.7,0-1.6-0.1-2.4-0.1s-1.6,0.1-2.2,0.1
			L80.3,89.2z"/>
		<path class="st0" d="M84.8,89.6v-0.3h-0.1c-0.5,0-1.2-0.1-1.2-0.9v-7.8c0-0.8,0.6-0.9,1.2-0.9h0.1v-0.3c-0.7,0-1.6,0.1-2.3,0.1
			s-1.6-0.1-2.1-0.1v0.3h0.1c0.5,0,1.2,0.1,1.2,0.9v7.8c0,0.8-0.6,0.9-1.2,0.9h-0.1v0.3c0.6,0,1.4-0.1,2.1-0.1S84.1,89.6,84.8,89.6
			 M84.9,89.7c-0.7,0-1.6-0.1-2.4-0.1s-1.6,0.1-2.2,0.1h-0.1v-0.6h0.3c0.5,0,1-0.1,1-0.8v-7.8c0-0.7-0.5-0.8-1-0.8h-0.3v-0.6h0.1
			c0.6,0,1.5,0.1,2.2,0.1s1.6-0.1,2.3-0.1h0.1v0.6h-0.3c-0.6,0-1,0.1-1,0.8v7.8c0,0.7,0.5,0.8,1,0.8h0.3L84.9,89.7L84.9,89.7z"/>
		<path class="st0" d="M91,89.2c2.9,0,3.4-2.6,3.4-4.7s-1.2-4.8-3.7-4.8S87.4,82,87.4,84C87.4,86.7,88.6,89.2,91,89.2 M90.8,79
			c3.2,0,5.7,2,5.7,5.1c0.1,3-2.2,5.6-5.2,5.7c-0.1,0-0.3,0-0.4,0c-2.9,0.2-5.4-2-5.6-5c0-0.1,0-0.3,0-0.4c0-3,2.3-5.5,5.3-5.5
			C90.7,79,90.7,79,90.8,79"/>
		<path class="st0" d="M87.3,84c0-2,0.8-4.4,3.4-4.4s3.7,2.7,3.7,4.9S94,89.3,91,89.3v-0.1c2.8,0,3.3-2.5,3.3-4.7s-1.2-4.8-3.6-4.8
			S87.5,82,87.4,84c0,2.7,1.2,5.2,3.6,5.2v0.1C88.5,89.3,87.3,86.7,87.3,84 M85.2,84.5c0-3,2.4-5.5,5.4-5.6c0,0,0.1,0,0.1,0v0.1
			c-3,0-5.4,2.3-5.4,5.3c0,0.1,0,0.1,0,0.2c0,2.9,2.3,5.2,5.1,5.3c0.1,0,0.3,0,0.4,0c3,0.1,5.5-2.2,5.6-5.2c0-0.1,0-0.3,0-0.4
			c0-3.1-2.5-5.1-5.7-5.1v-0.1c3.2,0,5.8,2,5.8,5.2c0.1,3.1-2.2,5.6-5.3,5.8c-0.1,0-0.3,0-0.4,0c-2.9,0.2-5.5-2.1-5.6-5
			C85.2,84.8,85.2,84.6,85.2,84.5"/>
		<path class="st0" d="M106.6,86.7L106.6,86.7v-5.6c0.1-0.7-0.4-1.3-1-1.4c-0.1,0-0.2,0-0.3,0H105v-0.4c0.7,0,1.4,0.1,2.1,0.1
			s1.2-0.1,1.8-0.1v0.4h-0.2c-0.6,0-1.3,0.1-1.3,1.9v6.8c0,0.5,0,1,0.1,1.5h-0.6l-7.7-8.5v6.1c0,1.3,0.2,1.7,1.4,1.7h0.3v0.4
			c-0.6,0-1.3-0.1-1.9-0.1s-1.4,0.1-2,0.1v-0.4h0.2c1,0,1.3-0.7,1.3-1.9V81c0-0.7-0.6-1.3-1.3-1.3c0,0,0,0,0,0h-0.2v-0.4
			c0.6,0,1.2,0.1,1.7,0.1s0.9-0.1,1.3-0.1L106.6,86.7z"/>
		<path class="st0" d="M106.5,86.7L106.5,86.7z M106.5,86.7L106.5,86.7z M106.8,89.8h0.5c-0.1-0.5-0.1-1-0.1-1.4v-6.8
			c0-1.8,0.8-2,1.4-2h0.2v-0.3c-0.6,0-1.2,0.1-1.8,0.1s-1.3-0.1-2-0.1v0.3h0.3c0.7,0,1.3,0.5,1.4,1.2c0,0.1,0,0.1,0,0.2v5.6l0,0l0,0
			l-6.6-7.5c-0.4,0-0.9,0.1-1.3,0.1s-1.1-0.1-1.7-0.1v0.3h0.1c0.8,0,1.4,0.7,1.3,1.5c0,0,0,0,0,0.1v6.3c0,1.2-0.3,2-1.4,2h-0.2v0.3
			c0.7,0,1.3-0.1,2-0.1s1.2,0.1,1.9,0.1v-0.3h-0.2c-1.2,0-1.5-0.5-1.5-1.8v-6.4L106.8,89.8z M107.4,89.9h-0.6l-7.6-8.4v6
			c0,1.3,0.2,1.7,1.3,1.7h0.3v0.6h-0.1c-0.7,0-1.3-0.1-1.9-0.1s-1.3,0.1-2,0.1h-0.1v-0.6h0.3c1,0,1.3-0.6,1.3-1.8V81
			c0-0.7-0.6-1.3-1.3-1.3c0,0,0,0,0,0h-0.3v-0.6h0.1c0.6,0,1.2,0.1,1.7,0.1s0.9-0.1,1.4,0l6.6,7.4v-5.5c0-1.2-0.8-1.3-1.2-1.3h-0.4
			v-0.6h0.1c0.7,0,1.4,0.1,2.1,0.1s1.2-0.1,1.8-0.1h0.1v0.6h-0.3c-0.6,0-1.2,0.1-1.3,1.8v6.8c0,0.5,0,1,0.1,1.5v0.1L107.4,89.9z"/>
		<path class="st0" d="M113.4,80.9L113.4,80.9l-1.4,4.2h2.8L113.4,80.9z M111.3,87.5c-0.1,0.4-0.3,0.8-0.3,1.2
			c0,0.4,0.6,0.5,1.1,0.5h0.2v0.4c-0.6,0-1.2-0.1-1.8-0.1s-1.1,0-1.6,0.1v-0.4h0.1c0.6,0,1.1-0.4,1.3-1l2.4-6.8
			c0.2-0.6,0.4-1.2,0.6-1.8c0.5-0.2,0.9-0.4,1.4-0.6c0,0,0.1,0,0.1,0c0,0,0.1,0,0.1,0l0.1,0.4l2.7,7.8c0.2,0.5,0.4,1.1,0.6,1.5
			c0.2,0.4,0.6,0.7,1,0.6h0.1v0.4c-0.7,0-1.3-0.1-2.1-0.1s-1.5,0-2.2,0.1v-0.4h0.2c0.3,0,0.9-0.1,0.9-0.4c-0.1-0.4-0.2-0.7-0.3-1.1
			l-0.6-1.7h-3.4L111.3,87.5z"/>
		<path class="st0" d="M113.4,80.9L113.4,80.9z M112.1,85h2.6l-1.3-4L112.1,85z M111.9,85.1l1.4-4.3h0.1v0.1l0,0v-0.1l0,0l1.4,4.3
			H111.9z M114.9,89.5c0.7,0,1.5-0.1,2.2-0.1s1.3,0,2,0.1v-0.3l0,0c-0.4,0-0.8-0.2-1-0.6c-0.2-0.4-0.4-1-0.6-1.5l-2.7-7.8l-0.1-0.4
			l0,0l0,0h-0.1c-0.4,0.3-0.9,0.5-1.3,0.6c-0.1,0.6-0.3,1.3-0.6,1.9l-2.4,6.8c-0.2,0.6-0.7,1-1.4,1l0,0v0.3c0.5,0,1-0.1,1.5-0.1
			s1.2,0,1.7,0.1v-0.3h-0.1c-0.5,0-1.2-0.1-1.2-0.6c0.1-0.4,0.2-0.8,0.3-1.2h0.1h-0.1l0.5-1.6h3.5l0.6,1.8c0.1,0.3,0.2,0.7,0.3,1.1
			c0,0.5-0.7,0.5-1,0.5H115L114.9,89.5z M119.2,89.6c-0.7,0-1.3-0.1-2.1-0.1s-1.5,0-2.2,0.1h-0.1v-0.6h0.2c0.3,0,0.9-0.1,0.9-0.4
			c-0.1-0.4-0.2-0.7-0.3-1.1l-0.5-1.6h-3.3l-0.5,1.5c-0.1,0.4-0.2,0.8-0.3,1.1c0,0.4,0.6,0.5,1.1,0.5h0.2v0.6h-0.1
			c-0.6,0-1.2-0.1-1.8-0.1s-1.1,0-1.6,0.1h-0.1v-0.6h0.2c0.6,0,1.1-0.4,1.2-0.9l2.4-6.8c0.2-0.6,0.4-1.2,0.6-1.9
			c0.5-0.2,0.9-0.4,1.4-0.6c0,0,0.1,0,0.1,0c0.1,0,0.1,0,0.2,0.1c0,0.1,0.1,0.2,0.1,0.4l2.7,7.8c0.2,0.5,0.4,1.1,0.6,1.5
			c0.1,0.4,0.5,0.6,0.9,0.6h0.2v0.6L119.2,89.6z"/>
		<path class="st0" d="M123,88.2c0,0.6,0.4,0.8,0.9,0.8c0.7,0.1,1.3,0.1,2,0c0.6-0.1,1.1-0.4,1.4-0.8c0.2-0.3,0.4-0.7,0.5-1.1h0.4
			c-0.2,0.8-0.4,1.7-0.6,2.5c-1.3,0-2.6-0.1-3.9-0.1s-2.6,0.1-3.9,0.1v-0.4h0.2c0.5,0,1.1-0.1,1.1-1v-7.7c0-0.8-0.6-0.8-1.1-0.8
			h-0.2v-0.4c0.8,0,1.6,0.1,2.3,0.1s1.5-0.1,2.3-0.1v0.4H124c-0.6,0-1,0-1,0.8V88.2z"/>
		<path class="st0" d="M127.6,89.6c0.2-0.8,0.4-1.6,0.5-2.4h-0.3c-0.1,0.4-0.3,0.7-0.5,1c-0.4,0.5-0.9,0.8-1.5,0.8
			c-0.4,0-0.8,0.1-1.1,0.1s-0.6,0-0.8,0c-0.5-0.1-1-0.3-1-0.9v-7.7c0-0.8,0.5-0.9,1.1-0.9h0.3v-0.3c-0.7,0-1.5,0.1-2.2,0.1
			s-1.5-0.1-2.3-0.1v0.3h0.1c0.5,0,1.2,0.1,1.2,0.9v7.7c0,1-0.7,1.1-1.2,1.1h-0.1v0.3c1.3,0,2.6-0.1,3.9-0.1S126.2,89.6,127.6,89.6
			 M127.6,89.7c-1.3,0-2.6-0.1-3.9-0.1s-2.6,0.1-3.9,0.1h-0.1v-0.6h0.3c0.5,0,1.1,0,1.1-0.9v-7.7c0-0.7-0.5-0.8-1.1-0.8h-0.3v-0.6
			h0.1c0.8,0,1.6,0.1,2.4,0.1s1.5-0.1,2.3-0.1h0.1v0.6H124c-0.6,0-0.9,0-1,0.7v7.7c0,0.6,0.4,0.7,0.8,0.8h0.8c0.4,0,0.8,0,1.1-0.1
			c0.5-0.1,1-0.3,1.4-0.8c0.2-0.3,0.4-0.7,0.4-1.1l0,0h0.6v0.1C128,88,127.8,88.8,127.6,89.7L127.6,89.7L127.6,89.7z"/>
		<path class="st0" d="M127.7,80.4h0.2c0.2,0,0.3-0.2,0.3-0.4s-0.1-0.3-0.3-0.3h-0.2V80.4z M127.2,81.2L127.2,81.2
			c0.2-0.1,0.2-0.1,0.2-0.2v-1.2c0-0.2,0-0.2-0.2-0.2v-0.1h0.8c0.3,0,0.5,0.1,0.5,0.4c0,0.2-0.2,0.4-0.4,0.5l0.3,0.4
			c0.1,0.1,0.2,0.3,0.3,0.4l0,0h-0.3c-0.1,0-0.3-0.3-0.6-0.7h-0.2V81c0,0.1,0,0.1,0.2,0.1v0.1L127.2,81.2z M128,81.7
			c0.7,0,1.3-0.5,1.3-1.2s-0.5-1.3-1.2-1.3c-0.7,0-1.3,0.5-1.3,1.2c0,0,0,0,0,0C126.7,81.1,127.3,81.6,128,81.7
			C128,81.6,128,81.7,128,81.7 M128,78.8c0.9,0,1.6,0.7,1.6,1.6s-0.7,1.6-1.6,1.6c-0.9,0-1.6-0.7-1.6-1.6l0,0
			C126.4,79.5,127.1,78.8,128,78.8C128,78.8,128,78.8,128,78.8"/>
		<g>
			<path class="st1" d="M60.2,2.2C47,2.2,36.3,12.9,36.3,26.1S47,50,60.2,50c13.2,0,23.9-10.7,23.9-23.9S73.4,2.2,60.2,2.2z
				 M54.8,40.3c-4-1.5-7.2-4.7-8.7-8.7c-3-7.8,0.9-16.6,8.7-19.6V40.3z M65.7,40.3V11.9c5.9,2.3,9.7,7.9,9.7,14.2
				C75.4,32.4,71.5,38,65.7,40.3z"/>
			<path class="st2" d="M46,31.5c1.5,4,4.7,7.2,8.7,8.7V11.9C47,14.9,43.1,23.7,46,31.5z"/>
			<path class="st2" d="M66.9,0h-6.8C45.7,0,33.8,10.8,33.8,26.4c0.2,14.4,12,26,26.4,25.9l6.8,0c14.3,0,27.3-11.7,27.3-25.9
				C94.3,10.8,81.2,0,66.9,0z M60.2,50C47,50,36.3,39.3,36.3,26.1S47,2.2,60.2,2.2c13.2,0,23.9,10.7,23.9,23.9S73.4,50,60.2,50z"/>
			<path class="st2" d="M65.7,11.9v28.3c5.9-2.3,9.7-7.9,9.7-14.2C75.4,19.8,71.5,14.2,65.7,11.9z"/>
		</g>
	</g>
</g>
</svg>
