<?xml version="1.0" encoding="utf-8"?>
<!-- Generator: Adobe Illustrator 21.0.2, SVG Export Plug-In . SVG Version: 6.00 Build 0)  -->
<svg version="1.1" id="Mastercard" xmlns="http://www.w3.org/2000/svg" xmlns:xlink="http://www.w3.org/1999/xlink" x="0px" y="0px"
	 viewBox="0 0 252.9 196.5" style="enable-background:new 0 0 252.9 196.5;" xml:space="preserve">
<style type="text/css">
	#Mastercard .st0{fill:#1D1D1B;}
	#Mastercard .st1{fill:#E20D17;}
	#Mastercard .st2{fill:#EA610A;}
	#Mastercard .st3{fill:#F59E00;}
</style>
<title>mastercard</title>
<g id="Layer_2">
	<g id="Layer_1-2">
		<path class="st0" d="M43.3,176.4c-0.7-0.7-1.6-1.3-2.6-1.7c-1-0.4-2.2-0.6-3.3-0.6c-0.7,0-1.3,0.1-2,0.2c-0.7,0.1-1.4,0.3-2,0.6
			c-0.6,0.3-1.3,0.7-1.8,1.1c-0.6,0.5-1.1,1.1-1.5,1.8c-0.7-1.1-1.7-2.1-2.8-2.7c-1.3-0.7-2.7-1-4.1-1c-0.5,0-1.1,0-1.6,0.1
			c-0.6,0.1-1.1,0.3-1.6,0.5c-0.6,0.2-1.1,0.6-1.6,0.9c-0.5,0.4-1,0.9-1.4,1.5v-2.5h-4.4v20.7h4.4v-11.5c0-0.8,0.1-1.6,0.4-2.3
			c0.3-0.6,0.6-1.2,1.1-1.7c0.5-0.4,1-0.8,1.6-1c0.6-0.2,1.3-0.4,2-0.4c1.3-0.1,2.6,0.4,3.4,1.4c0.9,1.1,1.3,2.6,1.2,4v11.5h4.4
			v-11.5c0-0.8,0.1-1.6,0.4-2.3c0.3-0.6,0.6-1.2,1.1-1.7c0.5-0.4,1-0.8,1.6-1c0.6-0.2,1.3-0.4,2-0.4c1.3-0.1,2.6,0.4,3.4,1.4
			c0.9,1.1,1.3,2.6,1.2,4v11.5h4.4v-13c0-1.2-0.2-2.3-0.6-3.4C44.6,178,44.1,177.1,43.3,176.4"/>
		<path class="st0" d="M66.5,177.2c-0.7-0.9-1.6-1.6-2.7-2.2c-1.2-0.6-2.5-0.9-3.8-0.8c-2.8,0-5.4,1.1-7.3,3.1c-1,1-1.7,2.2-2.2,3.4
			c-1.1,2.8-1.1,5.9,0,8.8c0.5,1.3,1.2,2.5,2.2,3.4c1.9,2,4.6,3.1,7.4,3c1.3,0,2.6-0.2,3.8-0.8c1-0.5,2-1.3,2.7-2.2v2.5H71v-20.7
			h-4.5V177.2z M66.3,187.6c-0.3,0.8-0.7,1.5-1.3,2.1c-0.6,0.6-1.2,1.1-2,1.4c-1.7,0.7-3.5,0.7-5.2,0c-0.8-0.3-1.4-0.8-2-1.4
			c-0.5-0.6-1-1.3-1.2-2.1c-0.6-1.7-0.6-3.5,0-5.1c0.3-0.8,0.7-1.5,1.2-2.1c0.6-0.6,1.2-1.1,2-1.4c1.7-0.7,3.5-0.7,5.2,0
			c0.8,0.3,1.4,0.8,2,1.4c0.6,0.6,1,1.3,1.3,2.1C66.9,184.1,66.9,186,66.3,187.6"/>
		<path class="st0" d="M91.7,185c-1.6-1.1-3.4-1.8-5.3-2l-2.1-0.3c-0.5-0.1-0.9-0.1-1.3-0.2c-0.4-0.1-0.7-0.2-1.1-0.4
			c-0.3-0.1-0.5-0.3-0.7-0.6c-0.2-0.3-0.3-0.6-0.3-0.9c0-0.7,0.4-1.4,1-1.8c0.9-0.5,1.9-0.7,2.9-0.7c0.6,0,1.3,0.1,1.9,0.2
			c0.6,0.1,1.2,0.3,1.8,0.4c0.5,0.2,1,0.3,1.5,0.6c0.4,0.2,0.8,0.4,1.2,0.6l1.9-3.5c-1.2-0.7-2.4-1.3-3.8-1.6
			c-1.5-0.4-3-0.6-4.6-0.6c-1.2,0-2.4,0.1-3.6,0.5c-1,0.3-1.9,0.7-2.7,1.3c-0.7,0.6-1.3,1.3-1.7,2.1c-0.4,0.9-0.6,1.8-0.6,2.8
			c0,1.5,0.6,3,1.8,4c1.5,1.2,3.3,1.8,5.2,2l2.2,0.3c1,0.1,1.9,0.4,2.7,0.8c0.5,0.3,0.9,0.9,0.9,1.5c0,0.8-0.5,1.5-1.2,1.9
			c-1.1,0.5-2.3,0.8-3.5,0.7c-0.8,0-1.5,0-2.3-0.2c-0.6-0.1-1.2-0.3-1.8-0.5c-0.5-0.2-1-0.4-1.5-0.7c-0.4-0.2-0.8-0.5-1.2-0.8
			l-2.1,3.4c0.7,0.5,1.5,1,2.3,1.4c0.8,0.3,1.6,0.6,2.4,0.8c0.7,0.2,1.5,0.3,2.2,0.4c0.7,0.1,1.3,0.1,1.9,0.1c1.4,0,2.7-0.1,4-0.5
			c1.1-0.3,2.1-0.7,3-1.4c0.7-0.5,1.3-1.3,1.8-2.1c0.4-0.8,0.6-1.8,0.6-2.7C93.7,187.5,93,186,91.7,185"/>
		<path class="st0" d="M134,177.1c-0.9-1-1.9-1.7-3.1-2.2c-1.3-0.5-2.6-0.8-4-0.8c-1.4,0-2.9,0.3-4.2,0.8c-1.2,0.5-2.3,1.3-3.2,2.2
			c-0.9,1-1.7,2.2-2.1,3.4c-0.5,1.4-0.8,2.9-0.8,4.4c0,1.5,0.2,3,0.8,4.5c0.5,1.3,1.2,2.4,2.2,3.4c1,1,2.1,1.7,3.3,2.2
			c1.4,0.5,2.8,0.8,4.3,0.8c1.5,0,3-0.2,4.5-0.6c1.5-0.5,2.8-1.2,4-2.3l-2.2-3.2c-0.9,0.7-1.8,1.2-2.9,1.6c-1,0.4-2.1,0.6-3.1,0.6
			c-0.7,0-1.4-0.1-2.1-0.3c-0.7-0.2-1.3-0.5-1.8-0.9c-0.6-0.4-1-1-1.4-1.6c-0.4-0.7-0.7-1.6-0.8-2.4h15.3c0-0.3,0.1-0.5,0.1-0.8
			s0-0.6,0-0.9c0-1.5-0.2-3-0.7-4.4C135.5,179.3,134.8,178.1,134,177.1 M121.3,183.2c0.1-0.7,0.3-1.4,0.6-2.1
			c0.3-0.6,0.6-1.2,1.1-1.6c0.5-0.4,1-0.8,1.6-1c0.7-0.3,1.4-0.4,2.2-0.4c1.3-0.1,2.6,0.4,3.5,1.3c1,1,1.6,2.4,1.7,3.8L121.3,183.2z
			"/>
		<path class="st0" d="M194,177.2c-0.7-0.9-1.6-1.7-2.7-2.2c-1.2-0.6-2.5-0.9-3.8-0.8c-2.8,0-5.4,1.1-7.3,3.1c-1,1-1.7,2.2-2.2,3.4
			c-1.1,2.8-1.1,5.9,0,8.8c0.5,1.3,1.2,2.5,2.2,3.4c1.9,2,4.6,3.1,7.3,3.1c1.3,0,2.6-0.2,3.8-0.8c1-0.5,2-1.3,2.7-2.2v2.5h4.5v-20.7
			H194V177.2z M193.8,187.6c-0.3,0.8-0.7,1.5-1.3,2.1c-0.6,0.6-1.2,1.1-2,1.4c-1.7,0.7-3.5,0.7-5.2,0c-0.8-0.3-1.4-0.8-2-1.4
			c-0.5-0.6-1-1.3-1.2-2.1c-0.6-1.7-0.6-3.5,0-5.1c0.3-0.8,0.7-1.5,1.2-2.1c0.6-0.6,1.2-1.1,2-1.4c1.7-0.7,3.5-0.7,5.2,0
			c0.8,0.3,1.4,0.8,2,1.4c0.6,0.6,1,1.3,1.3,2.1C194.4,184.1,194.4,186,193.8,187.6"/>
		<path class="st0" d="M111.1,191.2c-0.7,0.3-1.4,0.4-2.2,0.4c-0.4,0-0.9-0.1-1.3-0.2c-0.4-0.1-0.7-0.4-1-0.7
			c-0.3-0.3-0.6-0.8-0.7-1.2c-0.2-0.6-0.3-1.2-0.3-1.8v-9h7.2v-4.1h-7.2v-6.3h-4.5v6.3H97v4.1h4.1v9.1c0,2.8,0.7,4.8,2,6.1
			c1.5,1.4,3.4,2.1,5.5,2c1.2,0,2.4-0.2,3.5-0.6c0.7-0.3,1.3-0.6,1.9-0.9l-1.5-3.8C112.1,190.9,111.6,191.1,111.1,191.2"/>
		<path class="st0" d="M151.8,174.1c-1.2,0-2.3,0.2-3.4,0.7c-1.1,0.6-1.9,1.5-2.6,2.6v-2.7h-4.1v20.7h4.1V184c0-0.8,0.1-1.6,0.4-2.4
			c0.2-0.6,0.6-1.2,1-1.8c0.4-0.5,1-0.8,1.6-1.1c0.6-0.3,1.3-0.4,2-0.4c0.6,0,1.2,0.1,1.8,0.2c0.3,0.1,0.6,0.1,0.9,0.2l1.3-4.3
			c-0.4-0.1-0.7-0.2-1.1-0.3C153.1,174.2,152.5,174.1,151.8,174.1"/>
		<path class="st0" d="M214.6,174.1c-1.2,0-2.3,0.2-3.4,0.7c-1.1,0.6-1.9,1.5-2.6,2.6v-2.7h-4.1v20.7h4.1V184c0-0.8,0.1-1.6,0.4-2.4
			c0.2-0.6,0.6-1.2,1-1.8c0.4-0.5,1-0.8,1.6-1.1c0.6-0.3,1.3-0.4,2-0.4c0.6,0,1.2,0.1,1.8,0.2c0.3,0.1,0.6,0.1,0.9,0.2l1.3-4.3
			c-0.4-0.1-0.7-0.2-1.1-0.3C215.8,174.2,215.2,174.1,214.6,174.1"/>
		<path class="st0" d="M235.7,166.3v10.9c-0.7-0.9-1.6-1.6-2.7-2.2c-1.2-0.6-2.5-0.9-3.8-0.8c-2.8,0-5.4,1.1-7.3,3.1
			c-1,1-1.7,2.2-2.2,3.4c-1.1,2.8-1.1,5.9,0,8.8c0.5,1.3,1.2,2.5,2.2,3.4c1.9,2,4.6,3.1,7.3,3.1c1.3,0,2.6-0.2,3.8-0.8
			c1-0.5,2-1.3,2.7-2.2v2.5h4.5v-29.1L235.7,166.3z M235.5,187.6c-0.3,0.8-0.7,1.5-1.3,2.1c-0.6,0.6-1.2,1.1-2,1.4
			c-1.7,0.7-3.5,0.7-5.2,0c-0.8-0.3-1.4-0.8-2-1.4c-0.5-0.6-1-1.3-1.2-2.1c-0.6-1.7-0.6-3.5,0-5.1c0.3-0.8,0.7-1.5,1.2-2.1
			c0.6-0.6,1.2-1.1,2-1.4c1.7-0.7,3.5-0.7,5.2,0c0.8,0.3,1.4,0.8,2,1.4c0.6,0.6,1,1.3,1.3,2.1C236.1,184.1,236.1,186,235.5,187.6"/>
		<path class="st0" d="M162.6,180.2c0.6-0.6,1.3-1.1,2.1-1.4c0.8-0.3,1.7-0.5,2.6-0.5c1,0,1.9,0.2,2.8,0.5c0.8,0.3,1.5,0.7,2.2,1.3
			l2.2-3.6c-0.8-0.7-1.8-1.2-2.8-1.6c-2.9-1.1-6-1.1-8.9,0c-1.3,0.5-2.5,1.3-3.5,2.3c-1,1-1.8,2.2-2.3,3.4c-1.1,2.8-1.1,5.9,0,8.6
			c0.5,1.3,1.3,2.5,2.3,3.4c1,1,2.2,1.8,3.5,2.3c2.9,1.1,6,1.1,8.9,0c1-0.4,1.9-0.9,2.8-1.6l-2.2-3.6c-0.6,0.6-1.4,1-2.2,1.3
			c-0.9,0.3-1.9,0.5-2.8,0.5c-0.9,0-1.8-0.2-2.6-0.5c-0.8-0.3-1.5-0.8-2.1-1.4c-0.6-0.6-1-1.3-1.4-2.1c-0.7-1.7-0.7-3.6,0-5.4
			C161.6,181.6,162.1,180.8,162.6,180.2"/>
		<path class="st0" d="M249.7,192.3c0.3,0,0.6,0.1,0.8,0.2c0.3,0.1,0.5,0.3,0.7,0.4c0.2,0.2,0.4,0.4,0.5,0.7c0.2,0.5,0.2,1.1,0,1.6
			c-0.1,0.3-0.3,0.5-0.5,0.7c-0.2,0.2-0.4,0.4-0.7,0.5c-0.3,0.1-0.6,0.2-0.8,0.2c-0.3,0-0.6-0.1-0.9-0.2c-0.3-0.1-0.5-0.3-0.7-0.5
			c-0.2-0.2-0.4-0.4-0.5-0.7c-0.2-0.5-0.2-1.1,0-1.6c0.1-0.3,0.3-0.5,0.5-0.7C248.5,192.5,249.1,192.3,249.7,192.3 M249.7,196
			c0.2,0,0.4,0,0.6-0.1c0.8-0.3,1.1-1.2,0.8-2c-0.1-0.2-0.2-0.3-0.3-0.5c-0.1-0.1-0.3-0.2-0.5-0.3c-0.2-0.1-0.4-0.1-0.6-0.1
			c-0.2,0-0.4,0-0.6,0.1c-0.2,0.1-0.3,0.2-0.5,0.3c-0.1,0.1-0.2,0.3-0.3,0.5c-0.2,0.4-0.2,0.8,0,1.2c0.1,0.2,0.2,0.3,0.3,0.5
			c0.1,0.1,0.3,0.3,0.5,0.3C249.3,195.9,249.5,196,249.7,196 M249.8,193.5c0.2,0,0.4,0,0.6,0.2c0.1,0.1,0.2,0.3,0.2,0.5
			c0,0.1,0,0.3-0.1,0.4c-0.1,0.1-0.3,0.2-0.4,0.2l0.6,0.7H250l-0.5-0.6h-0.1v0.6h-0.5v-1.9L249.8,193.5z M249.4,194v0.3h0.4
			c0.1,0,0.1,0,0.2,0c0,0,0.1-0.1,0.1-0.1c0-0.1,0-0.1-0.1-0.2c-0.1,0-0.1,0-0.2,0L249.4,194z"/>
		<path class="st1" d="M96.7,78c0-23.8,10.9-46.4,29.6-61.1C92.6-9.9,43.5-4.2,16.8,29.6s-21.1,82.8,12.7,109.6
			c28.4,22.5,68.5,22.5,96.9,0C107.6,124.4,96.7,101.8,96.7,78"/>
		<path class="st2" d="M96.7,78c0,23.8,10.9,46.4,29.6,61.1c33.8-26.7,39.5-75.7,12.8-109.4c-3.8-4.8-8.1-9.1-12.8-12.8
			C107.6,31.6,96.7,54.2,96.7,78"/>
		<path class="st3" d="M247.4,120.1v-2.3h-0.9v-0.6h2.6v0.6h-1v2.3H247.4z M252.2,120.1v-2l-0.7,1.7h-0.7l-0.7-1.7v2h-0.7v-2.9h1
			l0.7,1.9l0.7-1.9h1v2.9H252.2z"/>
		<path class="st3" d="M174.7,0c-17.6,0-34.6,5.9-48.4,16.8c33.8,26.7,39.5,75.7,12.8,109.4c-3.8,4.8-8.1,9.1-12.8,12.8
			c33.7,26.8,82.8,21.1,109.6-12.6c26.8-33.7,21.1-82.8-12.6-109.6C209.5,5.9,192.3,0,174.7,0"/>
	</g>
</g>
</svg>
