<svg version="1.1" id="Tarjeta-Naranja" xmlns="http://www.w3.org/2000/svg" xmlns:xlink="http://www.w3.org/1999/xlink" x="0px"
	 y="0px" viewBox="0 0 28.5 33.8" style="enable-background:new 0 0 28.5 33.8;" xml:space="preserve">
<style type="text/css">
	.svg-naranja-0{fill:#C3161C;}
	.svg-naranja-1{fill:#F05A22;}
	.svg-naranja-2{fill:#FFFFFF;}
	.svg-naranja-3{fill:#96A2AB;}
	.svg-naranja-4{fill:url(#SVGID_1_);}
	.svg-naranja-5{opacity:0.23;fill:#DAE2E7;enable-background:new    ;}
	.svg-naranja-6{opacity:0.39;fill:#FFFFFF;enable-background:new    ;}
	.svg-naranja-7{opacity:0.92;fill:url(#SVGID_2_);enable-background:new    ;}
</style>
<g>
	<path class="svg-naranja-0" d="M25.8,0.1C27.9,0.4,28,2.6,28,2.6v18.6v0.6v8.8c0,1.6-0.5,2.4-1.1,2.8c0,0,0,0,0,0l-0.1,0.1c0,0,0,0,0,0
		c-0.4,0.3-0.9,0.3-1.3,0.3c0.4,0.1,3,0.4,3-3.1V2.7C28.5,2.7,28.3,0.2,25.8,0.1z"/>
	<path class="svg-naranja-1" d="M28,2.6c0,0-0.1-2.2-2.2-2.6C25.3,0,24.6,0,23.8,0.2c-0.2,0-0.4,0.1-0.6,0.1c0.8,7.1,2.3,14.1,4.7,20.9V2.6z"
		/>
	<path class="svg-naranja-1" d="M2.3,16.8C2.3,12.9,2.8,9,3.6,5.1c-0.6,0.1-1,0.2-1,0.2S0,5.7,0,8.1v17.6c0,0-0.2,2.1,2.6,2.8
		c0.2,0,0.5,0.1,0.8,0.2C2.7,25,2.3,21.2,2.3,17.4C2.3,17.2,2.3,17,2.3,16.8z"/>
	<path class="svg-naranja-1" d="M6.5,13.2c0-3,0.2-6,0.6-8.9C5.7,4.6,4.6,4.9,3.8,5.1C3,8.9,2.5,12.8,2.5,16.8c0,0.2,0,0.4,0,0.6
		c0,3.8,0.4,7.6,1.2,11.3h0c1.2,0.3,3,0.7,5.1,1.2c-1.5-5.3-2.2-10.8-2.3-16.3C6.5,13.5,6.5,13.3,6.5,13.2z"/>
	<path class="svg-naranja-1" d="M18.5,1.5c-1.3,0.3-2.6,0.6-4,1c0,0.7,0,1.5-0.1,2.1c0.3,9.6,2.3,19.1,6,28l-0.2,0c-3.6-8.9-5.6-18.3-5.9-27.9
		c0-0.7,0-1.4,0-2.1c-1.2,0.3-2.3,0.6-3.5,0.8c-0.1,1.3-0.1,2.6-0.1,3.9c0,0.6,0,1.2,0,1.8c0.1,7.6,1.5,15.1,4,22.2h-0.2
		c-2.5-7.1-3.8-14.6-4-22.2c0-0.6,0-1.2,0-1.8c0-1.3,0-2.5,0.1-3.8C9.5,3.7,8.3,4,7.2,4.2c-0.4,3-0.6,6-0.6,9l0,0c0,0.1,0,0.3,0,0.4
		c0,5.5,0.8,11,2.3,16.3H8.8c6.7,1.6,16.2,3.8,16.2,3.8s0.2,0,0.5,0c0.3,0,0.8-0.1,1.3-0.3C22.1,23.4,19.3,12.5,18.5,1.5z"/>
	<path class="svg-naranja-1" d="M26.9,33.3c0.6-0.4,1.1-1.2,1.1-2.8v-8.8c-2.5-6.9-4.1-14.1-4.9-21.4C22,0.7,20.4,1,18.7,1.5l0,0
		C19.5,12.5,22.3,23.3,26.9,33.3z"/>
	<path class="svg-naranja-2" d="M18.5,1.5C18.5,1.5,18.5,1.5,18.5,1.5c0.1,0,0.1,0,0.1,0L18.5,1.5z"/>
	<path class="svg-naranja-2" d="M14.5,2.4h-0.2c0,0,0,0.1,0,0.1C14.4,2.5,14.5,2.5,14.5,2.4C14.6,2.5,14.5,2.4,14.5,2.4z"/>
	<path class="svg-naranja-2" d="M8.7,29.9h0.1C8.8,29.9,8.8,29.9,8.7,29.9C8.7,29.9,8.7,29.9,8.7,29.9z"/>
	<path class="svg-naranja-2" d="M3.5,28.7h0.2C3.6,28.7,3.5,28.7,3.5,28.7C3.5,28.7,3.5,28.7,3.5,28.7z"/>
	<path class="svg-naranja-2" d="M26.8,33.5l0.1-0.1c0,0,0,0,0,0C26.9,33.4,26.8,33.4,26.8,33.5C26.8,33.4,26.8,33.5,26.8,33.5z"/>
	<path class="svg-naranja-2" d="M6.7,13.7c0-0.1,0-0.3,0-0.4l0,0c0-3,0.2-6,0.6-9c-0.1,0-0.1,0-0.2,0c-0.4,3-0.6,5.9-0.6,8.9
		c0,0.1,0,0.3,0,0.4c0,5.5,0.8,11,2.3,16.3c0,0,0.1,0,0.1,0h0.1C7.5,24.6,6.7,19.1,6.7,13.7z"/>
	<path class="svg-naranja-2" d="M28,21.2c-2.4-6.8-3.9-13.8-4.7-20.9c-0.1,0-0.1,0-0.2,0c0.8,7.3,2.4,14.5,4.9,21.4V21.2z"/>
	<path class="svg-naranja-2" d="M10.6,9c0.2,7.6,1.5,15.1,4,22.2h0.2c-2.5-7.1-3.9-14.6-4-22.2c0-0.6,0-1.1,0-1.8c0-1.3,0-2.6,0.1-3.9
		c-0.1,0-0.1,0-0.2,0c-0.1,1.3-0.1,2.5-0.1,3.8C10.6,7.8,10.6,8.4,10.6,9z"/>
	<path class="svg-naranja-2" d="M2.5,17.4c0-0.2,0-0.4,0-0.6C2.5,12.8,3,8.9,3.8,5.1c-0.1,0-0.1,0-0.2,0.1C2.8,9,2.3,12.9,2.3,16.8
		c0,0.2,0,0.4,0,0.6c0,3.8,0.4,7.5,1.2,11.2c0.1,0,0.1,0,0.2,0h0C2.9,25,2.5,21.2,2.5,17.4z"/>
	<path class="svg-naranja-2" d="M20.3,32.5l0.2,0c-3.7-8.9-5.7-18.4-6-28c0.1-0.6,0.1-1.4,0.1-2.1c-0.1,0-0.1,0-0.2,0c0,0.7,0,1.4,0,2.1
		C14.6,14.2,16.6,23.7,20.3,32.5z"/>
	<path class="svg-naranja-2" d="M26.9,33.3c-4.6-10-7.4-20.8-8.2-31.9l0,0c0,0-0.1,0-0.1,0c0.8,11.1,3.6,21.9,8.2,31.9
		C26.8,33.4,26.9,33.4,26.9,33.3z"/>
</g>
<g>
	<path class="svg-naranja-3" d="M21.9,13.9h3.6c0.4,0,0.7,0.3,0.7,0.7v3.6c0,0.4-0.3,0.7-0.7,0.7h-3.6c-0.4,0-0.7-0.3-0.7-0.7v-3.6
		C21.2,14.2,21.5,13.9,21.9,13.9z"/>
	
		<radialGradient id="SVGID_1_" cx="334.1947" cy="-58.66" r="2.67" gradientTransform="matrix(0.95 0 0 -0.95 -292.89 -39.83)" gradientUnits="userSpaceOnUse">
		<stop  offset="0" style="stop-color:#DAE2E7"/>
		<stop  offset="0.14" style="stop-color:#D1D9DE"/>
		<stop  offset="0.36" style="stop-color:#B8C2C7"/>
		<stop  offset="0.65" style="stop-color:#909BA2"/>
		<stop  offset="0.98" style="stop-color:#59666E"/>
		<stop  offset="1" style="stop-color:#55626A"/>
	</radialGradient>
	<circle class="svg-naranja-4" cx="23.6" cy="16.4" r="2.3"/>
	<path class="svg-naranja-5" d="M25.2,14.7c0.8,1,0.6,2.4-0.3,3.2c-0.8,0.7-2,0.7-2.9,0c0.8,0.9,2.3,1,3.2,0.2c0.9-0.8,1-2.3,0.2-3.2
		C25.3,14.8,25.3,14.7,25.2,14.7L25.2,14.7z"/>
	<path class="svg-naranja-6" d="M24.7,15.1c0.1-0.1,0.3-0.3,0.5-0.4c-0.2-0.2-0.5-0.3-0.8-0.4c-0.3,0.3-0.6,0.6-0.9,1v0.1
		c-0.2-0.2-0.5-0.3-0.8-0.3c-0.7,0-1.3,0.7-1.3,1.4c0,0.7,0.5,1.2,1.2,1.3c-0.1,0.1-0.3,0.3-0.4,0.4c0.2,0.2,0.4,0.3,0.6,0.4
		c0,0,0.5,0,1-1c0.2,0.1,0.5,0.2,0.7,0.2c0.7,0,1.3-0.7,1.3-1.4C25.9,15.7,25.4,15.2,24.7,15.1L24.7,15.1z M22.7,17
		c-0.3,0-0.6-0.2-0.6-0.5c0-0.3,0.2-0.6,0.5-0.6c0.3,0,0.6,0.2,0.6,0.5c0,0,0,0,0,0C23.3,16.7,23,17,22.7,17
		C22.7,17,22.7,17,22.7,17L22.7,17z M24.5,17c-0.3,0-0.6-0.2-0.6-0.5s0.2-0.6,0.5-0.6c0.3,0,0.6,0.2,0.6,0.5c0,0,0,0,0,0
		C25.1,16.7,24.9,17,24.5,17L24.5,17z"/>
	
		<radialGradient id="SVGID_2_" cx="335.0348" cy="-59.83" r="2.1" gradientTransform="matrix(0.95 0 0 -0.95 -292.89 -39.83)" gradientUnits="userSpaceOnUse">
		<stop  offset="0.58" style="stop-color:#697980"/>
		<stop  offset="0.66" style="stop-color:#6C7C83"/>
		<stop  offset="0.73" style="stop-color:#77858C"/>
		<stop  offset="0.79" style="stop-color:#89959B"/>
		<stop  offset="0.85" style="stop-color:#A2ACB0"/>
		<stop  offset="0.91" style="stop-color:#C2C8CB"/>
		<stop  offset="0.97" style="stop-color:#E9EBEC"/>
		<stop  offset="1" style="stop-color:#FFFFFF"/>
	</radialGradient>
	<path class="svg-naranja-7" d="M22.4,16.9c-0.2-0.2-0.2-0.6,0.1-0.8c0.1-0.1,0.2-0.1,0.3-0.1c0.1,0,0.2,0,0.3,0.1c-0.1-0.1-0.3-0.2-0.4-0.2
		c-0.3,0-0.6,0.3-0.6,0.6C22.2,16.6,22.2,16.8,22.4,16.9L22.4,16.9z M24.2,16.9c-0.1-0.1-0.1-0.2-0.1-0.4c0-0.3,0.2-0.6,0.5-0.6
		c0,0,0,0,0,0c0.1,0,0.2,0,0.3,0.1c-0.1-0.1-0.3-0.2-0.4-0.2c-0.3,0-0.5,0.3-0.5,0.6c0,0,0,0,0,0C24,16.6,24.1,16.8,24.2,16.9z
		 M22.7,17.8c-0.3,0-0.6-0.1-0.8-0.3C22.1,17.6,22.3,17.8,22.7,17.8L22.7,17.8z M25.5,15.5c0.2,0.3,0.4,0.6,0.4,0.9
		c0,0.7-0.6,1.3-1.3,1.3c0,0,0,0,0,0c-0.3,0-0.5-0.1-0.7-0.2c-0.5,1-1,1-1,1c-0.2-0.1-0.4-0.2-0.5-0.4l0,0c0.2,0.2,0.4,0.3,0.6,0.4
		c0,0,0.5,0,1-1c0.2,0.1,0.5,0.2,0.7,0.2c0.7,0,1.3-0.6,1.3-1.3c0,0,0,0,0,0C26,16.1,25.8,15.8,25.5,15.5z M25.2,14.8L25.2,14.8
		c-0.3,0-0.4,0.2-0.5,0.3h0.1C25,15,25.1,14.9,25.2,14.8z"/>
</g>
<title>naranja</title>
<g>
	<path class="svg-naranja-2" d="M2.4,19.5h1.5l2,3.8v-3.8h1.1v5.2H5.5l-2-3.9l0,0v3.9H2.9L2.4,19.5z"/>
	<path class="svg-naranja-2" d="M10.9,20.9H12l0.1,0.5c0.1-0.4,0.4-0.6,0.8-0.6c0.1,0,0.2,0,0.3,0v1c-0.1-0.1-0.3-0.1-0.4-0.1
		c-0.8,0-0.8,1-0.8,1.6v1.4h-1L10.9,20.9z"/>
	<path class="svg-naranja-2" d="M13.5,21.1c0.4-0.2,0.9-0.3,1.3-0.3c1.2,0,1.7,0.5,1.7,1.6v0.5c0,0.4,0,0.7,0,1s0,0.6,0,0.9h-0.2
		c-0.3,0-0.6-0.3-0.6-0.6l0,0c-0.3,0.4-0.7,0.7-1.2,0.7c-0.7,0.1-1.3-0.4-1.3-1.1c0,0,0,0,0,0c0-0.5,0.2-0.9,0.7-1.1
		c0.4-0.2,0.8-0.2,1.3-0.2h0.6c0-0.6-0.3-0.8-0.9-0.8c-0.4,0-0.8,0.2-1.2,0.4L13.5,21.1z M14.7,24.1c0.3,0,0.5-0.1,0.7-0.4
		c0.2-0.2,0.2-0.5,0.2-0.8h-0.4c-0.4,0-1.1,0.1-1.1,0.7C14.1,24,14.4,24.1,14.7,24.1L14.7,24.1z"/>
	<path class="svg-naranja-2" d="M16.7,20.9H18v0.5l0,0c0.3-0.4,0.8-0.6,1.3-0.6c0.9,0,1.3,0.6,1.3,1.5v2.4h-1v-2c0-0.5,0-1.1-0.6-1.1
		s-0.9,0.8-0.9,1.3v1.9h-0.5L16.7,20.9z"/>
	<path class="svg-naranja-2" d="M20.6,26.1c0.5,0,0.6-0.1,0.6-0.7v-4.5h0.9l0.1,0.1v4c0,0.5-0.2,1.4-1.2,1.4c-0.2,0-0.3,0-0.5-0.1L20.6,26.1z"
		/>
	<path class="svg-naranja-2" d="M10.5,23.9c0-0.3,0-0.6,0-1v-0.5c0-1.1-0.5-1.6-1.7-1.6c-0.5,0-0.9,0.1-1.3,0.3v0.9c0.3-0.3,0.8-0.4,1.2-0.4
		c0.6,0,0.9,0.2,0.9,0.8H9.1c-0.4,0-0.9,0.1-1.3,0.2c-0.2,0.1-0.4,0.2-0.5,0.4l0.2,1.6c0.3,0.2,0.6,0.3,0.9,0.3
		c0.5,0,0.9-0.3,1.2-0.7l0,0c0,0.3,0.3,0.6,0.6,0.6h0.3C10.6,24.5,10.6,24.2,10.5,23.9z M9.4,23.8C9.2,24,9,24.1,8.7,24.1
		c-0.4,0-0.6-0.1-0.6-0.5c0-0.6,0.7-0.7,1.1-0.7h0.4C9.6,23.2,9.6,23.5,9.4,23.8z"/>
	<path class="svg-naranja-2" d="M26,23.9c0-0.3,0-0.6,0-1v-0.5c0-1.1-0.5-1.6-1.7-1.6c-0.5,0-0.9,0.1-1.3,0.3l0,0.9c0.3-0.3,0.8-0.4,1.2-0.4
		c0.6,0,0.9,0.2,0.9,0.8h-0.5c-0.4,0-0.9,0.1-1.3,0.2c-0.2,0.1-0.3,0.2-0.4,0.3l0.6,1.8c0.2,0.1,0.3,0.1,0.5,0.1
		c0.5,0,0.9-0.3,1.2-0.7l0,0c0,0.1,0.1,0.4,0.6,0.6H26C26,24.5,26,24.2,26,23.9z M24.8,23.8c-0.2,0.2-0.4,0.4-0.7,0.4
		c-0.4,0-0.6-0.1-0.6-0.5c0-0.6,0.7-0.7,1.1-0.7H25C25,23.2,25,23.5,24.8,23.8L24.8,23.8z"/>
</g>
</svg>