<svg xmlns="http://www.w3.org/2000/svg" xmlns:xlink="http://www.w3.org/1999/xlink" id="visa" viewBox="0 0 253.8 81.97"><defs><style>#visa .cls-1{fill:url(#linear-gradient);}</style><linearGradient id="linear-gradient" x1="26.24" y1="79.79" x2="236.26" y2="-0.76" gradientUnits="userSpaceOnUse"><stop offset="0" stop-color="#112257"/><stop offset="1" stop-color="#004493"/></linearGradient></defs><title>Asset 17</title><g id="Layer_2" data-name="Layer 2"><g id="visa-02"><path class="cls-1" d="M96.36,1.45,63.13,80.73H41.46L25.1,17.46c-1-3.9-1.86-5.32-4.88-7C15.3,7.82,7.16,5.31,0,3.76l.49-2.3h34.9a9.56,9.56,0,0,1,9.45,8.09l8.64,45.87,21.35-54ZM181.3,54.84c.09-20.92-28.93-22.08-28.73-31.42.07-2.84,2.78-5.87,8.7-6.64a38.66,38.66,0,0,1,20.22,3.55l3.6-16.81A55.13,55.13,0,0,0,165.9,0c-20.27,0-34.53,10.78-34.65,26.21C131.12,37.62,141.43,44,149.2,47.78c8,3.88,10.67,6.38,10.64,9.85-.06,5.32-6.37,7.66-12.28,7.76-10.3.16-16.29-2.79-21.06-5l-3.72,17.37c4.8,2.2,13.64,4.11,22.81,4.21,21.55,0,35.64-10.64,35.71-27.13m53.53,25.88h19L237.24,1.45h-17.5A9.34,9.34,0,0,0,211,7.27L180.23,80.73h21.54L206,68.88h26.31ZM211.95,52.64l10.8-29.77L229,52.64ZM125.66,1.45l-17,79.28H88.2l17-79.28Z"/></g></g></svg>