<svg xmlns="http://www.w3.org/2000/svg" viewBox="0 0 90.7 64.3"><g data-name="Capa 2"><path d="M50 9.7a5.4 5.4 0 000 10.8 5.38 5.38 0 005.4-5.4A5.44 5.44 0 0050 9.7zm3.7 5.4a3.76 3.76 0 01-3.7 3.7 3.7 3.7 0 010-7.4 3.76 3.76 0 013.7 3.7zm30.2 44.8a.79.79 0 00-.8-.8H58.5l22.6-13.2a.82.82 0 00.4-.6l.3-43.1a.75.75 0 00-.4-.7 1.1 1.1 0 00-.8 0l-16.2 9.6a15.07 15.07 0 00-26.1-5.7l-4-2.5L32 1.5h-.8L6 16.5a.82.82 0 00-.4.6l.2 42h-5a.79.79 0 00-.8.8.74.74 0 00.8.8H21a.79.79 0 00.8-.8.74.74 0 00-.8-.8H9.1l22.2-13 22.2 13H31.3a.79.79 0 00-.8.8.74.74 0 00.8.8h51.8a.79.79 0 00.8-.8zm-19-47.2l15.4-9.2-.3 41.3-23.2 13.6-.1-26.3v-.4c4-5.2 8.4-12 8.4-16.6a19.42 19.42 0 00-.2-2.4zm-28.2 2.4a13.4 13.4 0 1126.8 0c0 6.5-10.7 19-13.4 22-2.1-2.3-13.4-15.3-13.4-22zm-1.7 0c0 8.2 13.8 23.2 14.4 23.9a.86.86 0 00.6.3 1.42 1.42 0 00.6-.2l.1-.1c.8-.8 2.5-2.8 4.5-5.3l.1 16.6v8.2L32.2 44.9l.3-40.5v-.8l1.1.7 3.9 2.4a15.09 15.09 0 00-2.5 8.4zM31 3.6l-.3 41.3L7.5 58.5l-.2-40.8zM10.2 50.1V19.7a.79.79 0 01.8-.8.74.74 0 01.8.8v30.5a.79.79 0 01-.8.8.88.88 0 01-.8-.9zm80.5 13.4a.79.79 0 01-.8.8H77.2a.79.79 0 01-.8-.8.74.74 0 01.8-.8h12.7a.86.86 0 01.8.8z" data-name="Capa 1"/></g></svg>