<svg height="592" viewBox="0 0 444 444" width="592" xmlns="http://www.w3.org/2000/svg"><path d="M7 0h181c3.8672 0 7 3.1328 7 7v181c0 3.8672-3.1328 7-7 7H7c-3.8672 0-7-3.1328-7-7V7c0-3.8672 3.1328-7 7-7zm0 0M256 0h181c3.8672 0 7 3.1328 7 7v181c0 3.8672-3.1328 7-7 7H256c-3.8672 0-7-3.1328-7-7V7c0-3.8672 3.1328-7 7-7zm0 0M7 249h181c3.8672 0 7 3.1328 7 7v181c0 3.8672-3.1328 7-7 7H7c-3.8672 0-7-3.1328-7-7V256c0-3.8672 3.1328-7 7-7zm0 0M256 249h181c3.8672 0 7 3.1328 7 7v181c0 3.8672-3.1328 7-7 7H256c-3.8672 0-7-3.1328-7-7V256c0-3.8672 3.1328-7 7-7zm0 0"/></svg>