<?xml version="1.0" encoding="UTF-8"?>
<svg width="22px" height="22px" viewBox="0 0 22 22" version="1.1" xmlns="http://www.w3.org/2000/svg" xmlns:xlink="http://www.w3.org/1999/xlink">
    <!-- Generator: Sketch 55.2 (78181) - https://sketchapp.com -->
    <title>icn_edit</title>
    <desc>Created with Sketch.</desc>
    <defs>
        <path d="M2,20 L20,20 L20,19.0010688 L2,19.0010688 L2,20 Z M3.01579006,15.9832976 L3.01579006,13.4570005 L3.94050928,12.5459752 L6.46647392,15.0343129 L5.52674302,15.9832976 L3.01579006,15.9832976 Z M13.4378961,3.18998546 L15.8567775,5.56144817 L14.2345157,7.19869644 L11.8006227,4.80226044 L13.4378961,3.18998546 Z M7.17102191,14.3240728 L4.65206272,11.8447255 L11.0890693,5.50351016 L13.5299678,7.90893653 L7.17102191,14.3240728 Z M16.9216057,5.9080773 C17.1157567,5.71128785 17.1147559,5.39562559 16.9176026,5.20183293 C16.9176026,5.20183293 16.9166018,5.200834 16.915601,5.200834 L16.9166018,5.19983507 L13.7971756,2.14210661 L13.786167,2.15409378 C13.7841655,2.15209592 13.7841655,2.15009806 13.7821639,2.1481002 C13.5880129,1.95230968 13.2707662,1.95031182 13.0746136,2.14410447 L2.01501168,13.0394473 L2.01501168,16.9822288 L5.94406761,16.9822288 L16.9216057,5.9080773 Z" id="path-1-icn-edit-svg"></path>
    </defs>
    <g id="icn-edit-svg" stroke="none" stroke-width="1"  fill-rule="evenodd">
        <mask id="mask-2-icn-edit-svg" fill="white">
            <use xlink:href="#path-1-icn-edit-svg"></use>
        </mask>
        <use id="icn_edit-icn-edit-svg"  xlink:href="#path-1-icn-edit-svg"></use>
    </g>
</svg>