<?xml version="1.0" encoding="UTF-8"?>
<svg width="25px" height="22px" viewBox="0 0 25 22" version="1.1" xmlns="http://www.w3.org/2000/svg" xmlns:xlink="http://www.w3.org/1999/xlink">
    <!-- Generator: Sketch 59.1 (86144) - https://sketch.com -->
    <title>por codigo postal</title>
    <desc>Created with Sketch.</desc>
    <g id="Home_selector-de-sucursal-zipcode">
        <path d="M24.1935484,4.1509434 C24.1935484,2.3170566 22.7491935,0.830188679 20.9677419,0.830188679 C19.1862903,0.830188679 17.7419355,2.3170566 17.7419355,4.1509434 L17.7419355,14.1132075 L24.1935484,14.1132075 L24.1935484,4.1509434 Z M16.9354839,4.1509434 C16.9354839,2.84464151 17.5330645,1.61430189 18.5483871,0.830188679 L4.03225806,0.830188679 C2.25080645,0.830188679 0.806451613,2.3170566 0.806451613,4.1509434 L0.806451613,14.1132075 L16.9354839,14.1132075 L16.9354839,4.1509434 Z M25,4.1509434 L25,14.9433962 L11.2903226,14.9433962 L11.2903226,22 L10.483871,22 L10.483871,14.9433962 L0,14.9433962 L0,4.1509434 C0,1.85837736 1.80524194,0 4.03225806,0 L20.9677419,0 C23.1943548,0 25,1.85837736 25,4.1509434 L25,4.1509434 Z M8.06451613,9.13207547 L10.483871,9.13207547 L10.483871,5.81132075 L8.06451613,5.81132075 L8.06451613,9.13207547 Z M10.8870968,4.98113208 L14.1129032,4.98113208 L14.1129032,5.81132075 L11.2903226,5.81132075 L11.2903226,9.96226415 L7.25806452,9.96226415 L7.25806452,4.98113208 L10.8870968,4.98113208 Z M19.7580645,11.6226415 L22.1774194,11.6226415 L22.1774194,10.7924528 L19.7580645,10.7924528 L19.7580645,11.6226415 Z" id="Fill-1-zipcode"></path>
    </g>
</svg>