
<svg xmlns="http://www.w3.org/2000/svg" viewBox="0 0 71.9 72.4"><g data-name="Capa 2"><path stroke="2" d="M66.7 39.8a5.47 5.47 0 005.2-5.4v-4.3a3.66 3.66 0 00-.4-1.8l-7.3-15.8a.89.89 0 00-1.6.8l7.3 15.8a2 2 0 01.2 1.1v4.3a3.48 3.48 0 01-3.4 3.6 3.32 3.32 0 01-2.5-1 3.47 3.47 0 01-1-2.5.9.9 0 10-1.8 0 3.5 3.5 0 01-7 0 .9.9 0 00-1.8 0 3.5 3.5 0 01-7 0 .9.9 0 10-1.8 0 3.5 3.5 0 11-7 0 .9.9 0 00-1.8 0 3.5 3.5 0 01-7 0 .9.9 0 00-1.8 0 3.5 3.5 0 01-7 0 .9.9 0 00-1.8 0 3.5 3.5 0 11-7 0 .9.9 0 00-1.8 0 4 4 0 01-1 2.5 3.47 3.47 0 01-2.5 1 3.55 3.55 0 01-3.4-3.6v-4.4a4.25 4.25 0 01.2-1.1l8.5-19c0-.1.1-.2.1-.4v-7a.9.9 0 01.9-.9h49.1a.9.9 0 01.9.9v6.1H13.6a.9.9 0 000 1.8h48.6a.9.9 0 00.9-.9v-7A2.65 2.65 0 0060.5 0H11.4a2.65 2.65 0 00-2.6 2.6v6.8L.4 28.2A3.92 3.92 0 000 30v4.4a5.4 5.4 0 005.2 5.4 5.66 5.66 0 003.6-1.3v32.1H.9a.9.9 0 000 1.8h70a.9.9 0 100-1.8H63V38.4a5.49 5.49 0 003.7 1.4zM26.5 70.5H15.2V47.2h11.3zm35 0H28.2V46.3a.9.9 0 00-.9-.9h-13a.9.9 0 00-.9.9v24.2h-2.9V38.4a5.39 5.39 0 003.5 1.3 5.24 5.24 0 004.4-2.4 5.35 5.35 0 004.4 2.4 5.24 5.24 0 004.4-2.4 5.35 5.35 0 004.4 2.4 5.24 5.24 0 004.4-2.4 5.35 5.35 0 004.4 2.4 5.24 5.24 0 004.4-2.4 5.35 5.35 0 004.4 2.4 5.24 5.24 0 004.4-2.4 5.29 5.29 0 007.9 1.1zM5.3 28.4h61.2a.9.9 0 110 1.8H5.3a.9.9 0 010-1.8zm27.1 17a.9.9 0 00-.9.9v15.4a.9.9 0 00.9.9h25.1a.9.9 0 00.9-.9V46.3a.9.9 0 00-.9-.9zm24.2 15.4H33.3V47.2h23.3zm-16.8-3l8.9-8.9a.85.85 0 011.2 1.2L41 59a.75.75 0 01-1.2 0 .91.91 0 010-1.2zM38 55.7a.91.91 0 010-1.2l3.8-3.8a.85.85 0 111.2 1.2l-3.8 3.8a.86.86 0 01-.6.3.71.71 0 01-.6-.3zm8.5.7l3.8-3.8a.85.85 0 011.2 1.2l-3.8 3.8a.75.75 0 01-1.2 0 .91.91 0 010-1.2z" data-name="Capa 1"/></g></svg>