
<svg xmlns="http://www.w3.org/2000/svg" viewBox="0 0 169.3 169.3"><defs><style>.cls-1{fill:#eee;}.cls-2{fill:#9b9b9b;}.cls-3,.cls-5{fill:#979797;}.cls-4{fill:#bdbdbd;}.cls-5{fill-rule:evenodd;}.cls-6{fill:#9e9e9e;}.cls-7{fill:#e5e5e5;}</style></defs><g id="Capa_2" data-name="Capa 2"><g id="Capa_1-2" data-name="Capa 1"><path class="cls-1" d="M122.61,65.5H47.75a4,4,0,0,0-4,4v87.06a82.93,82.93,0,0,0,82.86,0V69.5A4,4,0,0,0,122.61,65.5Z"/><g id="Oval-Copy-4"><circle class="cls-2" cx="119.39" cy="58.74" r="1.75"/></g><g id="Oval-Copy-8"><g id="Oval-Copy-5"><path class="cls-3" d="M139.82,64.93A4.92,4.92,0,1,1,144.73,60,4.93,4.93,0,0,1,139.82,64.93Zm0-8.19A3.27,3.27,0,1,0,143.08,60,3.28,3.28,0,0,0,139.82,56.74Z"/></g></g><g id="Oval-Copy-6"><path class="cls-3" d="M32.24,72.17A3.75,3.75,0,1,1,36,68.42,3.76,3.76,0,0,1,32.24,72.17Zm0-5.85a2.1,2.1,0,1,0,2.1,2.1A2.1,2.1,0,0,0,32.24,66.32Z"/></g><g id="Rectangle"><rect class="cls-4" x="60.18" y="60.18" width="50.01" height="12.77"/></g><g id="Group-4-Copy-2"><g id="ICON_check" data-name="ICON/check"><g id="Fill-1"><path class="cls-5" d="M62.63,129.34a2.71,2.71,0,0,0-1.65.55,2.31,2.31,0,0,0-.61.8,2,2,0,0,0-.6-.8,2.71,2.71,0,0,0-1.65-.55,2.91,2.91,0,0,0-2.09.88,3.17,3.17,0,0,0-.82,2.15,3.65,3.65,0,0,0,1,2.44,21.88,21.88,0,0,0,2.52,2.29c.35.28.75.6,1.15,1a.74.74,0,0,0,.91,0l1.14-1a21.08,21.08,0,0,0,2.52-2.29,3.69,3.69,0,0,0,1-2.44,3.11,3.11,0,0,0-.83-2.14A2.82,2.82,0,0,0,62.63,129.34Z"/></g></g><g id="Line-3"><rect class="cls-6" x="70.07" y="130.72" width="45.13" height="1.5"/></g><g id="Line-3-Copy"><rect class="cls-6" x="70.07" y="134.98" width="22.78" height="1.5"/></g></g><g id="Group-4-Copy-3"><g id="ICON_check-2" data-name="ICON/check"><g id="Fill-1-2" data-name="Fill-1"><path class="cls-5" d="M62.63,108.06a2.71,2.71,0,0,0-1.65.55,2.31,2.31,0,0,0-.61.8,2,2,0,0,0-.6-.8,2.71,2.71,0,0,0-1.65-.55,2.83,2.83,0,0,0-2.09.88,3.17,3.17,0,0,0-.82,2.14,3.66,3.66,0,0,0,1,2.45,21.79,21.79,0,0,0,2.52,2.28c.35.28.75.61,1.15,1a.74.74,0,0,0,.91,0l1.14-1a22,22,0,0,0,2.52-2.29,3.71,3.71,0,0,0,1-2.44,3.11,3.11,0,0,0-.83-2.14A2.78,2.78,0,0,0,62.63,108.06Z"/></g></g><g id="Line-3-2" data-name="Line-3"><rect class="cls-6" x="70.07" y="109.44" width="45.13" height="1.5"/></g><g id="Line-3-Copy-2" data-name="Line-3-Copy"><rect class="cls-6" x="70.07" y="113.69" width="22.78" height="1.5"/></g></g><g id="Group-4-Copy-4"><g id="ICON_check-3" data-name="ICON/check"><g id="Fill-1-3" data-name="Fill-1"><path class="cls-5" d="M62.63,86.78a2.71,2.71,0,0,0-1.65.55,2.22,2.22,0,0,0-.61.8,2,2,0,0,0-.6-.8,2.64,2.64,0,0,0-1.65-.55,2.83,2.83,0,0,0-2.09.88,3.15,3.15,0,0,0-.82,2.14,3.61,3.61,0,0,0,1,2.44,21,21,0,0,0,2.52,2.29l1.15,1a.71.71,0,0,0,.91,0l1.14-1a21,21,0,0,0,2.52-2.28,3.72,3.72,0,0,0,1-2.45,3.09,3.09,0,0,0-.83-2.13A2.78,2.78,0,0,0,62.63,86.78Z"/></g></g><g id="Line-3-3" data-name="Line-3"><rect class="cls-6" x="70.07" y="88.16" width="45.13" height="1.5"/></g><g id="Line-3-Copy-3" data-name="Line-3-Copy"><rect class="cls-6" x="70.07" y="92.41" width="22.78" height="1.5"/></g></g><g id="Rectangle-2" data-name="Rectangle"><rect class="cls-6" x="60.18" y="60.18" width="50.01" height="4.26"/></g><g id="Oval-Copy-7"><path class="cls-7" d="M84.65,169.3A84.65,84.65,0,1,1,169.3,84.65,84.74,84.74,0,0,1,84.65,169.3Zm0-166A81.35,81.35,0,1,0,166,84.65,81.44,81.44,0,0,0,84.65,3.3Z"/></g><g id="Fill-1-4" data-name="Fill-1"><path class="cls-5" d="M132,36.15a3.21,3.21,0,0,0-1.94.65,2.65,2.65,0,0,0-.71.93,2.32,2.32,0,0,0-.71-.93,3.07,3.07,0,0,0-1.94-.65,3.35,3.35,0,0,0-2.45,1,3.71,3.71,0,0,0-1,2.52,4.25,4.25,0,0,0,1.2,2.87,25.21,25.21,0,0,0,3,2.69c.41.33.87.71,1.35,1.12a.84.84,0,0,0,1.06,0l1.35-1.13a25.21,25.21,0,0,0,3-2.69,4.3,4.3,0,0,0,1.2-2.87,3.63,3.63,0,0,0-1-2.51A3.33,3.33,0,0,0,132,36.15Z"/></g><g id="Fill-1-5" data-name="Fill-1"><path class="cls-5" d="M27.65,84.82a2.68,2.68,0,0,0-1.68.56,2.28,2.28,0,0,0-.62.81,2,2,0,0,0-.62-.81,2.63,2.63,0,0,0-1.67-.56,2.91,2.91,0,0,0-2.13.89,3.27,3.27,0,0,0-.84,2.19,3.8,3.8,0,0,0,1,2.48,21.88,21.88,0,0,0,2.57,2.33c.35.29.76.62,1.17,1a.72.72,0,0,0,.92,0l1.17-1a21.88,21.88,0,0,0,2.57-2.33,3.78,3.78,0,0,0,1-2.48,3.17,3.17,0,0,0-.84-2.18A2.86,2.86,0,0,0,27.65,84.82Z"/></g></g></g></svg>