<?xml version="1.0" encoding="UTF-8"?>
<svg width="129px" height="129px" viewBox="0 0 129 129" version="1.1" xmlns="http://www.w3.org/2000/svg" xmlns:xlink="http://www.w3.org/1999/xlink">
    <title>Group 10</title>
    <defs>
        <circle id="path-1" cx="62.5" cy="62.5" r="62.5"></circle>
    </defs>
    <g id="Home-" stroke="none" stroke-width="1" fill="none" fill-rule="evenodd">
        <g id="Group-10" transform="translate(2.000000, 2.000000)">
            <circle id="Oval" fill="#9B9B9B" cx="39.1725352" cy="62.0598592" r="1.32042254"></circle>
            <circle id="Oval-Copy-3" fill="#9B9B9B" cx="87.5880282" cy="61.1795775" r="1.32042254"></circle>
            <circle id="Oval" stroke="#979797" stroke-width="1.32" cx="56.3380282" cy="36.5316901" r="3.08098592"></circle>
            <line x1="85.8274648" y1="40.9330986" x2="85.8274648" y2="46.2147887" id="Line-4" stroke="#979797" stroke-width="1.32" stroke-linecap="square"></line>
            <line x1="39.1725352" y1="46.2147887" x2="39.1725352" y2="51.4964789" id="Line-4-Copy-2" stroke="#979797" stroke-width="1.32" stroke-linecap="square"></line>
            <line x1="85.8274648" y1="40.9330986" x2="85.8274648" y2="46.2147887" id="Line-4-Copy" stroke="#979797" stroke-width="1.32" stroke-linecap="square" transform="translate(85.827465, 43.573944) rotate(-270.000000) translate(-85.827465, -43.573944) "></line>
            <line x1="39.1725352" y1="46.2147887" x2="39.1725352" y2="51.4964789" id="Line-4-Copy-3" stroke="#979797" stroke-width="1.32" stroke-linecap="square" transform="translate(39.172535, 48.855634) rotate(-270.000000) translate(-39.172535, -48.855634) "></line>
            <line x1="51.4964789" y1="56.778169" x2="54.1373239" y2="61.1795775" id="Line-5" stroke="#979797" stroke-width="1.32" stroke-linecap="square"></line>
            <line x1="71.7429577" y1="56.778169" x2="74.3838028" y2="61.1795775" id="Line-5-Copy" stroke="#979797" stroke-width="1.32" stroke-linecap="square" transform="translate(73.063380, 58.978873) scale(-1, 1) translate(-73.063380, -58.978873) "></line>
            <line x1="62.9401408" y1="53.2570423" x2="62.9401408" y2="62.2783265" id="Line-6" stroke="#979797" stroke-width="1.32" stroke-linecap="square"></line>
            <circle id="Oval-Copy-2" stroke="#979797" stroke-width="1.32" cx="74.8239437" cy="44.4542254" r="2.20070423"></circle>
            <rect id="Rectangle" fill="#CBCBCB" x="33.4507042" y="70.4225352" width="58.9788732" height="10.5633803"></rect>
            <polygon id="Path-3" fill="#9B9B9B" points="19.3661972 80.9859155 33.4507042 70.4225352 33.4507042 80.9859155"></polygon>
            <polygon id="Path-3-Copy" fill="#9B9B9B" transform="translate(99.248346, 75.704225) scale(-1, 1) translate(-99.248346, -75.704225) " points="92.2060929 80.9859155 106.2906 70.4225352 106.2906 80.9859155"></polygon>
            <g id="Rectangle">
                <mask id="mask-2" fill="white">
                    <use xlink:href="#path-1"></use>
                </mask>
                <g id="Mask"></g>
                <rect fill="#EBEAEA" mask="url(#mask-2)" x="19.3661972" y="80.9859155" width="87.1478873" height="47.5352113"></rect>
            </g>
            <circle id="Oval" stroke="#E0E0E0" stroke-width="2.64" cx="62.5" cy="62.5" r="62.5"></circle>
        </g>
    </g>
</svg>