
<svg xmlns="http://www.w3.org/2000/svg" viewBox="0 0 113.28 102.54"><defs><style>.cls-1{fill:#979797;}.cls-2,.cls-5{fill:#fff;}.cls-3{fill:#424242;}.cls-4,.cls-6{fill:#d1d3d4;}.cls-5,.cls-8,.cls-9{stroke:#979797;}.cls-6,.cls-8{fill-rule:evenodd;}.cls-7,.cls-9{fill:none;}.cls-7{stroke:#d1d3d4;stroke-width:2px;}.cls-8{fill:#d8d8d8;}.cls-9{stroke-linecap:square;}</style></defs><g id="Capa_2" data-name="Capa 2"><g id="Capa_1-2" data-name="Capa 1"><g id="Categoria"><g id="búsqueda-vacia---mobile"><g id="Group"><polygon id="Line-8" class="cls-1" points="103.97 93.43 103.97 97.99 104.97 97.99 104.97 93.43 103.97 93.43"/><polygon id="Line-8-Copy" class="cls-1" points="106.75 95.2 102.19 95.2 102.19 96.2 106.75 96.2 106.75 95.2"/><g id="Rectangle-2"><rect id="Rectangle" class="cls-2" x="103.97" y="95.25" width="1" height="1"/></g><polygon id="Line-8-2" data-name="Line-8" class="cls-1" points="21.89 16.86 21.89 21.43 22.89 21.43 22.89 16.86 21.89 16.86"/><polygon id="Line-8-Copy-2" data-name="Line-8-Copy" class="cls-1" points="24.67 18.63 20.11 18.63 20.11 19.63 24.67 19.63 24.67 18.63"/><g id="Rectangle-2-2" data-name="Rectangle-2"><rect id="Rectangle-2-3" data-name="Rectangle" class="cls-2" x="21.89" y="18.69" width="1" height="1"/></g><path id="Oval" class="cls-3" d="M46.51,6.38a3.19,3.19,0,1,0-3.19-3.19A3.19,3.19,0,0,0,46.51,6.38Zm0-.91a2.28,2.28,0,1,1,2.28-2.28A2.28,2.28,0,0,1,46.51,5.47Z"/><path id="Oval-Copy-8" class="cls-3" d="M102.14,55.6a2.28,2.28,0,1,0-2.28-2.28A2.28,2.28,0,0,0,102.14,55.6Zm0-.91a1.37,1.37,0,1,1,1.37-1.37A1.36,1.36,0,0,1,102.14,54.69Z"/><polygon id="Line-9" class="cls-1" points="109.25 39.2 112.63 42.57 113.28 41.93 109.9 38.55 109.25 39.2"/><polygon id="Line-9-Copy" class="cls-1" points="112.63 38.55 109.25 41.93 109.9 42.58 113.28 39.19 112.63 38.55"/><rect id="Rectangle-Copy-10" class="cls-4" x="25.54" y="23.24" width="50.16" height="72.01" rx="5"/><g id="Group-4"><rect id="Rectangle-Copy-2" class="cls-5" x="48.84" y="41.06" width="41.86" height="60.98" rx="5"/><path id="Rectangle-Copy-11" class="cls-6" d="M53.81,48.77H85.73a.91.91,0,0,1,.91.91h0a.91.91,0,0,1-.91.91H53.81a.91.91,0,0,1-.91-.91h0A.9.9,0,0,1,53.81,48.77Z"/><rect id="Rectangle-Copy-12" class="cls-4" x="52.9" y="89.78" width="11.86" height="1.82" rx="0.91"/><rect id="Rectangle-Copy-15" class="cls-4" x="67.49" y="89.78" width="19.15" height="1.82" rx="0.91"/><rect id="Rectangle-Copy-16" class="cls-4" x="52.9" y="94.34" width="33.74" height="1.82" rx="0.91"/><path id="Rectangle-Copy-18" class="cls-6" d="M53.81,54.23H85.73a.92.92,0,0,1,.91.92h0a.91.91,0,0,1-.91.91H53.81a.91.91,0,0,1-.91-.91h0A.91.91,0,0,1,53.81,54.23Z"/><rect id="Rectangle-Copy-19" class="cls-7" x="53.9" y="60.7" width="31.74" height="22.61" rx="2"/></g><rect id="Rectangle-3" data-name="Rectangle" class="cls-5" x="29.68" y="20.1" width="49.16" height="71.01" rx="5"/><path id="Rectangle-4" data-name="Rectangle" class="cls-6" d="M38.3,26.89H70.22a.92.92,0,0,1,.92.91h0a.92.92,0,0,1-.92.91H38.3a.91.91,0,0,1-.91-.91h0A.91.91,0,0,1,38.3,26.89Z"/><path id="Rectangle-Copy-4" class="cls-6" d="M38.3,67.91h10a.91.91,0,0,1,.91.91h0a.91.91,0,0,1-.91.91h-10a.91.91,0,0,1-.91-.91h0A.91.91,0,0,1,38.3,67.91Z"/><path id="Rectangle-Copy-8" class="cls-6" d="M60.19,77.93h10a.92.92,0,0,1,.92.92h0a.92.92,0,0,1-.92.91h-10a.91.91,0,0,1-.91-.91h0A.92.92,0,0,1,60.19,77.93Z"/><path id="Rectangle-Copy-7" class="cls-6" d="M38.3,77.93H55.63a.91.91,0,0,1,.91.92h0a.91.91,0,0,1-.91.91H38.3a.91.91,0,0,1-.91-.91h0A.92.92,0,0,1,38.3,77.93Z"/><path id="Rectangle-Copy-5" class="cls-6" d="M52.9,67.91H70.22a.92.92,0,0,1,.92.91h0a.92.92,0,0,1-.92.91H52.9a.92.92,0,0,1-.92-.91h0A.92.92,0,0,1,52.9,67.91Z"/><path id="Rectangle-Copy-6" class="cls-6" d="M38.3,72.46H70.22a.92.92,0,0,1,.92.92h0a.92.92,0,0,1-.92.91H38.3a.91.91,0,0,1-.91-.91h0A.92.92,0,0,1,38.3,72.46Z"/><path id="Rectangle-Copy-9" class="cls-6" d="M38.3,83.4H70.22a.92.92,0,0,1,.92.91h0a.92.92,0,0,1-.92.92H38.3a.92.92,0,0,1-.91-.92h0A.91.91,0,0,1,38.3,83.4Z"/><rect id="Rectangle-Copy-3" class="cls-4" x="37.39" y="32.36" width="33.74" height="1.82" rx="0.91"/><rect id="Rectangle-5" data-name="Rectangle" class="cls-7" x="38.39" y="38.83" width="31.74" height="22.61" rx="2"/><path id="Rectangle-6" data-name="Rectangle" class="cls-8" d="M96.59,85.54a2.17,2.17,0,0,1,.68,1.56,2.19,2.19,0,0,1-.62,1.59,2.22,2.22,0,0,1-3.16.06h0L83,78.62a2.22,2.22,0,0,1-.68-1.5,2.24,2.24,0,0,1,.52-1.55,2.48,2.48,0,0,1,1.65-.78,2.21,2.21,0,0,1,1.62.61h0Z"/><ellipse id="Oval-2" data-name="Oval" class="cls-5" cx="70.68" cy="61.07" rx="16.87" ry="16.86"/><line id="Line-5" class="cls-9" x1="81.62" y1="73.83" x2="82.54" y2="74.74"/><path id="Path-2" class="cls-3" d="M15,80.14a.45.45,0,0,1,0-.76l3.5-2.4a.45.45,0,0,1,.71.37V82a.45.45,0,0,1-.7.38Zm3.29,1v-3l-2.23,1.53Z"/><path id="Path-2-Copy" class="cls-3" d="M86.37,15.9a.46.46,0,0,1,0-.73l1.83-1.4a.45.45,0,0,1,.73.36v2.73a.45.45,0,0,1-.72.37ZM88,16v-.91l-.61.46Z"/><polygon id="Line-6" class="cls-3" points="1.82 50.59 1.82 55.22 2.82 55.22 2.82 50.59 1.82 50.59"/><polygon id="Line-7" class="cls-3" points="0 53.41 4.53 53.41 4.53 52.41 0 52.41 0 53.41"/></g></g></g></g></g></svg>