
<svg xmlns="http://www.w3.org/2000/svg" xmlns:xlink="http://www.w3.org/1999/xlink" viewBox="0 0 43 43"><defs><style>.cls-1{fill:#fff;}.cls-1,.cls-3{fill-rule:evenodd;}.cls-2{mask:url(#mask);}.cls-4{opacity:0.17;}.cls-5{fill:none;}</style><mask id="mask" x="7.66" y="1.05" width="27.67" height="36.9" maskUnits="userSpaceOnUse"><g id="mask-3"><polygon id="path-2" class="cls-1" points="7.66 1.05 35.34 1.05 35.34 37.95 7.66 37.95 7.66 1.05"/></g></mask></defs><g id="Capa_2" data-name="Capa 2"><g id="Capa_1-2" data-name="Capa 1"><g id="Group-3"><g class="cls-2"><path id="Fill-1" class="cls-3" d="M21.5,19.5a4.62,4.62,0,1,1,4.61-4.61A4.62,4.62,0,0,1,21.5,19.5M7.66,14.89c0,9.59,12.49,22.19,13,22.72a1.16,1.16,0,0,0,1.64,0c.53-.53,13-13.13,13-22.72a13.84,13.84,0,0,0-27.68,0Z"/></g></g><g id="Symbols" class="cls-4"><ellipse id="Oval" cx="21.5" cy="37.95" rx="14" ry="4"/></g><rect class="cls-5" width="43" height="43"/></g></g></svg>