<!-- Generated by IcoMoon.io -->
<svg version="1.1" xmlns="http://www.w3.org/2000/svg" width="1024" height="1024" viewBox="0 0 1024 1024">
<title></title>
<g id="hpa-cart">
<path fill="#000" d="M668.965 290.903c1.096 11.38 2.972 22.533 5.572 33.404l-249.532-0.546 59.017 258.898h409.826l17.363-70.663c0.494 0.003 0.989 0.004 1.484 0.004 11.349 0 22.517-0.772 33.456-2.267l-26.124 106.316h-462.642l-96.030-421.267h-117.455v-33.391h144.091l29.397 128.961 251.575 0.551zM560.886 765.44c0-28.027-21.708-50.52-48.182-50.52-26.464 0-48.17 22.494-48.17 50.52s21.706 50.52 48.17 50.52c26.475 0 48.182-22.493 48.182-50.52zM594.277 765.44c0 46.208-36.387 83.911-81.574 83.911-45.177 0-81.561-37.705-81.561-83.911s36.384-83.911 81.561-83.911c45.187 0 81.574 37.703 81.574 83.911zM898.025 765.44c0-28.027-21.708-50.52-48.182-50.52-26.464 0-48.17 22.494-48.17 50.52s21.706 50.52 48.17 50.52c26.475 0 48.182-22.493 48.182-50.52zM931.416 765.44c0 46.208-36.387 83.911-81.574 83.911-45.177 0-81.561-37.705-81.561-83.911s36.384-83.911 81.561-83.911c45.187 0 81.574 37.703 81.574 83.911zM66.783 414.667v-22.261h180.829v22.261h-180.829zM144.429 512.042v-22.261h130.773v22.261h-130.773zM78.019 610.478v-22.261h234.98v22.261h-234.98z"></path>
</g>

</svg>
