<?xml version="1.0" encoding="UTF-8"?>
<svg width="152px" height="40px" viewBox="0 0 152 40" version="1.1" xmlns="http://www.w3.org/2000/svg" xmlns:xlink="http://www.w3.org/1999/xlink">
    <title>ICON/logo</title>
    <defs>
        <path d="M20.4057391,9.07030508 C20.8876676,9.07030508 21.2783478,9.4609853 21.2783478,9.94291378 C21.2783478,10.4248423 20.8876676,10.8155225 20.4057391,10.8155225 L20.4057391,10.8155225 L19.3644339,10.8155225 L19.3644339,16.549566 L27.9106957,29.2666964 C27.9659817,29.3366094 29.9277391,31.9706616 29.216713,34.6056007 C28.8122896,36.099859 27.6681652,37.2498242 25.8167478,38.0228851 C25.7407043,38.0614938 22.6083391,39.5810851 14.6860957,39.5810851 C6.76510435,39.5810851 3.63187826,38.0614938 3.50131304,37.9970329 C1.70274783,37.2498242 0.558756522,36.0998616 0.155869565,34.6056007 C-0.557449565,31.9706616 1.4040287,29.3366094 1.48747826,29.224279 L1.48747826,29.224279 L10.0068861,16.549566 L10.0068861,10.8155225 L8.96708609,10.8155225 C8.48515761,10.8155225 8.09447739,10.4248423 8.09447739,9.94291378 C8.09447739,9.4609853 8.48515761,9.07030508 8.96708609,9.07030508 L8.96708609,9.07030508 Z M17.6191122,10.8155225 L11.7522026,10.8155225 L11.7522026,16.8176877 C11.7518106,16.9907226 11.6998795,17.1597181 11.6030348,17.3031138 L11.6030348,17.3031138 L2.90746957,30.2376764 C2.86531304,30.2965312 1.34838261,32.3507486 1.83968087,34.1572181 C2.09786087,35.0984355 2.90084348,35.8579807 4.22673913,36.4120677 C4.30620261,36.447859 7.25449565,37.8357633 14.6860957,37.8357633 C22.1173043,37.8357633 25.0663565,36.447859 25.0946374,36.436146 C26.4703043,35.8579833 27.2727913,35.1018503 27.531,34.1572181 C28.02306,32.3538268 26.5066252,30.2965312 26.4894339,30.274879 L26.4894339,30.274879 L17.7676252,17.3031138 C17.6705891,17.1598463 17.6188471,16.9907238 17.6191122,16.8176877 L17.6191122,16.8176877 L17.6191122,10.8155225 Z M20.7918261,25.6486181 L24.1543383,30.6541833 C24.1681122,30.6752355 24.188747,30.6979051 24.2017383,30.7190355 C24.4832426,31.1017051 25.232087,32.4113746 24.9680348,33.368766 C24.8127652,33.9200355 24.2821043,34.3888938 23.3871652,34.7635312 C23.3585224,34.7739387 23.3308938,34.7869497 23.3046261,34.8024007 C23.2808113,34.814372 20.8109217,35.9361894 14.6250783,35.9361894 C9.95529743,35.9361894 7.4020313,35.2965526 6.4303765,34.9814427 L6.28659003,34.9333407 C6.06977039,34.8584194 5.96636912,34.8110105 5.96582609,34.8101486 C5.93081739,34.7952529 5.89706087,34.7783225 5.86314783,34.7635312 C4.96974783,34.3888938 4.4360087,33.9200355 4.28238261,33.368766 C4.01603478,32.4113746 4.76671304,31.1017051 5.0432087,30.7276964 C5.06006087,30.7013486 5.07774783,30.6789138 5.09507217,30.6541833 L5.09507217,30.6541833 L8.4561913,25.6486181 C8.84838261,27.5386964 11.4138783,28.953966 14.6250783,28.953966 C15.2553952,28.9535387 15.8843057,28.8944755 16.5036809,28.7775399 C16.4614835,28.90437 16.4345365,29.035773 16.4234087,29.1689746 C16.4234087,30.1818529 17.2445087,31.0029529 18.257387,31.0029529 C19.2702652,31.0029529 20.0913652,30.1818529 20.0913652,29.1689746 C20.0825006,28.5712225 19.7785328,28.0165542 19.2794609,27.6874442 C20.0852609,27.1341112 20.6312087,26.4358442 20.7918261,25.6486181 L20.7918261,25.6486181 Z M124.818021,18.8369851 C129.321964,18.8369851 132.973132,22.4881528 132.973132,26.9920964 C132.973132,31.6569399 129.324271,35.1154964 124.818266,35.1154964 C120.312261,35.1154964 116.66291,31.6569399 116.66291,26.9920964 C116.66291,22.4881528 120.314077,18.8369851 124.818021,18.8369851 Z M151.472191,10.9992007 L151.472191,34.798459 L148.171957,34.798459 L148.171957,33.6240242 C146.858465,34.571446 145.285445,35.0921257 143.666087,35.1154964 C139.160113,35.1154964 135.828157,31.6569399 135.828157,26.9920964 C135.828157,22.3280355 139.160123,18.8367399 143.666087,18.8367399 C145.220609,18.8367399 147.124539,19.5026877 148.171957,20.3603225 L148.171957,10.9992007 L151.472191,10.9992007 Z M45.4921383,10.6813833 C46.1487077,10.6610166 46.7977223,10.8261298 47.3647357,11.1577833 L47.3647357,13.6965399 C46.6543314,13.3289629 45.8178521,13.2939047 45.0791817,13.6007486 C43.5766035,14.276146 43.2894287,14.8915276 43.2719532,17.2820068 L43.2710687,19.1225746 L47.3647357,19.1225746 L47.3647357,21.7878268 L43.2710687,21.7878268 L43.2710687,34.798459 L40.0022974,34.798459 L40.0027848,16.9768184 C40.0083895,14.9631856 40.0784481,14.3651872 40.9541817,12.9343312 C41.9695148,11.2531833 43.6199557,10.6813833 45.4921383,10.6813833 Z M53.9639009,19.1225746 L53.9639009,34.798459 L50.6955183,34.798459 L50.6955183,19.1225746 L53.9639009,19.1225746 Z M69.5121443,19.1225746 L69.5121443,21.9153399 L61.6104052,32.1325573 L69.5121443,32.1325573 L69.5121443,34.798459 L58.246993,34.798459 L58.246993,31.8155225 L66.1167704,21.7878268 L58.246993,21.7878268 L58.246993,19.1225746 L69.5121443,19.1225746 Z M84.5841235,19.1225746 L84.5841235,21.9153399 L76.6828696,32.1325573 L84.5841235,32.1325573 L84.5841235,34.798459 L73.3190922,34.798459 L73.3190922,31.8155225 L81.1887183,21.7878268 L73.3190922,21.7878268 L73.3190922,19.1225746 L84.5841235,19.1225746 Z M113.681379,25.7546329 L113.681379,34.798459 L110.412997,34.798459 L110.412997,26.0715399 C110.412997,22.8980616 109.587605,21.5023833 106.890892,21.5023833 C104.161936,21.5023833 103.019353,23.2162442 102.797457,25.7546329 L102.797457,34.798459 L99.4973791,34.798459 L99.5292052,34.6712094 L99.5292052,26.0715399 C99.5292052,22.8980616 98.7039496,21.5023833 96.0065791,21.5023833 C92.9604574,21.5023833 91.8814487,23.6289399 91.8814487,26.3892268 L91.8814487,34.798459 L88.6131965,34.798459 L88.6131965,19.1225746 L91.8814487,19.1225746 L91.8814487,21.6613573 C92.3258661,20.2641399 94.1345009,18.9953225 96.0065791,18.8687199 C99.0847878,18.6466964 101.274162,19.6617633 102.258037,22.2002851 C102.924344,20.0426329 105.050405,18.9953225 106.890892,18.8687199 C111.142883,18.5512964 113.681379,20.6141746 113.681379,25.7546329 Z M16.1063902,31.9952362 C15.5889775,31.9952173 15.1694302,32.4144847 15.1691036,32.9318972 C15.1687775,33.4493098 15.5877956,33.8691061 16.1052078,33.8697409 C16.3540917,33.87011 16.5928976,33.7714479 16.768944,33.595519 C16.9449904,33.41959 17.0438118,33.1808501 17.0436081,32.931966 C17.0433194,32.4145534 16.6238028,31.9952552 16.1063902,31.9952362 Z M124.818266,21.5342355 C122.120797,21.5342355 119.931167,23.7872877 119.931167,26.9920964 C119.931167,30.1654703 122.120797,32.4499833 124.818266,32.4499833 C127.51511,32.4499833 129.704353,30.1654703 129.704353,26.9920964 C129.704353,23.7872877 127.515104,21.5342355 124.818266,21.5342355 Z M143.983148,21.5342355 C141.317635,21.5342355 139.128391,23.7872877 139.128391,26.9920964 C139.128391,30.1654703 141.317645,32.4499833 143.983158,32.4499833 C145.760322,32.4499833 147.34667,31.6253486 148.171957,29.9433138 C148.636629,29.0293127 148.875923,28.0174169 148.869861,26.9920964 C148.872282,25.9570573 148.63332,24.935712 148.171957,24.0091833 C147.34667,22.3280355 145.760322,21.5342355 143.983148,21.5342355 Z M14.6250861,22.2306007 C17.0706078,22.2306007 19.1373209,23.3153486 19.1373209,24.6032616 C19.1373209,25.883792 17.0706078,26.972479 14.6250861,26.972479 C12.1788078,26.972479 10.1090426,25.883792 10.1090426,24.6032616 C10.1090426,23.3153486 12.1788078,22.2306007 14.6250861,22.2306007 Z M52.3247664,11.6026481 C53.3105833,11.5997594 54.1137239,12.3934593 54.1224835,13.3792416 C54.1297867,13.8610769 53.9415903,14.3253196 53.6008301,14.6660557 C53.2600699,15.0067918 52.7958139,15.1949554 52.3139791,15.1876181 C51.3281974,15.1787889 50.5345543,14.3755922 50.5375123,13.3897754 C50.540487,12.4039587 51.3389494,11.6055527 52.3247664,11.6026481 Z M12.285287,4.41440794 C12.5665486,4.41393787 12.8364334,4.52542591 13.0353622,4.72426172 C13.234291,4.92309753 13.3459053,5.19293018 13.345566,5.47419204 C13.345176,6.05885668 12.871082,6.53260388 12.2864173,6.53256527 C11.7017525,6.53252666 11.2277211,6.05871685 11.2274089,5.47405216 C11.2270971,4.88938747 11.7006226,4.41507202 12.285287,4.41440794 Z M16.4644252,3.67092753e-07 C16.9206541,-0.000297677223 17.3582623,0.180902872 17.6807327,0.503637602 C18.0032032,0.826372332 18.1840452,1.26412875 18.1833749,1.72035726 C18.1823864,2.66921454 17.4125971,3.43772747 16.4637395,3.43713983 C15.5148819,3.43655152 14.7460456,2.66708516 14.7462348,1.71822739 C14.7464242,0.769369613 15.5155674,0.000210093701 16.4644252,3.67092753e-07 Z" id="path-1"></path>
    </defs>
    <g id="Symbols" stroke="none" stroke-width="1" fill="none" fill-rule="evenodd">
        <g id="Header/Desktop1/con-selector-de-sucursal" transform="translate(-29.000000, -50.000000)">
            <g id="Group" transform="translate(28.000000, 50.000000)">
                <g id="COLOR/white" transform="translate(1.000000, -0.000001)">
                    <mask id="mask-2" fill="white">
                        <use xlink:href="#path-1"></use>
                    </mask>
                    <use id="Mask" fill="#000000" fill-rule="nonzero" xlink:href="#path-1"></use>
                    <g id="Group" mask="url(#mask-2)">
                        <g transform="translate(-1.000000, 0.000001)" id="COLOR/white">
                            <rect id="Rectangle" fill="#FFFFFF" x="0" y="0" width="154" height="40"></rect>
                        </g>
                    </g>
                </g>
            </g>
        </g>
    </g>
</svg>