<?xml version="1.0" encoding="utf-8"?>
<!-- Generator: Adobe Illustrator 25.0.0, SVG Export Plug-In . SVG Version: 6.00 Build 0)  -->
<svg version="1.1" id="Vinos_y_licores" xmlns="http://www.w3.org/2000/svg" xmlns:xlink="http://www.w3.org/1999/xlink" x="0px"
	 y="0px" viewBox="0 0 53.5 55.3" style="enable-background:new 0 0 53.5 55.3;" xml:space="preserve">
<style type="text/css">
	.st0{fill:none;stroke:#1D1D1B;stroke-width:1.3;stroke-linecap:round;stroke-linejoin:round;}
</style>
<path class="st0" d="M17.8,16.4l-5.6-8.1c0,0-1.6-5.9,3.8-2l5.4,6.5l0.6,0.6l7.5,7"/>
<path class="st0" d="M13,20.4l-6.3-9.1c-0.1-0.1-0.2-0.3-0.2-0.5c-0.2-1.3-0.8-6.7,4.7-2.9C11.2,8,11.3,8,11.4,8.1l6.3,8.4"/>
<path class="st0" d="M7.7,22.6l-5.5-7.1C2.1,15.3,2,15.1,2,15c-0.2-1.2-0.5-6,4.7-2.5c0.1,0.1,0.2,0.2,0.3,0.2l6.1,7.8"/>
<path class="st0" d="M3.6,25.5L3.6,25.5l-2.7-3.9c-0.1-0.1-0.2-0.3-0.2-0.5c-0.1-1.2-0.5-5.6,3.9-2.3c0.1,0.1,0.2,0.2,0.2,0.2
	l2.6,3.6"/>
<path class="st0" d="M29.6,20.4l-4.1-9.9c-0.1-0.2-0.1-0.3-0.1-0.5c0.1-1.3,0.9-6.5,5.3-1.4l2.8,6.3"/>
<path class="st0" d="M37.2,24.6l0.8,4.9c0,0.2,0.2,0.5,0.3,0.6l5.7,5l8.5,7.5c0.5,0.4,0.5,1.1,0.1,1.5c0,0-0.1,0.1-0.1,0.1
	L40.4,54.4c-0.4,0.4-1.1,0.3-1.5-0.1l-6.3-7c-0.4-0.4-0.4-1.1,0.1-1.5L44,35.1"/>
<path class="st0" d="M4.9,43.2c0.4,0.2,0.7,0.6,0.7,1c0,1.6,0.5,5.6,3.5,5.8c3.4,0.3,5.4,1.2,7.6-1.8c0.3-0.5,1-0.6,1.5-0.3
	c0.1,0.1,0.2,0.2,0.3,0.3l1,1.7c0.2,0.3,0.4,0.5,0.7,0.5c2.7,0.6,5.5,0.1,7.8-1.4c0,0,2.8-2,2.8-4.1c0-0.6,0.5-1.1,1.1-1.1
	c0.1,0,0.1,0,0.2,0C33,44,34,44,34.8,43.7c0.2-0.1,0.3-0.3,0.4-0.5c0.6-1.7,3.2-9.5-4-10c-0.5,0-0.9-0.3-1-0.8
	c-0.6-2.3-2.8-9.2-7.5-9.2c0,0-4.4-2.4-9.1,2.4c-0.4,0.4-1.1,0.4-1.5,0c-0.1-0.1-0.1-0.1-0.1-0.2c-1.2-1.8-3.8-4.3-8,0.2
	c-0.1,0.1-0.2,0.3-0.3,0.5c-0.3,1.1-1.3,5.1-0.2,8.4c0.2,0.5,0,1-0.4,1.3C1.4,36.8-2.3,40.2,4.9,43.2z"/>
<circle class="st0" cx="37.6" cy="18.8" r="5.7"/>
<circle class="st0" cx="35.6" cy="4.3" r="3.7"/>
<circle class="st0" cx="46.9" cy="10" r="3.6"/>
</svg>
