<?xml version="1.0" encoding="utf-8"?>
<!-- Generator: Adobe Illustrator 25.0.0, SVG Export Plug-In . SVG Version: 6.00 Build 0)  -->
<svg version="1.1" id="Vinos_y_licores" xmlns="http://www.w3.org/2000/svg" xmlns:xlink="http://www.w3.org/1999/xlink" x="0px"
	 y="0px" viewBox="0 0 52 39.5" style="enable-background:new 0 0 52 39.5;" xml:space="preserve">
<style type="text/css">
	.st0{fill:none;stroke:#1D1D1B;stroke-width:1.3;stroke-linecap:round;stroke-linejoin:round;}
</style>
<ellipse transform="matrix(0.6437 -0.7653 0.7653 0.6437 -17.736 19.0486)" class="st0" cx="11.6" cy="28.6" rx="8.5" ry="12.4"/>
<path class="st0" d="M19.1,38l3.5-2.5l14.5-11.3c4.8-3.1,6.1-9.5,3-14.3c-0.1-0.2-0.2-0.4-0.4-0.5l-0.8-1.1c-3.6-5-9.7-6.2-14.7-2.7
	L5,18.1l-1.8,1.5"/>
<path class="st0" d="M38.2,6.3c0,0,3.4-0.2,4.2-4.6c0,0,5.1-5.2,1.3,7.7c0,0,4.6-1.2,5.9,0c0,0,7.2,5.2-7.7,3.5"/>
</svg>
