<?xml version="1.0" encoding="utf-8"?>
<!-- Generator: Adobe Illustrator 25.0.0, SVG Export Plug-In . SVG Version: 6.00 Build 0)  -->
<svg version="1.1" id="Vinos_y_licores" xmlns="http://www.w3.org/2000/svg" xmlns:xlink="http://www.w3.org/1999/xlink" x="0px"
	 y="0px" viewBox="0 0 49.2 43.8" style="enable-background:new 0 0 49.2 43.8;" xml:space="preserve">
<style type="text/css">
	.st0{fill:none;stroke:#1D1D1B;stroke-width:1.3;stroke-linecap:round;stroke-linejoin:round;}
	.st1{fill:none;stroke:#1D1D1B;stroke-width:1.5;stroke-linecap:round;stroke-linejoin:round;}
</style>
<rect x="0.6" y="23.6" class="st0" width="47.9" height="19.5"/>
<line class="st0" x1="1.6" y1="33.4" x2="9.5" y2="33.4"/>
<line class="st0" x1="18.9" y1="33.4" x2="48.6" y2="33.4"/>
<ellipse class="st0" cx="5.8" cy="12.8" rx="4.2" ry="4.2"/>
<ellipse class="st0" cx="15" cy="12.8" rx="4.2" ry="4.2"/>
<ellipse class="st0" cx="23.4" cy="12.8" rx="4.2" ry="4.2"/>
<path class="st0" d="M13.1,23.6c0.7-0.8,1.2-1.8,1.2-2.9l0,0c-0.1-2.3-2.1-4.1-4.4-4c-2.2,0.1-3.9,1.8-4,4c0,1.1,0.4,2.1,1.2,2.9"/>
<path class="st0" d="M21.5,23.6l0.3-0.4c1.4-1.8,1-4.5-0.8-5.9c0,0,0,0,0,0c-1.9-1.4-4.5-1-5.9,0.8c-0.5,0.7-0.8,1.6-0.8,2.5l0,0
	c0,1.1,0.4,2.1,1.2,2.9"/>
<path class="st0" d="M34.5,23.6c0.5-1.1,0.5-2.3,0-3.4c-1.1-2.2-3.4-3.5-5.8-3.4c-0.2,0-0.4,0-0.7,0c-3.1,0.3-5.5,2.4-5.5,5.1
	c0,0.6,0.1,1.1,0.3,1.7"/>
<path class="st0" d="M28,16.9c-0.3-0.5-0.4-1.1-0.4-1.7c0-2.8,3.2-5.1,7-5.1s7,2.3,7,5.1c0,0.6-0.2,1.3-0.5,1.8l0,0"/>
<path class="st0" d="M36.7,20L36.7,20c-0.7,0.1-1.4,0.2-2.1,0.2h-0.2"/>
<path class="st0" d="M48.2,23.6c0.2-0.5,0.3-1.1,0.3-1.7c0-2.8-2.8-5.1-6.2-5.1c-0.4,0-0.8,0-1.2,0.1l0,0c-1.9,0.2-3.5,1.4-4.4,3
	c-0.3,0.6-0.5,1.3-0.5,2c0,0.6,0.1,1.1,0.3,1.7"/>
<path class="st1" d="M6.7,8.7c0.1-1.3,0.9-3.3,4.4-3.3c0,0,2.5-10.3,6.5,0c0,0,3.9-1.9,4.3,3.5"/>
<path class="st0" d="M34.6,10c0,0-1.7-3.4,2.1-3.4c0,0-0.4-3.8,4.9-2c0,0,2.4,1.5-2.3,3.5c0,0,3.3,1.5,0.7,3.8"/>
</svg>
