<?xml version="1.0" encoding="utf-8"?>
<!-- Generator: Adobe Illustrator 25.0.0, SVG Export Plug-In . SVG Version: 6.00 Build 0)  -->
<svg version="1.1" id="Vinos_y_licores" xmlns="http://www.w3.org/2000/svg" xmlns:xlink="http://www.w3.org/1999/xlink" x="0px"
	 y="0px" viewBox="0 0 66.6 66.6" style="enable-background:new 0 0 66.6 66.6;" xml:space="preserve">
<style type="text/css">
	.st0{fill:none;stroke:#000000;stroke-width:2;stroke-miterlimit:10;}
</style>
<path class="st0" d="M65.6,33.3c0,17.8-14.5,32.3-32.3,32.3S1,51.1,1,33.3S15.5,1,33.3,1S65.6,15.5,65.6,33.3L65.6,33.3z"/>
<path d="M33.3,38.2c-7,0-20.2-1-20.2-4.9s13.2-4.9,20.2-4.9s20.2,1,20.2,4.9S40.3,38.2,33.3,38.2z M33.3,30
	c-4.6-0.1-9.1,0.3-13.6,1.2c-4.2,0.9-5,1.9-5,2.1s0.9,1.2,5,2.1c4.5,0.8,9,1.2,13.6,1.2c4.6,0.1,9.1-0.3,13.6-1.2
	c4.2-0.9,5-1.9,5-2.1s-0.9-1.2-5-2.1C42.4,30.3,37.8,29.9,33.3,30z"/>
<path d="M33.3,46.6c-11.2,0-20.2-6-20.2-13.3S22.1,20,33.3,20s20.2,6,20.2,13.3S44.4,46.6,33.3,46.6z M33.3,21.6
	c-10.3,0-18.7,5.2-18.7,11.7S23,44.9,33.2,44.9s18.6-5.2,18.6-11.7S43.5,21.6,33.3,21.6z"/>
<path d="M33.3,53.5c-4.1,0-5.2-13.2-5.2-20.2S29.1,13,33.3,13s5.2,13.2,5.2,20.2S37.4,53.5,33.3,53.5z M33.3,14.7
	c-1.2,0-3.6,6.6-3.6,18.6s2.4,18.6,3.6,18.6s3.6-6.6,3.6-18.6S34.5,14.7,33.3,14.7z"/>
<path d="M33.3,53.5C26,53.5,20,44.4,20,33.3S26,13,33.3,13s13.3,9.1,13.3,20.2S40.6,53.5,33.3,53.5z M33.3,14.7
	c-6.4,0-11.7,8.4-11.7,18.6s5.2,18.6,11.7,18.6s11.7-8.4,11.7-18.6S39.7,14.7,33.3,14.7z"/>
<path d="M33.3,53.5C22.1,53.5,13,44.5,13,33.3S22.1,13,33.3,13s20.2,9.1,20.2,20.2C53.5,44.5,44.5,53.5,33.3,53.5z M33.3,14.7
	C23,14.7,14.7,23,14.7,33.3S23,51.9,33.3,51.9s18.6-8.3,18.6-18.6c0,0,0,0,0,0C51.9,23,43.6,14.7,33.3,14.7z"/>
</svg>
