<?xml version="1.0" encoding="utf-8"?>
<!-- Generator: Adobe Illustrator 25.0.0, SVG Export Plug-In . SVG Version: 6.00 Build 0)  -->
<svg version="1.1" id="Vinos_y_licores" xmlns="http://www.w3.org/2000/svg" xmlns:xlink="http://www.w3.org/1999/xlink" x="0px"
	 y="0px" viewBox="0 0 28.5 41.3" style="enable-background:new 0 0 28.5 41.3;" xml:space="preserve">
<style type="text/css">
	.st0{fill:none;stroke:#1D1D1B;stroke-miterlimit:10;}
	.st1{fill:none;stroke:#1D1D1B;stroke-width:1.3;stroke-miterlimit:10;}
	.st2{fill:#1D1D1B;}
</style>
<path class="st0" d="M25.6,26.1c-1.1,3.2-5,5.5-9.7,5.5c-5,0-9.2-2.7-9.9-6.2c0-0.1,0-0.2,0-0.3c-0.2-2.1-0.1-4.2,0.3-6.3
	c0.1-0.5,0.2-1,0.2-1.5c0.4-2.5,1-4.8,1.4-6.5c0.4-1.4,0.6-2.3,0.6-2.3h14.8C27.7,21.6,25.6,26.1,25.6,26.1z"/>
<line class="st0" x1="14" y1="31.7" x2="14" y2="40.4"/>
<line class="st0" x1="17.4" y1="31.7" x2="17.4" y2="40.4"/>
<line class="st0" x1="6.2" y1="18.8" x2="25.6" y2="18.8"/>
<line class="st0" x1="19.2" y1="8.7" x2="17.8" y2="18.8"/>
<path class="st0" d="M28.5,0.5h-7.8c0,0-0.8-0.2-1,1.4l-0.5,6.6"/>
<line class="st1" x1="7" y1="40.4" x2="24.5" y2="40.7"/>
<path class="st0" d="M6.6,17.4C2.1,16-0.5,11.2,0.9,6.6c1.4-4.6,6.2-7.1,10.8-5.8c3.3,1,5.7,3.9,6.1,7.4"/>
<line class="st0" x1="3.2" y1="2.7" x2="8.6" y2="8.5"/>
<line class="st0" x1="9.4" y1="0.5" x2="9.2" y2="8.2"/>
<line class="st0" x1="15.1" y1="3" x2="10" y2="8.2"/>
<polyline class="st0" points="3.2,15.5 8.1,8.7 0.2,8.7 "/>
<path class="st2" d="M11.6,8.5h-3c0,0-0.3,0.9-0.6,2.3c-0.3-0.2-0.6-0.5-0.7-0.9C7.1,9.6,7,9.3,7.1,8.9c0-0.1,0-0.2,0-0.3
	c0.1-0.5,0.3-0.9,0.6-1.2c0.4-0.5,1-0.8,1.7-0.8h0.1c0.6,0,1.2,0.2,1.6,0.7C11.3,7.6,11.5,8,11.6,8.5z"/>
</svg>
