<?xml version="1.0" encoding="utf-8"?>
<!-- Generator: Adobe Illustrator 25.0.0, SVG Export Plug-In . SVG Version: 6.00 Build 0)  -->
<svg version="1.1" id="Vinos_y_licores" xmlns="http://www.w3.org/2000/svg" xmlns:xlink="http://www.w3.org/1999/xlink" x="0px"
	 y="0px" viewBox="0 0 47.2 46.9" style="enable-background:new 0 0 47.2 46.9;" xml:space="preserve">
<style type="text/css">
	.st0{fill:none;stroke:#1D1D1B;stroke-width:1.5;stroke-linecap:round;stroke-linejoin:round;}
</style>
<path class="st0" d="M29.8,35.2V20c0-3.4-2.8-6.2-6.2-6.2c0,0,0,0,0,0H6.9c-3.4,0-6.2,2.8-6.2,6.2l0,0v20c0,3.4,2.8,6.2,6.1,6.2
	c0,0,0,0,0,0h16.7"/>
<rect x="8.8" y="1.5" class="st0" width="12.6" height="11.2"/>
<line class="st0" x1="8.8" y1="8.6" x2="21.4" y2="8.6"/>
<polyline class="st0" points="0.8,40 16.9,40 19.2,40 19.2,37.5 24.4,37.5 24.4,35.2 29,35.2 34.1,35.2 34.1,30 45.7,30 45.7,46.2 
	23.6,46.2 "/>
<line class="st0" x1="16.9" y1="40" x2="16.9" y2="45.5"/>
<ellipse class="st0" cx="15.4" cy="27.4" rx="4.3" ry="6.5"/>
<circle class="st0" cx="33.9" cy="5.7" r="5"/>
<circle class="st0" cx="41.4" cy="20.4" r="5"/>
</svg>
