<?xml version="1.0" encoding="utf-8"?>
<!-- Generator: Adobe Illustrator 25.0.0, SVG Export Plug-In . SVG Version: 6.00 Build 0)  -->
<svg version="1.1" id="Vinos_y_licores" xmlns="http://www.w3.org/2000/svg" xmlns:xlink="http://www.w3.org/1999/xlink" x="0px"
	 y="0px" viewBox="0 0 51.3 47.8" style="enable-background:new 0 0 51.3 47.8;" xml:space="preserve">
<style type="text/css">
	.st0{fill:none;stroke:#1D1D1B;stroke-width:1.5;stroke-linecap:round;stroke-linejoin:round;}
</style>
<path class="st0" d="M25.9,18.4c0.1,0,0.1,0,0.2,0c3.5,0,6.7,2.3,7.8,5.7v0.1"/>
<path class="st0" d="M41.3,38.7c0.1,0.4,0.1,0.8,0.1,1.1c0,4-3.8,7.2-8.5,7.2c-0.4,0-0.9,0-1.3-0.1"/>
<path class="st0" d="M33.7,23.8c0,0.1,0.1,0.2,0.1,0.2v0.1c0.6,1.3,2.4,5.5,2.7,6s4.5,4.6,4.7,8.6c0,0.1,0,0.2,0,0.3"/>
<path class="st0" d="M17.3,24.2V24c1.1-3.4,4.2-5.7,7.8-5.7c0.1,0,0.1,0,0.2,0"/>
<path class="st0" d="M9.8,38.7c-0.1,0.4-0.1,0.8-0.1,1.1c0,4,3.8,7.2,8.4,7.2c0.4,0,0.9,0,1.3-0.1"/>
<path class="st0" d="M9.8,39c0-0.1,0-0.2,0-0.3c0.2-3.9,4.4-8.1,4.7-8.6s2.2-4.6,2.7-6V24c0.1-0.2,0.1-0.2,0.1-0.2"/>
<path class="st0" d="M19.5,46.9H33"/>
<ellipse transform="matrix(0.9488 -0.3158 0.3158 0.9488 -6.4189 2.8918)" class="st0" cx="5.7" cy="21.3" rx="4.7" ry="7"/>
<ellipse transform="matrix(0.9833 -0.1819 0.1819 0.9833 -1.1704 3.2742)" class="st0" cx="17.3" cy="8" rx="4.7" ry="7"/>
<ellipse transform="matrix(0.3158 -0.9488 0.9488 0.3158 11.3321 57.5638)" class="st0" cx="45.6" cy="20.9" rx="7" ry="4.7"/>
<ellipse transform="matrix(0.1819 -0.9833 0.9833 0.1819 20.2617 39.7456)" class="st0" cx="34" cy="7.7" rx="7" ry="4.7"/>
</svg>
