<?xml version="1.0" encoding="utf-8"?>
<!-- Generator: Adobe Illustrator 25.0.0, SVG Export Plug-In . SVG Version: 6.00 Build 0)  -->
<svg version="1.1" id="Vinos_y_licores" xmlns="http://www.w3.org/2000/svg" xmlns:xlink="http://www.w3.org/1999/xlink" x="0px"
	 y="0px" viewBox="0 0 66.7 40.9" style="enable-background:new 0 0 66.7 40.9;" xml:space="preserve">
<style type="text/css">
	.st0{fill:none;stroke:#1D1D1B;stroke-width:1.3;stroke-linecap:round;stroke-linejoin:round;}
	.st1{fill:none;stroke:#1D1D1B;stroke-width:1.5;stroke-linecap:round;stroke-linejoin:round;}
</style>
<path class="st0" d="M23.7,21.2c0.1-0.7,0.1-1.4,0.1-2.1c0-7.5-4.2-13.5-9.3-13.5s-9.3,6-9.3,13.5c0,0.7,0,1.4,0.1,2.1"/>
<path class="st0" d="M42.3,21.2c0.1-0.7,0.1-1.4,0.1-2.1c0-7.5-4.2-13.5-9.3-13.5s-9.3,6-9.3,13.5c0,0.7,0,1.4,0.1,2.1"/>
<path class="st0" d="M60.9,21.2c0.1-0.7,0.1-1.4,0.1-2.1c0-7.5-4.2-13.5-9.3-13.5s-9.3,6-9.3,13.5c0,0.7,0.1,1.4,0.2,2.1"/>
<path class="st0" d="M18.8,7.2c0.9-3.8,3.3-6.6,6.3-6.6c2.6,0,4.8,2.2,5.9,5.4"/>
<path class="st0" d="M37.4,7.2c0.9-3.8,3.3-6.6,6.3-6.6c2.6,0,4.9,2.2,5.9,5.4"/>
<polyline class="st1" points="7.5,27.7 0.8,21.2 66,21.2 59.9,27.7 "/>
<path class="st1" d="M7.8,28.1H25l0,0v12.1l0,0H12c-2.3,0-4.2-1.9-4.2-4.2L7.8,28.1L7.8,28.1z"/>
<rect x="25" y="28.1" class="st1" width="17.2" height="12.1"/>
<path class="st1" d="M42.2,28.1h17.2l0,0v7.5c0,2.5-2.1,4.6-4.6,4.6H42.2l0,0V28.1L42.2,28.1z"/>
</svg>
