<?xml version="1.0" encoding="utf-8"?>
<!-- Generator: Adobe Illustrator 25.0.0, SVG Export Plug-In . SVG Version: 6.00 Build 0)  -->
<svg version="1.1" id="Vinos_y_licores" xmlns="http://www.w3.org/2000/svg" xmlns:xlink="http://www.w3.org/1999/xlink" x="0px"
	 y="0px" viewBox="0 0 54.6 60.1" style="enable-background:new 0 0 54.6 60.1;" xml:space="preserve">
<style type="text/css">
	.st0{fill:none;stroke:#1D1D1B;stroke-width:1.5;stroke-linecap:round;stroke-linejoin:round;}
</style>
<path class="st0" d="M7.8,0.8h21.8c1.3,0,2.3,1,2.3,2.3v6.6c0,1.3-1,2.3-2.3,2.3H7.8c-1.3,0-2.3-1-2.3-2.3V3
	C5.5,1.8,6.5,0.8,7.8,0.8z"/>
<path class="st0" d="M1.5,27.8c-0.5,0.9-0.7,2-0.7,3v17.7c0,3.6,2.9,6.5,6.5,6.5h17.3"/>
<path class="st0" d="M34.5,27.8L34.5,27.8c1.3,1.2,2.1,2.9,2.1,4.7v4.3"/>
<path class="st0" d="M35.4,28.8l-6.8-12.5C31.1,20.4,33.4,24.5,35.4,28.8z"/>
<line class="st0" x1="29" y1="16.3" x2="29" y2="12.6"/>
<path class="st0" d="M1.4,27.8l6.2-11.5C5.3,20,3.2,23.9,1.4,27.8z"/>
<line class="st0" x1="7.6" y1="16.3" x2="7.6" y2="12.6"/>
<line class="st0" x1="16" y1="16.6" x2="29" y2="16.6"/>
<line class="st0" x1="1.2" y1="45.8" x2="22.5" y2="45.8"/>
<line class="st0" x1="1.8" y1="27.8" x2="34.5" y2="27.8"/>
<line class="st0" x1="18.5" y1="32.6" x2="18.5" y2="42.6"/>
<line class="st0" x1="12.7" y1="37.6" x2="24" y2="37.6"/>
<path class="st0" d="M51.8,36.4l0.6,0.9c2.5,3.7,1.5,8.8-2.2,11.3L36.3,58c-3.7,2.5-8.8,1.5-11.3-2.2l-0.6-0.9
	c-2.5-3.7-1.5-8.8,2.2-11.3l13.9-9.4C44.3,31.7,49.3,32.7,51.8,36.4z"/>
<path class="st0" d="M33.2,39.2c0,0,9,9,9.3,13.8"/>
</svg>
