<?xml version="1.0" encoding="utf-8"?>
<!-- Generator: Adobe Illustrator 25.0.0, SVG Export Plug-In . SVG Version: 6.00 Build 0)  -->
<svg version="1.1" id="Capa_1" xmlns="http://www.w3.org/2000/svg" xmlns:xlink="http://www.w3.org/1999/xlink" x="0px" y="0px"
	 viewBox="0 0 42.1 46.9" style="enable-background:new 0 0 42.1 46.9;" xml:space="preserve">
<style type="text/css">
	.st0{fill:none;stroke:#1D1D1B;stroke-width:1.3;stroke-linecap:round;stroke-linejoin:round;}
	.st1{fill:none;stroke:#1D1D1B;stroke-width:1.3;stroke-linecap:round;stroke-miterlimit:10;}
</style>
<g id="lacteos">
	<circle class="st0" cx="38.8" cy="30.5" r="0.3"/>
	<path class="st1" d="M19.9,21.7c0-4,0-7.1-0.1-7.6c-0.2-1.4-3.2-4.6-3.2-4.6V0.9c-3.5-0.3-7-0.3-10.5,0L6,1.3v8.1
		c0,0-3.1,3.2-3.2,4.5s0,25.5,0,25.5s-0.4,2.7,4.3,4.3"/>
	<polyline class="st1" points="1.7,3.7 5.3,5.7 0.6,10.2 	"/>
	<path class="st1" d="M6.4,6c3.3,0.7,6.6,0.7,9.9,0"/>
	<path class="st1" d="M6,9.5c0,0,5.7,2,10.6,0"/>
	<path class="st0" d="M37.2,25.7c2.7,0.8,4.3,2,4.3,3.2c0,2.6-7,4.7-15.5,4.7s-15.5-2.1-15.5-4.7s7-4.7,15.5-4.7c0.8,0,1.6,0,2.4,0"
		/>
	<path class="st0" d="M41.5,29.7v12.7c-15.4,8.8-31.2,0-31.2,0V29.7"/>
	<path class="st0" d="M28.3,24.3c-0.1,0.2-0.2,0.5-0.2,0.8c0,1.5,2.1,2.6,4.6,2.6c2.2,0,4-0.8,4.4-2"/>
	<path class="st0" d="M23.1,33.5c0.1-0.3,0.1-0.6,0.1-0.8c0-1.9-1.9-3.5-4.3-3.5c-2.2,0-3.9,1.3-4.2,2.9"/>
	<circle class="st0" cx="28.5" cy="30.6" r="0.1"/>
	<circle class="st0" cx="23.4" cy="26.8" r="0.1"/>
	<circle class="st0" cx="14.7" cy="26.7" r="0.1"/>
</g>
</svg>
