<?xml version="1.0" encoding="utf-8"?>
<!-- Generator: Adobe Illustrator 25.0.0, SVG Export Plug-In . SVG Version: 6.00 Build 0)  -->
<svg version="1.1" id="Vinos_y_licores" xmlns="http://www.w3.org/2000/svg" xmlns:xlink="http://www.w3.org/1999/xlink" x="0px"
	 y="0px" viewBox="0 0 28.5 44.5" style="enable-background:new 0 0 28.5 44.5;" xml:space="preserve">
<style type="text/css">
	.st0{fill:none;stroke:#1D1D1B;stroke-width:1.3;stroke-linecap:round;stroke-linejoin:round;}
</style>
<circle class="st0" cx="14.4" cy="15.6" r="9.3"/>
<path class="st0" d="M12.2,2.4c0,0,2.7-4,5.2,0c0,0,1.1,1.2-1.5,3.9"/>
<path class="st0" d="M21.8,22.4c0,0,5.2,4.5,6,8.5c0,0-0.3,3.8-2.2,3.6h-1.5"/>
<path class="st0" d="M7.1,22.4c0,0-5.2,4.5-6,8.5c0,0,0.3,3.8,2.2,3.6h1.5"/>
<path class="st0" d="M2.6,41.8c0,0-4.1-3.2-0.3-6.2c0,0,4-3,6,2.4c0,0,2.2,3.2,0.1,5.2C8.3,43.2,6.2,45.4,2.6,41.8z"/>
<path class="st0" d="M25.8,41.8c0,0,4.1-3.2,0.3-6.2c0,0-4-3-6,2.4c0,0-2.2,3.2-0.1,5.2C20.1,43.2,22.2,45.4,25.8,41.8z"/>
<path class="st0" d="M5.1,34.8c0-0.1,0-0.2,0-0.3c0-2.1,1.7-3.8,3.8-3.8h11c1,0,2,0.4,2.7,1.1c0.7,0.7,1.1,1.7,1.1,2.7
	c0,0.1,0,0.2,0,0.3"/>
<path class="st0" d="M17.8,42.3c0,0.5-0.3,0.9-0.7,1.1c-0.5,0.3-1,0.5-1.6,0.5h-2.8c-1.2,0-2.2-0.7-2.2-1.6"/>
<line class="st0" x1="7.1" y1="28.5" x2="6.6" y2="31.4"/>
<line class="st0" x1="21.3" y1="28.5" x2="21.8" y2="31.2"/>
<line class="st0" x1="14.9" y1="35.2" x2="6.2" y2="35.2"/>
<path class="st0" d="M9.2,15.1c0,0,1.8-1.6,3,0"/>
<path class="st0" d="M19.9,15.1c0,0-1.8-1.6-3,0"/>
<path class="st0" d="M12.2,18.5c0,0-0.2,1.7,2.2,1.7c0,0,2.1,0.2,2.1-1.7"/>
</svg>
