<?xml version="1.0" encoding="utf-8"?>
<!-- Generator: Adobe Illustrator 25.0.0, SVG Export Plug-In . SVG Version: 6.00 Build 0)  -->
<svg version="1.1" id="Vinos_y_licores" xmlns="http://www.w3.org/2000/svg" xmlns:xlink="http://www.w3.org/1999/xlink" x="0px"
	 y="0px" viewBox="0 0 46.3 38.6" style="enable-background:new 0 0 46.3 38.6;" xml:space="preserve">
<style type="text/css">
	.st0{fill:none;stroke:#1D1D1B;stroke-width:1.3;stroke-linecap:round;stroke-linejoin:round;}
</style>
<path class="st0" d="M15.8,3.9C8.9,4,3.4,9.7,3.5,16.7c-0.1,6.9,5.4,12.6,12.3,12.8c5.2,0,9.7-3.3,11.5-8.2c0.1-0.3,0.2-0.7,0.3-1.1
	c0,0,0-0.1,0-0.1c0.1-0.3,0.2-0.7,0.2-1"/>
<path class="st0" d="M15.8,3.9h21.1c0,0,4.7,0.1,5,4.2s-0.7,5-4.7,5.3s-4.1-0.2-7,2.2s-2.2,4-3,5.8"/>
<path class="st0" d="M15.6,0.6c-7.9,0-14.2,7.2-14.2,16s6.4,16,14.2,16c6.1,0,11.3-4.3,13.3-10.3"/>
<path class="st0" d="M15.4,0.7h21.1c0,0,7.9,0.5,8.3,5.6s-0.9,9.7-5.5,10.1s-3.9-0.6-7.5,1.8c-1.4,1.1-2.4,2.7-2.9,4.4"/>
<path class="st0" d="M1.9,12.1c0,0-3.8,12.7,1.6,19.5c0,0,6,6.4,12.3,6.4c4.5,0,8.8-2,11.7-5.4c0,0,2.9-3.4,3.2-6.2s3.1-3.8,4.3-4.2
	s4.2,0.8,7.4-1.5s4.4-11.1,2.4-15"/>
</svg>
