<?xml version="1.0" encoding="UTF-8"?>
<svg width="20px" height="20px" viewBox="0 0 20 20" version="1.1" xmlns="http://www.w3.org/2000/svg" xmlns:xlink="http://www.w3.org/1999/xlink">
    <defs>
        <path d="M10,0 C15.5228475,0 20,4.4771525 20,10 C20,15.5228475 15.5228475,20 10,20 C4.4771525,20 0,15.5228475 0,10 C0,4.4771525 4.4771525,0 10,0 Z M10,1.66666667 C5.39762709,1.66666667 1.66666667,5.39762709 1.66666667,10 C1.66666667,14.6023729 5.39762709,18.3333333 10,18.3333333 C14.6023729,18.3333333 18.3333333,14.6023729 18.3333333,10 C18.3333333,5.39762709 14.6023729,1.66666667 10,1.66666667 Z M10.2166667,13.45 C10.5611128,13.45 10.8444433,13.5583323 11.0666667,13.775 C11.28889,13.9916678 11.4,14.2722205 11.4,14.6166667 C11.4,14.9611128 11.28889,15.2444433 11.0666667,15.4666667 C10.8444433,15.68889 10.5611128,15.8 10.2166667,15.8 C9.8722205,15.8 9.59166775,15.68889 9.375,15.4666667 C9.15833225,15.2444433 9.05,14.9611128 9.05,14.6166667 C9.05,14.2722205 9.15833225,13.9916678 9.375,13.775 C9.59166775,13.5583323 9.8722205,13.45 10.2166667,13.45 Z M11.0833333,4.16666667 C11.1388892,4.16666667 11.1861109,4.18611092 11.225,4.225 C11.2638891,4.26388908 11.2833333,4.31111083 11.2833333,4.36666667 L11.1,11.7 C11.1,11.7555558 11.0805558,11.8027776 11.0416667,11.8416667 C11.0027776,11.8805558 10.9555558,11.9 10.9,11.9 L9.73333333,11.9 C9.6777775,11.9 9.63055575,11.8805558 9.59166667,11.8416667 C9.55277758,11.8027776 9.53333333,11.7555558 9.53333333,11.7 L9.35,4.36666667 C9.35,4.31111083 9.36944425,4.26388908 9.40833333,4.225 C9.44722242,4.18611092 9.49444417,4.16666667 9.55,4.16666667 L11.0833333,4.16666667 Z" id="alert-path-1"></path>
    </defs>
    <g id="alert-Producto" stroke="none" stroke-width="1" fill="none" fill-rule="evenodd">
        <mask id="alert-mask-2" fill="white">
            <use xlink:href="#alert-path-1"></use>
        </mask>
        <use id="alert-icn_alert" fill="#000000" fill-rule="nonzero" xlink:href="#alert-path-1"></use>
    </g>
</svg>