<?xml version="1.0" encoding="UTF-8"?>
<svg width="46px" height="46px" viewBox="0 0 46 46" version="1.1" xmlns="http://www.w3.org/2000/svg" xmlns:xlink="http://www.w3.org/1999/xlink">
    <!-- Generator: Sketch 54.1 (76490) - https://sketchapp.com -->
    <title>ICON/cart-full</title>
    <desc>Created with Sketch.</desc>
    <defs>
        <path d="M10.7801122,18.0435516 L19.8102633,5 L21.0435516,5.85381497 L12.6045032,18.0435516 L33.3954968,18.0435516 L24.9564484,5.85381497 L26.1897367,5 L35.2198878,18.0435516 L41.6,18.0435516 C41.8209139,18.0435516 42,18.2226377 42,18.4435516 L42,23.6435516 C42,23.8644655 41.8209139,24.0435516 41.6,24.0435516 L38.7840756,24.0435516 L37.2956633,37.8299701 C37.0983046,39.658005 35.5551198,41.0435516 33.7164622,41.0435516 L12.2835378,41.0435516 C10.4448802,41.0435516 8.90169537,39.658005 8.70433668,37.8299701 L7.21592443,24.0435516 L4.4,24.0435516 C4.1790861,24.0435516 4,23.8644655 4,23.6435516 L4,18.4435516 C4,18.2226377 4.1790861,18.0435516 4.4,18.0435516 L10.7801122,18.0435516 Z M8.72464098,24.0435516 L10.1956705,37.6689624 C10.3107964,38.7353161 11.2109875,39.5435516 12.2835378,39.5435516 L33.7164622,39.5435516 C34.7890125,39.5435516 35.6892036,38.7353161 35.8043295,37.6689624 L37.275359,24.0435516 L8.72464098,24.0435516 Z M5.5,22.5435516 L40.5,22.5435516 L40.5,19.5435516 L5.5,19.5435516 L5.5,22.5435516 Z" id="cartFull-path-1"></path>
    </defs>
    <g id="cartFull-Home-" stroke="none" stroke-width="1" fill="none" fill-rule="evenodd">
        <mask id="cartFull-mask-2" fill="white">
            <use xlink:href="#cartFull-path-1"></use>
        </mask>
        <use id="cartFull-ICON/cart-full" fill="#262626" fill-rule="nonzero" xlink:href="#cartFull-path-1"></use>
    </g>
</svg>