<?xml version="1.0" encoding="UTF-8"?>
<svg width="46px" height="46px" viewBox="0 0 46 46" version="1.1" xmlns="http://www.w3.org/2000/svg" xmlns:xlink="http://www.w3.org/1999/xlink">
    <!-- Generator: Sketch 55.2 (78181) - https://sketchapp.com -->
    <title>icn_cupon</title>
    <desc>Created with Sketch.</desc>
    <defs>
        <path d="M4.88636364,37 C4.39886364,37 4,36.60625 4,36.125 L4,29.5625 C4,29.08125 4.39886364,28.6875 4.88636364,28.6875 C8.07727273,28.6875 10.6477273,26.15 10.6477273,23 C10.6477273,19.85 8.07727273,17.3125 4.88636364,17.3125 C4.39886364,17.3125 4,16.91875 4,16.4375 L4,9.875 C4,9.39375 4.39886364,9 4.88636364,9 L42.1136364,9 C42.6011364,9 43,9.39375 43,9.875 L43,36.125 C43,36.60625 42.6011364,37 42.1136364,37 L4.88636364,37 Z M5.77272727,10.75 L5.86136364,10.75 L5.86136364,15.5625 C5.99431818,15.60625 6.12727273,15.60625 6.26022727,15.65 C6.34886364,15.65 6.4375,15.69375 6.52613636,15.69375 C6.74772727,15.7375 6.925,15.825 7.14659091,15.86875 C7.19090909,15.86875 7.19090909,15.86875 7.23522727,15.86875 C7.45681818,15.95625 7.67840909,16.04375 7.9,16.13125 C7.94431818,16.175 7.98863636,16.175 8.07727273,16.21875 C8.21022727,16.30625 8.3875,16.35 8.52045455,16.4375 C8.60909091,16.48125 8.65340909,16.525 8.74204545,16.56875 C8.83068182,16.65625 8.96363636,16.7 9.09659091,16.7875 C9.14090909,16.83125 9.22954545,16.91875 9.31818182,16.9625 C9.40681818,17.05 9.53977273,17.1375 9.62840909,17.225 C9.71704545,17.26875 9.76136364,17.35625 9.85,17.4 C9.98295455,17.4875 10.0715909,17.575 10.1602273,17.6625 C10.2488636,17.75 10.2931818,17.79375 10.3818182,17.88125 C10.4704545,18.0125 10.5590909,18.1 10.6477273,18.1875 C10.6920455,18.23125 10.7806818,18.31875 10.825,18.40625 C10.9136364,18.49375 10.9579545,18.625 11.0465909,18.7125 C11.0909091,18.8 11.1795455,18.8875 11.2238636,18.975 C11.3125,19.10625 11.4011364,19.19375 11.4454545,19.325 C11.4897727,19.4125 11.5340909,19.5 11.5784091,19.5875 C11.6227273,19.71875 11.7113636,19.80625 11.7556818,19.9375 C11.8,20.025 11.8443182,20.1125 11.8886364,20.2 C11.9329545,20.33125 11.9772727,20.4625 12.0215909,20.59375 C12.0659091,20.68125 12.0659091,20.76875 12.1102273,20.85625 C12.1102273,21.03125 12.1545455,21.1625 12.1988636,21.29375 C12.1988636,21.38125 12.2431818,21.46875 12.2431818,21.55625 C12.2875,21.73125 12.3318182,21.8625 12.3318182,22.0375 C12.3318182,22.08125 12.3761364,22.16875 12.3761364,22.25625 C12.4204545,22.51875 12.4204545,22.7375 12.4204545,23 C12.4204545,23.2625 12.4204545,23.48125 12.2875,23.7 C12.2875,23.74375 12.2431818,23.83125 12.2431818,23.91875 C12.1988636,24.09375 12.1988636,24.225 12.1545455,24.4 C12.1545455,24.4875 12.1102273,24.575 12.1102273,24.6625 C12.1102273,24.8375 12.0659091,24.96875 12.0215909,25.1 C12.0215909,25.1875 11.9772727,25.275 11.9329545,25.3625 C11.8886364,25.49375 11.8443182,25.625 11.8,25.75625 C11.7556818,25.84375 11.7113636,25.93125 11.6670455,26.01875 C11.6227273,26.15 11.5340909,26.2375 11.4897727,26.36875 C11.4454545,26.45625 11.4011364,26.54375 11.3568182,26.63125 C11.2681818,26.7625 11.2238636,26.89375 11.1352273,26.98125 C11.0909091,27.06875 11.0022727,27.15625 10.9579545,27.24375 C10.9136364,27.33125 10.825,27.4625 10.7363636,27.55 C10.6920455,27.59375 10.6477273,27.68125 10.5590909,27.76875 C10.4704545,27.9 10.3818182,27.9875 10.2931818,28.075 C10.2045455,28.1625 10.1602273,28.20625 10.0715909,28.29375 C9.98295455,28.38125 9.85,28.46875 9.76136364,28.55625 C9.67272727,28.6 9.62840909,28.6875 9.53977273,28.73125 C9.45113636,28.81875 9.3625,28.90625 9.22954545,28.99375 C9.18522727,29.0375 9.09659091,29.125 9.00795455,29.16875 C8.91931818,29.25625 8.78636364,29.3 8.65340909,29.3875 C8.56477273,29.43125 8.52045455,29.475 8.43181818,29.51875 C8.29886364,29.60625 8.12159091,29.65 7.98863636,29.7375 C7.94431818,29.78125 7.9,29.78125 7.81136364,29.825 C7.58977273,29.95625 7.36818182,30 7.14659091,30.0875 C7.10227273,30.0875 7.10227273,30.0875 7.05795455,30.0875 C6.83636364,30.175 6.65909091,30.21875 6.4375,30.2625 C6.34886364,30.2625 6.26022727,30.30625 6.17159091,30.30625 C6.03863636,30.35 5.90568182,30.39375 5.77272727,30.39375 L5.77272727,35.25 L14.6363636,35.25 L14.6363636,34.375 C14.6363636,33.89375 15.0352273,33.5 15.5227273,33.5 C16.0102273,33.5 16.4090909,33.89375 16.4090909,34.375 L16.4090909,35.25 L41.2272727,35.25 L41.2272727,10.75 L16.4090909,10.75 L16.4090909,11.625 C16.4090909,12.10625 16.0102273,12.5 15.5227273,12.5 C15.0352273,12.5 14.6363636,12.10625 14.6363636,11.625 L14.6363636,10.75 L5.77272727,10.75 Z M35.0227273,24.3125 C35.8647727,24.3125 36.6181818,24.61875 37.1943182,25.23125 C37.8147727,25.8 38.125,26.5875 38.125,27.375 C38.125,28.1625 37.7704545,28.95 37.1943182,29.51875 C36.6181818,30.13125 35.8204545,30.4375 35.0227273,30.4375 C34.225,30.4375 33.4272727,30.0875 32.8511364,29.51875 C32.2306818,28.95 31.9204545,28.20625 31.9204545,27.375 C31.9204545,26.54375 32.2306818,25.8 32.8511364,25.23125 C33.4272727,24.61875 34.1806818,24.3125 35.0227273,24.3125 Z M35.9534091,28.29375 C36.2193182,28.075 36.3522727,27.725 36.3522727,27.375 C36.3522727,27.025 36.2193182,26.71875 35.9534091,26.45625 C35.7318182,26.19375 35.3772727,26.0625 35.0227273,26.0625 C34.6681818,26.0625 34.3579545,26.19375 34.0920455,26.45625 C33.8261364,26.675 33.6931818,27.025 33.6931818,27.375 C33.6931818,27.725 33.8261364,28.075 34.0920455,28.29375 C34.5795455,28.775 35.4659091,28.775 35.9534091,28.29375 Z M26.1590909,21.6875 C25.3170455,21.6875 24.5636364,21.38125 23.9875,20.76875 C23.3670455,20.2 23.0568182,19.45625 23.0568182,18.625 C23.0568182,17.79375 23.3670455,17.05 23.9875,16.48125 C24.5636364,15.86875 25.3170455,15.5625 26.1590909,15.5625 C27.0011364,15.5625 27.7545455,15.86875 28.3306818,16.48125 C28.9511364,17.05 29.2613636,17.8375 29.2613636,18.625 C29.2613636,19.4125 28.9068182,20.2 28.3306818,20.76875 C27.7545455,21.38125 27.0011364,21.6875 26.1590909,21.6875 Z M25.2284091,17.70625 C24.9625,17.925 24.8295455,18.275 24.8295455,18.625 C24.8295455,18.975 24.9625,19.325 25.2284091,19.54375 C25.7159091,20.025 26.6022727,20.025 27.0897727,19.54375 C27.3556818,19.325 27.4886364,18.975 27.4886364,18.625 C27.4886364,18.275 27.3556818,17.96875 27.0897727,17.70625 C26.8681818,17.44375 26.5136364,17.3125 26.1590909,17.3125 C25.8045455,17.3125 25.4943182,17.44375 25.2284091,17.70625 Z M24.2090909,29.3 C23.8545455,28.95 23.8545455,28.425 24.2090909,28.075 L35.7318182,16.7 C36.0863636,16.35 36.6181818,16.35 36.9727273,16.7 C37.3272727,17.05 37.3272727,17.575 36.9727273,17.925 L25.45,29.3 C25.2727273,29.475 25.0511364,29.5625 24.8295455,29.5625 C24.6079545,29.5625 24.3863636,29.475 24.2090909,29.3 Z M15.5227273,17.75 C15.0352273,17.75 14.6363636,17.35625 14.6363636,16.875 L14.6363636,14.6875 C14.6363636,14.20625 15.0352273,13.8125 15.5227273,13.8125 C16.0102273,13.8125 16.4090909,14.20625 16.4090909,14.6875 L16.4090909,16.875 C16.4090909,17.35625 16.0102273,17.75 15.5227273,17.75 Z M15.5227273,22.5625 C15.0352273,22.5625 14.6363636,22.16875 14.6363636,21.6875 L14.6363636,19.5 C14.6363636,19.01875 15.0352273,18.625 15.5227273,18.625 C16.0102273,18.625 16.4090909,19.01875 16.4090909,19.5 L16.4090909,21.6875 C16.4090909,22.16875 16.0102273,22.5625 15.5227273,22.5625 Z M15.5227273,27.375 C15.0352273,27.375 14.6363636,26.98125 14.6363636,26.5 L14.6363636,24.3125 C14.6363636,23.83125 15.0352273,23.4375 15.5227273,23.4375 C16.0102273,23.4375 16.4090909,23.83125 16.4090909,24.3125 L16.4090909,26.5 C16.4090909,26.98125 16.0102273,27.375 15.5227273,27.375 Z M15.5227273,32.1875 C15.0352273,32.1875 14.6363636,31.79375 14.6363636,31.3125 L14.6363636,29.125 C14.6363636,28.64375 15.0352273,28.25 15.5227273,28.25 C16.0102273,28.25 16.4090909,28.64375 16.4090909,29.125 L16.4090909,31.3125 C16.4090909,31.79375 16.0102273,32.1875 15.5227273,32.1875 Z" id="coupon-path-1"></path>
    </defs>
    <g id="coupon-Carrito" stroke="none" stroke-width="1" fill="none" fill-rule="evenodd">
        <mask id="coupon-mask-2" fill="white">
            <use xlink:href="#coupon-path-1"></use>
        </mask>
        <use id="coupon-icn_cupon" fill="#000000" fill-rule="nonzero" xlink:href="#coupon-path-1"></use>
    </g>
</svg>