<svg xmlns="http://www.w3.org/2000/svg" viewBox="0 0 318.17287 67.79966"><defs><style>.cls-1{fill:#1db779;}</style></defs><title>logo_fizzmod</title><g id="fizzmod-Layer_2" data-name="fizzmod-Layer 2"><g id="fizzmod-Layer_1-2" data-name="fizzmod-Layer 1"><path class="cls-1" d="M32.499,29.24245c-5.43355,0-10.0309,2.41031-10.0309,5.27277,0,2.84526,4.59735,5.26575,10.0309,5.26575,5.43706,0,10.02423-2.42049,10.02423-5.26575C42.52327,31.65276,37.9361,29.24245,32.499,29.24245Z"/><path class="cls-1" d="M62.02619,44.88207,43.03053,16.61975V3.877h2.31412a1.9385,1.9385,0,1,0,0-3.877H19.92759a1.9385,1.9385,0,0,0,0,3.877h2.31412V16.61975L3.30784,44.78273c-.18535.25381-4.54575,6.10546-2.96216,11.95746.89834,3.322,3.43853,5.87938,7.43945,7.53879.28786.14042,7.25409,3.52068,24.85433,3.52068,17.60058,0,24.5598-3.38026,24.73146-3.4624,4.11044-1.71769,6.65731-4.27509,7.55565-7.59707C66.50348,50.88819,62.14274,45.03654,62.02619,44.88207ZM61.176,55.74285c-.57221,2.1049-2.35519,3.78116-5.40968,5.06671-.06143.02738-6.61624,3.1096-23.12681,3.1096-16.5169,0-23.065-3.08222-23.24336-3.16437C6.45149,59.524,4.66184,57.83722,4.09279,55.74285c-1.097-4.0146,2.2762-8.574,2.37239-8.70779L25.7831,18.29286a1.89985,1.89985,0,0,0,.33245-1.07632V3.877H39.1567V17.21654a1.94543,1.94543,0,0,0,.32577,1.07632L58.86534,47.12072C58.90325,47.16881,62.27649,51.73843,61.176,55.74285Z"/><path class="cls-1" d="M53.785,48.10822a1.22024,1.22024,0,0,1-.10286-.14428l-7.477-11.12442a7.53681,7.53681,0,0,1-3.35639,4.52854,4.03452,4.03452,0,0,1,1.80334,3.2911,4.076,4.076,0,1,1-8.15208,0,3.8814,3.8814,0,0,1,.17483-.8671,22.5458,22.5458,0,0,1-4.17574.39423c-7.134,0-12.83509-3.14716-13.706-7.34677L11.32652,47.96394a1.40166,1.40166,0,0,0-.12006.16113c-.61047.833-2.28323,3.74044-1.68679,5.86569.343,1.22727,1.52566,2.26954,3.514,3.09907.07547.03792.14744.07548.22291.10988.00667.007,5.49885,2.49912,19.24245,2.49912,13.75062,0,19.23577-2.4921,19.29054-2.523.06529-.03791.10286-.04809.18184-.086,1.98835-.82953,3.16752-1.8718,3.514-3.09907C56.06817,51.86551,54.40876,48.95811,53.785,48.10822Z"/><path class="cls-1" d="M92.83573,24.84064V21.6352c0-5.00492,0-6.16022,1.92656-9.30422,2.05013-3.39711,5.38932-4.55242,9.174-4.55242a7.05673,7.05673,0,0,1,3.78467.96328v5.132a5.4852,5.4852,0,0,0-4.62122-.19553C99.95958,15.09093,99.4453,16.373,99.4453,21.6352v3.20544H107.721V30.23H99.4453V56.53131H92.83573V30.23"/><path class="cls-1" d="M117.72446,16.88725a3.62384,3.62384,0,1,1,3.65478-3.65443A3.60115,3.60115,0,0,1,117.72446,16.88725Zm3.33919,39.64406h-6.60957V24.84064h6.60957Z"/><path class="cls-1" d="M152.48682,30.48341,136.51827,51.142h15.96855v5.38932H129.71668V50.501L145.62345,30.23H129.71668V24.84064h22.77014Z"/><path class="cls-1" d="M182.9569,30.48341,166.988,51.142H182.9569v5.38932H160.1864V50.501L176.09352,30.23H160.1864V24.84064h22.7705Z"/><path class="cls-1" d="M219.77606,56.53131h-6.67135l.06143-.25732V38.88614c0-6.41087-1.66608-9.23577-7.11683-9.23577-6.15707,0-8.33744,4.29931-8.33744,9.8803V56.53131h-6.60956V24.84064h6.60956v5.132c.89834-2.82455,4.55277-5.389,8.33744-5.64629,6.22551-.44548,10.648,1.60465,12.63639,6.73665,1.35084-4.36426,5.64979-6.47933,9.366-6.73665,8.59791-.641,13.7264,3.5277,13.7264,13.92229V56.53131h-6.60957V38.88614c0-6.41087-1.66608-9.23577-7.11683-9.23577-5.51956,0-7.82315,3.46592-8.27565,8.59827Z"/><path class="cls-1" d="M280.77764,40.75127a16.48636,16.48636,0,1,1-16.48987-16.48635A16.22761,16.22761,0,0,1,280.77764,40.75127Zm-26.36981,0c0,6.41052,4.42919,11.02858,9.87994,11.02858,5.4511,0,9.8803-4.61806,9.8803-11.02858,0-6.47968-4.4292-11.0356-9.8803-11.0356C258.837,29.71567,254.40783,34.27159,254.40783,40.75127Z"/><path class="cls-1" d="M302.38932,24.26492a15.98877,15.98877,0,0,1,9.1122,3.07835V8.42309h6.67135V56.53131h-6.67135v-2.3759a15.96088,15.96088,0,0,1-9.1122,3.01692c-9.10553,0-15.84534-6.99362-15.84534-16.42106C286.544,31.32,293.28379,24.26492,302.38932,24.26492Zm.64453,27.51493a9.0433,9.0433,0,0,0,8.46767-5.06354,13.0009,13.0009,0,0,0,1.41227-5.965,13.44568,13.44568,0,0,0-1.41227-6.03033,8.9919,8.9919,0,0,0-8.46767-5.00527c-5.38932,0-9.81185,4.55592-9.81185,11.0356C293.222,47.16179,297.64453,51.77985,303.03385,51.77985Z"/></g></g></svg>