<?xml version="1.0" encoding="UTF-8"?>
<svg width="46px" height="46px" viewBox="0 0 46 46" version="1.1" xmlns="http://www.w3.org/2000/svg" xmlns:xlink="http://www.w3.org/1999/xlink">
    <!-- Generator: Sketch 54.1 (76490) - https://sketchapp.com -->
    <title>ICON/login</title>
    <desc>Created with Sketch.</desc>
    <defs>
        <path d="M22.9253333,7.26333333 C19.5125585,7.26333333 16.7413333,9.97409756 16.7413333,13.3333333 C16.7413333,16.7202247 19.5031664,19.4766667 22.9253333,19.4766667 C26.3623416,19.4766667 29.1466667,16.7420617 29.1466667,13.37 C29.1466667,9.99793828 26.3623416,7.26333333 22.9253333,7.26333333 Z M22.9253333,5.8 C27.16627,5.8 30.592,9.17619836 30.592,13.3333333 C30.592,17.4779383 27.1416584,20.8666667 22.9253333,20.8666667 C18.7090083,20.8666667 15.2586667,17.4779383 15.2586667,13.3333333 C15.2586667,9.17619836 18.6843967,5.8 22.9253333,5.8 Z M22.888,22.6766667 C30.5588517,22.6766667 36.7880755,28.9438735 36.864,36.7 C36.864,37.2408776 36.8451439,37.780607 36.7797914,38.3605879 C36.7706681,38.4415544 36.7607807,38.5205763 36.7509713,38.5902589 C36.6648565,39.4360291 35.9356176,40.1266667 35.0956987,40.1266664 L10.7546667,40.09 C9.88832744,40.09 9.1408083,39.4073502 9.09866667,38.5333333 L9.10026708,38.5219175 C9.03237291,37.9884633 8.98666667,37.2814448 8.98666667,36.8833333 C8.98666667,29.1580134 15.3366062,22.6766667 22.888,22.6766667 Z M22.888,24.14 C16.125218,24.14 10.4313974,29.9580906 10.3946667,36.92 C10.3946667,37.241655 10.448095,38.225548 10.5038477,38.4998723 C10.5258139,38.6293157 10.5977833,38.7 10.6803013,38.7000002 L35.0213333,38.7366667 C35.0884047,38.7366667 35.1752275,38.6453034 35.2008472,38.5206641 C35.2530152,38.3157184 35.3066667,37.1564644 35.3066667,36.7366667 C35.3066667,29.7818901 29.7328245,24.14 22.888,24.14 Z M18.9866667,33.8 L26.9866667,33.8 L26.9866667,35.3 L18.9866667,35.3 L18.9866667,33.8 Z" id="path-1"></path>
    </defs>
    <g id="Home-" stroke="none" stroke-width="1" fill="none" fill-rule="evenodd">
        <mask id="mask-2" fill="white">
            <use xlink:href="#path-1"></use>
        </mask>
        <use id="ICON/login" fill="#000000" fill-rule="nonzero" xlink:href="#path-1"></use>
    </g>
</svg>