<?xml version="1.0" encoding="utf-8"?>
<!-- Generator: Adobe Illustrator 16.0.0, SVG Export Plug-In . SVG Version: 6.00 Build 0)  -->
<!DOCTYPE svg PUBLIC "-//W3C//DTD SVG 1.1//EN" "http://www.w3.org/Graphics/SVG/1.1/DTD/svg11.dtd">
<svg version="1.1" id="Layer_1" xmlns="http://www.w3.org/2000/svg" xmlns:xlink="http://www.w3.org/1999/xlink" x="0px" y="0px"
	 width="240px" height="65px" viewBox="0 0 240 65" enable-background="new 0 0 240 65" xml:space="preserve">
<path d="M64.444,31.461v-2.467c0-3.848,0-4.736,1.48-7.154c1.578-2.613,4.145-3.504,7.055-3.504c1.332,0,2.269,0.346,2.911,0.742
	v3.947c-0.741-0.346-1.974-0.791-3.554-0.148c-2.416,1.086-2.811,2.072-2.811,6.117v2.467h6.364v4.145h-6.364v20.229h-5.082V35.605
	 M83.585,25.344c-1.529,0-2.764-1.234-2.764-2.812c0-1.529,1.234-2.762,2.764-2.762c1.58,0,2.812,1.232,2.812,2.762
	C86.397,24.109,85.165,25.344,83.585,25.344z M86.151,55.834h-5.082V31.461h5.082V55.834z M110.324,35.803L98.039,51.689h12.285
	v4.145H92.811v-4.639l12.233-15.59H92.811v-4.145h17.514V35.803z M133.757,35.803l-12.285,15.887h12.285v4.145h-17.515v-4.639
	l12.235-15.59h-12.235v-4.145h17.515V35.803z M162.072,55.834h-5.13l0.049-0.199V42.266c0-4.936-1.283-7.104-5.477-7.104
	c-4.736,0-6.413,3.305-6.413,7.596v13.076h-5.081V31.461h5.081v3.947c0.69-2.172,3.503-4.145,6.413-4.342
	c4.786-0.346,8.19,1.232,9.721,5.18c1.035-3.354,4.34-4.982,7.201-5.18c6.611-0.492,10.557,2.715,10.557,10.705v14.062h-5.08V42.266
	c0-4.936-1.284-7.104-5.477-7.104c-4.242,0-6.02,2.664-6.364,6.609V55.834z M208.987,43.695c0,7.254-5.673,12.631-12.678,12.631
	c-7.007,0-12.679-5.377-12.679-12.631c0-7.25,5.672-12.678,12.679-12.678C203.314,31.018,208.987,36.445,208.987,43.695z
	 M188.71,43.695c0,4.936,3.405,8.486,7.6,8.486c4.192,0,7.596-3.551,7.596-8.486c0-4.982-3.403-8.484-7.596-8.484
	C192.115,35.211,188.71,38.713,188.71,43.695z M225.612,31.018c2.416,0,5.377,1.035,7.005,2.367V18.832h5.132v37.002h-5.132v-1.826
	c-1.925,1.432-4.589,2.318-7.005,2.318c-7.007,0-12.187-5.377-12.187-12.631C213.426,36.445,218.605,31.018,225.612,31.018z
	 M226.104,52.182c2.763,0,5.23-1.283,6.513-3.896c0.69-1.334,1.085-2.912,1.085-4.59s-0.395-3.256-1.085-4.637
	c-1.282-2.613-3.75-3.848-6.513-3.848c-4.145,0-7.547,3.502-7.547,8.484C218.558,48.631,221.96,52.182,226.104,52.182z M27.85,1.73
	c-1.476,0-2.672,1.197-2.672,2.674c0,1.479,1.196,2.676,2.672,2.676c1.479,0,2.671-1.197,2.671-2.676
	C30.521,2.928,29.329,1.73,27.85,1.73z M21.351,8.596c-0.905,0-1.643,0.736-1.643,1.646c0,0.906,0.737,1.645,1.643,1.645
	c0.914,0,1.649-0.738,1.649-1.645C23,9.332,22.265,8.596,21.351,8.596z M24.989,36.293c-3.803,0-7.021,1.688-7.021,3.689
	c0,1.99,3.218,3.684,7.021,3.684c3.802,0,7.016-1.693,7.016-3.684C32.005,37.98,28.791,36.293,24.989,36.293z M45.646,47.234
	L32.357,27.461v-8.916h1.619c0.748,0,1.356-0.607,1.356-1.357c0-0.746-0.608-1.354-1.356-1.354H16.192
	c-0.747,0-1.355,0.607-1.355,1.354c0,0.75,0.608,1.357,1.355,1.357h1.617v8.916L4.565,47.166c-0.131,0.176-3.181,4.271-2.072,8.367
	c0.627,2.322,2.405,4.111,5.201,5.271c0.203,0.102,5.074,2.465,17.391,2.465s17.187-2.363,17.305-2.424
	c2.878-1.201,4.657-2.99,5.286-5.312C48.781,51.438,45.73,47.342,45.646,47.234z M45.054,54.836c-0.4,1.469-1.647,2.645-3.787,3.543
	c-0.044,0.018-4.629,2.176-16.182,2.176c-11.555,0-16.139-2.158-16.262-2.213c-2.062-0.861-3.31-2.043-3.711-3.506
	c-0.764-2.809,1.594-6.002,1.66-6.094l13.519-20.109c0.149-0.223,0.231-0.486,0.231-0.756v-9.332h9.122v9.332
	c0,0.27,0.079,0.533,0.23,0.756l13.56,20.166C43.462,48.834,45.819,52.031,45.054,54.836z M39.878,49.49
	c-0.02-0.033-0.052-0.068-0.074-0.1l-5.227-7.783c-0.25,1.225-1.099,2.311-2.352,3.17c0.741,0.516,1.262,1.332,1.262,2.305
	c0,1.576-1.276,2.85-2.849,2.85c-1.577,0-2.853-1.273-2.853-2.85c0-0.217,0.077-0.406,0.125-0.609
	c-0.922,0.174-1.896,0.273-2.922,0.273c-4.992,0-8.981-2.199-9.591-5.139l-5.226,7.783c-0.026,0.037-0.054,0.072-0.08,0.113
	c-0.43,0.582-1.598,2.619-1.184,4.105c0.239,0.857,1.069,1.586,2.458,2.17c0.053,0.023,0.105,0.049,0.16,0.072
	c0.003,0.006,3.848,1.75,13.462,1.75c9.617,0,13.458-1.744,13.494-1.762c0.05-0.031,0.072-0.037,0.129-0.061
	c1.392-0.584,2.216-1.312,2.457-2.17C41.48,52.123,40.316,50.086,39.878,49.49z M27.291,54.389c-0.804,0-1.457-0.65-1.457-1.459
	c0-0.801,0.653-1.455,1.457-1.455s1.458,0.654,1.458,1.455C28.749,53.738,28.095,54.389,27.291,54.389z"/>
</svg>