<?xml version="1.0" encoding="UTF-8"?>
<svg width="22px" height="22px" viewBox="0 0 22 22" version="1.1" xmlns="http://www.w3.org/2000/svg" xmlns:xlink="http://www.w3.org/1999/xlink">
    <!-- Generator: Sketch 55.2 (78181) - https://sketchapp.com -->
    <title>icn_marker</title>
    <desc>Created with Sketch.</desc>
    <defs>
        <path d="M12.936,13.585 C15.682,10.708 15.682,6.026 12.936,3.147 C11.614,1.763 9.86,1 7.996,1 C6.131,1 4.376,1.763 3.055,3.147 C0.31,6.026 0.31,10.708 3.055,13.585 L7.996,18.764 L12.936,13.585 Z M13.66,2.457 C16.769,5.717 16.769,11.018 13.66,14.275 L8.358,19.834 C8.263,19.933 8.132,19.988 7.996,19.988 C7.859,19.988 7.728,19.933 7.633,19.834 L2.331,14.275 C-0.777,11.018 -0.777,5.717 2.331,2.457 C3.844,0.872 5.856,-4.61852778e-14 7.996,-4.61852778e-14 C10.135,-4.61852778e-14 12.147,0.872 13.66,2.457 Z M7.9868,9.9815 C9.0908,9.9815 9.9868,9.0855 9.9868,7.9815 C9.9868,6.8785 9.0908,5.9815 7.9868,5.9815 C6.8838,5.9815 5.9868,6.8785 5.9868,7.9815 C5.9868,9.0855 6.8838,9.9815 7.9868,9.9815 Z M7.9868,4.9815 C9.6408,4.9815 10.9868,6.3275 10.9868,7.9815 C10.9868,9.6355 9.6408,10.9815 7.9868,10.9815 C6.3328,10.9815 4.9868,9.6355 4.9868,7.9815 C4.9868,6.3275 6.3328,4.9815 7.9868,4.9815 Z" id="marker-path-1"></path>
    </defs>
    <g id="marker-Home-" stroke="none" stroke-width="1" fill="none" fill-rule="evenodd">
        <g id="marker-COLOR/primary/black/pressed" transform="translate(3.000000, 1.000000)">
            <mask id="marker-mask-2" fill="white">
                <use xlink:href="#marker-path-1"></use>
            </mask>
            <use id="marker-Mask" fill="#000000" xlink:href="#marker-path-1"></use>
        </g>
    </g>
</svg>