<?xml version="1.0" encoding="UTF-8"?>
<svg width="46px" height="46px" viewBox="0 0 46 46" version="1.1" xmlns="http://www.w3.org/2000/svg" xmlns:xlink="http://www.w3.org/1999/xlink">
    <!-- Generator: Sketch 55.2 (78181) - https://sketchapp.com -->
    <title>icn_payment</title>
    <desc>Created with Sketch.</desc>
    <defs>
        <path d="M39.5,18.4917484 L39.5,15.1233274 L6.5,15.1233274 L6.5,18.4917484 L39.5,18.4917484 Z M39.5,19.9917484 L6.5,19.9917484 L6.5,34 C6.5,34.2761424 6.72385763,34.5 7,34.5 L39,34.5 C39.2761424,34.5 39.5,34.2761424 39.5,34 L39.5,19.9917484 Z M39.5,13.6233274 L39.5,12 C39.5,11.7238576 39.2761424,11.5 39,11.5 L7,11.5 C6.72385763,11.5 6.5,11.7238576 6.5,12 L6.5,13.6233274 L39.5,13.6233274 Z M7,10 L39,10 C40.1045695,10 41,10.8954305 41,12 L41,34 C41,35.1045695 40.1045695,36 39,36 L7,36 C5.8954305,36 5,35.1045695 5,34 L5,12 C5,10.8954305 5.8954305,10 7,10 Z M9.5,27.5657895 L9.5,26.5657895 L20.5,26.5657895 L20.5,27.5657895 L9.5,27.5657895 Z M9.5,30.4868421 L9.5,29.4868421 L14.7001494,29.4868421 L14.7001494,30.4868421 L9.5,30.4868421 Z M32.5,31.1315789 C30.5670034,31.1315789 29,29.5645756 29,27.6315789 C29,25.6985823 30.5670034,24.1315789 32.5,24.1315789 C34.4329966,24.1315789 36,25.6985823 36,27.6315789 C36,29.5645756 34.4329966,31.1315789 32.5,31.1315789 Z M32.5,30.1315789 C33.8807119,30.1315789 35,29.0122908 35,27.6315789 C35,26.2508671 33.8807119,25.1315789 32.5,25.1315789 C31.1192881,25.1315789 30,26.2508671 30,27.6315789 C30,29.0122908 31.1192881,30.1315789 32.5,30.1315789 Z" id="payment-path-1"></path>
    </defs>
    <g id="payment-Home-" stroke="none" stroke-width="1" fill="none" fill-rule="evenodd">
        <mask id="payment-mask-2" fill="white">
            <use xlink:href="#payment-path-1"></use>
        </mask>
        <use id="payment-icn_payment" fill="#000000" fill-rule="nonzero" xlink:href="#payment-path-1"></use>
    </g>
</svg>