<?xml version="1.0" encoding="UTF-8"?>
<svg width="23px" height="23px" viewBox="0 0 23 23" version="1.1" xmlns="http://www.w3.org/2000/svg" xmlns:xlink="http://www.w3.org/1999/xlink">
    <!-- Generator: Sketch 53 (72520) - https://sketchapp.com -->
    <title>icn_trash</title>
    <desc>Created with Sketch.</desc>
    <g id="Home" stroke="none" stroke-width="1" fill="none" fill-rule="evenodd">
        <path d="M18.3410275,6.77918771 L16.3330821,21.5451978 L6.62153916,21.5451978 L4.51847991,6.77918771 L2.91800811,6.77918771 L2.91800811,5.27918771 L19.6840119,5.27918771 L19.6840119,6.77918771 L18.3410275,6.77918771 Z M6.03361734,6.77918771 L7.92303804,20.0451978 L15.0232533,20.0451978 L16.8272222,6.77918771 L6.03361734,6.77918771 Z M9.36111111,3.20238095 L9.36111111,1.70238095 L13.2507896,1.70238095 L13.2507896,3.20238095 L9.36111111,3.20238095 Z M8.77781536,10.1520034 L9.76787074,10.0113253 L10.7144623,16.6731855 L9.72440691,16.8138636 L8.77781536,10.1520034 Z M14.026075,10.1520034 L13.0794834,16.8138636 L12.089428,16.6731855 L13.0360196,10.0113253 L14.026075,10.1520034 Z" id="icn_trash" fill="#000000" fill-rule="nonzero"></path>
    </g>
</svg>