<svg xmlns="http://www.w3.org/2000/svg" viewBox="0 0 206.77386 79.44102"><defs><style>.vtex-cls-1{fill:#f61963;}</style></defs><title>logo_vtex</title><g id="vtex-Layer_2" data-name="vtex-Layer 2"><g id="vtex-Layer_1-2" data-name="vtex-Layer 1"><path class="vtex-cls-1" d="M81.33387,0h-65.61c-5.09,0-8.35,5.72-6,10.47l6.61,13.17h-11.92a4.62,4.62,0,0,0-3.87,6.79l21.12,42.22a4.27,4.27,0,0,0,7.74,0l5.74-11.41,7.19,14.4a6.59,6.59,0,0,0,11.94,0l32.91-65.42C89.51386,5.61,86.33387,0,81.33387,0Zm-29.45,28-14.19,28.19a2.84,2.84,0,0,1-5.15,0l-14.05-28.09a3.08,3.08,0,0,1,2.58-4.52h28.26a3,3,0,0,1,2.55,4.42Z"/><path class="vtex-cls-1" d="M151.21388,30.38h-7.18v26a.87.87,0,0,1-.84955.89h-5.54045a.87.87,0,0,1-.85-.88954V30.38h-7.22a.83.83,0,0,1-.85-.8095q-.00051-.02025,0-.0405v-4.6a.83.83,0,0,1,.80951-.85q.02022-.00049.04049,0h21.64a.87.87,0,0,1,.89.84954V29.53a.87.87,0,0,1-.88954.85Z"/><path class="vtex-cls-1" d="M174.27387,57.08a52.45917,52.45917,0,0,1-8.54.58c-5.45,0-10.27-1.47-10.27-9.6V33.24c0-8.13,4.86-9.56,10.32-9.56a51.78058,51.78058,0,0,1,8.49.58c.59.09.85.31.85.89V29.3a.87.87,0,0,1-.84955.89h-8.94048c-2,0-2.71.71-2.71,3V37.3h11.31a.87.87,0,0,1,.85.88954l0,.00046v4.24a.87.87,0,0,1-.84954.89H162.65388v4.73c0,2.32.72,3,2.71,3h8.92a.87.87,0,0,1,.85.88954l0,.00046v4.15A.8627.8627,0,0,1,174.27387,57.08Z"/><path class="vtex-cls-1" d="M206.17387,57.26h-6.72a1.1,1.1,0,0,1-1.1-.67l-5.83-9.77-5.28,9.55c-.3.54-.59.89-1.06.89h-6.25a.57007.57007,0,0,1-.63-.58.86033.86033,0,0,1,.08-.31l9.17-16.12-9.22-15.32a.66012.66012,0,0,1-.08-.27.62.62,0,0,1,.63-.58h6.81c.47,0,.8.45,1.06.85l5.41,9,5.23-9c.21-.4.59-.85,1.06-.85h6.26a.62.62,0,0,1,.63.58.66.66,0,0,1-.08.27l-9.21,15.41,9.59,16a.99984.99984,0,0,1,.13.45A.55112.55112,0,0,1,206.17387,57.26Z"/><path class="vtex-cls-1" d="M118.60388,24.17a.66.66,0,0,0-.64.55l-6.14,24c-.08.49-.21.67-.59.67s-.51-.18-.59-.67l-6.14-24a.66.66,0,0,0-.64-.55h-6a.68.68,0,0,0-.64.85s7.5,27.51,7.58,27.79a6.39,6.39,0,0,0,6.52,4.85,6.59,6.59,0,0,0,6.52-4.84c.12-.38,7.45-27.8,7.45-27.8a.68.68,0,0,0-.64-.84Z"/></g></g></svg>